if (_typeface_js && _typeface_js.loadFace) _typeface_js.loadFace({"glyphs":{"⌐":{"x_min":85,"x_max":826,"ha":917,"o":"m 826 768 l 826 548 l 306 548 l 306 214 l 85 214 l 85 768 l 826 768 "},"♀":{"x_min":59,"x_max":704.671875,"ha":764,"o":"m 399 326 l 399 78 l 682 78 l 682 42 l 399 42 l 399 -228 l 362 -228 l 362 42 l 79 42 l 79 78 l 362 78 l 362 326 q 232 362 306 326 q 108 476 158 398 q 59 648 59 554 q 153 876 59 781 q 381 971 248 971 q 609 876 514 971 q 704 648 704 781 q 618 428 704 522 q 399 326 531 335 m 671 647 q 586 851 671 767 q 381 936 501 936 q 177 851 262 936 q 92 647 92 766 q 177 443 92 528 q 381 358 262 358 q 586 443 501 358 q 671 647 671 528 "},"ǻ":{"x_min":50,"x_max":878.59375,"ha":926,"o":"m 336 487 l 72 515 q 115 623 86 583 q 195 692 143 663 q 300 724 233 713 q 443 736 366 736 q 642 722 567 736 q 768 664 718 708 q 823 577 803 633 q 844 471 844 521 l 844 153 q 850 73 844 102 q 878 0 856 44 l 619 0 q 599 42 603 27 q 589 88 594 56 q 481 13 535 36 q 312 -16 408 -16 q 116 43 183 -16 q 50 190 50 103 q 98 325 50 272 q 275 404 146 378 q 476 448 430 435 q 574 481 522 460 q 553 551 574 531 q 479 572 532 572 q 378 550 412 572 q 336 487 352 533 m 574 342 q 455 306 517 321 q 349 261 372 283 q 327 210 327 239 q 349 157 327 178 q 416 137 372 137 q 501 159 461 137 q 557 214 540 181 q 574 297 574 246 l 574 342 m 626 951 q 578 835 626 883 q 462 788 530 788 q 346 835 394 788 q 299 951 299 883 q 346 1067 299 1019 q 462 1115 394 1115 q 578 1067 530 1115 q 626 951 626 1019 m 532 952 q 511 1001 532 981 q 462 1022 491 1022 q 412 1001 432 1022 q 392 952 392 981 q 412 902 392 922 q 462 882 432 882 q 511 902 491 882 q 532 952 532 922 m 419 1377 l 656 1377 l 437 1174 l 305 1174 l 419 1377 "},"Á":{"x_min":2,"x_max":1084,"ha":1080,"o":"m 712 164 l 364 164 l 315 0 l 2 0 l 375 994 l 711 994 l 1084 0 l 762 0 l 712 164 m 648 379 l 539 736 l 430 379 l 648 379 m 533 1257 l 770 1257 l 551 1054 l 419 1054 l 533 1257 "},"ĥ":{"x_min":83,"x_max":845,"ha":926,"o":"m 83 994 l 359 994 l 359 627 q 471 710 415 685 q 602 736 526 736 q 780 667 715 736 q 845 457 845 599 l 845 0 l 568 0 l 568 395 q 542 491 568 463 q 472 520 517 520 q 390 482 421 520 q 359 345 359 444 l 359 0 l 83 0 l 83 994 m 368 1257 l 564 1257 l 715 1063 l 546 1063 l 464 1166 l 381 1063 l 213 1063 l 368 1257 "},"Κ":{"x_min":103,"x_max":1157,"ha":1157,"o":"m 103 994 l 410 994 l 410 618 l 732 994 l 1141 994 l 779 618 l 1157 0 l 778 0 l 569 408 l 410 241 l 410 0 l 103 0 l 103 994 "},"»":{"x_min":81,"x_max":861,"ha":926,"o":"m 293 675 l 81 675 l 269 361 l 81 48 l 293 48 l 509 362 l 293 675 m 645 675 l 433 675 l 621 362 l 433 48 l 645 48 l 861 361 l 645 675 "},"∆":{"x_min":18,"x_max":831,"ha":850,"o":"m 831 0 l 18 0 l 443 941 l 831 0 m 670 56 l 400 712 l 102 56 l 670 56 "},"♥":{"x_min":40.015625,"x_max":779.28125,"ha":819,"o":"m 411 -16 q 348 138 389 66 q 161 402 307 210 q 66 546 92 493 q 40 657 40 600 q 90 783 40 731 q 214 834 140 834 q 411 663 354 834 q 487 792 434 750 q 604 834 541 834 q 728 784 678 834 q 779 665 779 733 q 751 541 779 605 q 634 363 724 476 q 411 -16 440 119 "},"ў":{"x_min":3,"x_max":853,"ha":848,"o":"m 3 720 l 294 720 l 443 240 l 581 720 l 853 720 l 567 -49 q 467 -227 518 -181 q 249 -292 396 -292 q 64 -275 189 -292 l 43 -83 q 175 -102 102 -102 q 254 -79 224 -102 q 305 0 284 -57 l 3 720 m 646 1012 q 578 860 644 913 q 419 808 511 808 q 251 861 312 808 q 183 1012 191 915 l 300 1012 q 414 940 320 940 q 495 954 466 940 q 535 1012 524 968 l 646 1012 "},"ţ":{"x_min":38,"x_max":579,"ha":617,"o":"m 417 994 l 417 720 l 569 720 l 569 518 l 417 518 l 417 262 q 425 202 417 216 q 473 179 439 179 q 558 196 503 179 l 579 6 q 387 -16 476 -16 q 235 10 284 -16 q 163 90 186 36 q 140 264 140 144 l 140 518 l 38 518 l 38 720 l 140 720 l 140 852 l 417 994 m 227 -112 l 247 -32 q 366 -17 311 -17 q 526 -56 482 -17 q 571 -148 571 -95 q 550 -215 571 -181 q 479 -271 530 -250 q 342 -292 427 -292 q 160 -274 264 -292 l 160 -191 q 310 -205 230 -205 q 389 -189 368 -205 q 410 -148 410 -173 q 393 -115 410 -129 q 340 -101 376 -101 q 227 -112 292 -101 "},"«":{"x_min":65,"x_max":845,"ha":926,"o":"m 633 675 l 845 675 l 657 361 l 845 48 l 633 48 l 417 362 l 633 675 m 281 675 l 493 675 l 305 362 l 493 48 l 281 48 l 65 361 l 281 675 "},"í":{"x_min":94,"x_max":461,"ha":463,"o":"m 94 720 l 370 720 l 370 0 l 94 0 l 94 720 m 224 1011 l 461 1011 l 242 808 l 110 808 l 224 1011 "},"◦":{"x_min":75.96875,"x_max":416.421875,"ha":492,"o":"m 246 629 q 365 580 314 629 q 416 459 416 531 q 366 338 416 388 q 246 288 316 288 q 125 338 175 288 q 75 459 75 388 q 126 579 75 529 q 246 629 176 629 m 246 577 q 162 543 198 577 q 127 459 127 510 q 162 375 127 409 q 246 340 197 340 q 329 375 295 340 q 364 459 364 409 q 329 543 364 509 q 246 577 294 577 "},"ņ":{"x_min":83,"x_max":845,"ha":926,"o":"m 83 720 l 340 720 l 340 602 q 456 705 397 674 q 600 736 515 736 q 780 667 715 736 q 845 457 845 599 l 845 0 l 568 0 l 568 395 q 542 491 568 463 q 472 520 517 520 q 390 482 421 520 q 359 345 359 444 l 359 0 l 83 0 l 83 720 m 355 -112 l 375 -32 q 494 -17 439 -17 q 654 -56 610 -17 q 699 -148 699 -95 q 678 -215 699 -181 q 607 -271 658 -250 q 470 -292 555 -292 q 288 -274 392 -292 l 288 -191 q 438 -205 358 -205 q 517 -189 496 -205 q 538 -148 538 -173 q 521 -115 538 -129 q 468 -101 504 -101 q 355 -112 420 -101 "},"µ":{"x_min":81,"x_max":843,"ha":926,"o":"m 81 720 l 358 720 l 358 358 q 378 253 358 281 q 464 209 408 209 q 542 248 516 209 q 568 366 568 288 l 568 720 l 843 720 l 843 0 l 584 0 l 584 57 q 540 5 561 19 q 472 -16 507 -16 q 404 3 439 -16 q 358 52 380 16 l 358 -273 l 81 -273 l 81 720 "},"ỳ":{"x_min":3,"x_max":853,"ha":848,"o":"m 3 720 l 294 720 l 443 240 l 581 720 l 853 720 l 567 -49 q 467 -227 518 -181 q 249 -292 396 -292 q 64 -275 189 -292 l 43 -83 q 175 -102 102 -102 q 254 -79 224 -102 q 305 0 284 -57 l 3 720 m 233 1011 l 468 1011 l 579 809 l 449 809 l 233 1011 "},"Ι":{"x_min":114,"x_max":422,"ha":541,"o":"m 114 994 l 422 994 l 422 0 l 114 0 l 114 994 "},"Ύ":{"x_min":5,"x_max":1347,"ha":1346,"o":"m 265 994 l 606 994 l 806 659 l 1007 994 l 1347 994 l 960 416 l 960 0 l 652 0 l 652 416 l 265 994 m 259 994 l 137 791 l 5 791 l 49 994 l 259 994 "},"ѕ":{"x_min":34,"x_max":800,"ha":848,"o":"m 34 200 l 308 226 q 355 156 324 177 q 437 135 386 135 q 523 158 492 135 q 547 202 547 176 q 515 248 547 232 q 397 276 493 260 q 197 323 253 301 q 103 395 141 344 q 65 511 65 446 q 106 633 65 582 q 220 710 147 685 q 415 736 292 736 q 605 716 543 736 q 707 655 666 696 q 776 544 748 614 l 514 518 q 480 568 503 552 q 401 590 447 590 q 333 573 354 590 q 312 533 312 556 q 339 493 312 506 q 456 468 366 479 q 661 425 594 453 q 764 346 728 397 q 800 233 800 295 q 762 112 800 171 q 643 18 724 53 q 422 -16 562 -16 q 141 40 225 -16 q 34 200 57 96 "},"Ш":{"x_min":104,"x_max":1441,"ha":1542,"o":"m 1441 0 l 104 0 l 104 994 l 411 994 l 411 244 l 617 244 l 617 994 l 924 994 l 924 244 l 1134 244 l 1134 994 l 1441 994 l 1441 0 "},"M":{"x_min":98,"x_max":1217,"ha":1311,"o":"m 98 994 l 502 994 l 658 389 l 812 994 l 1217 994 l 1217 0 l 965 0 l 965 758 l 771 0 l 543 0 l 350 758 l 350 0 l 98 0 l 98 994 "},"╗":{"x_min":-14.25,"x_max":680.9375,"ha":986,"o":"m 562 -421 l 562 491 l -14 491 l -14 609 l 680 609 l 680 -421 l 562 -421 m 304 233 l -14 233 l -14 352 l 423 352 l 423 -421 l 304 -421 l 304 233 "},"Ψ":{"x_min":56,"x_max":1257,"ha":1314,"o":"m 1257 679 q 1146 377 1257 493 q 810 262 1036 262 l 810 0 l 503 0 l 503 259 q 166 374 276 259 q 56 676 56 490 l 56 992 l 363 992 l 363 663 q 370 575 363 609 q 407 515 377 541 q 503 490 438 490 l 503 995 l 810 995 l 810 493 q 905 518 874 493 q 942 578 935 544 q 950 666 950 612 l 950 995 l 1257 995 l 1257 679 "},"ũ":{"x_min":81,"x_max":842,"ha":926,"o":"m 842 0 l 584 0 l 584 117 q 468 14 526 45 q 324 -16 409 -16 q 145 52 210 -16 q 81 261 81 120 l 81 720 l 358 720 l 358 324 q 383 228 358 256 q 453 200 408 200 q 534 237 502 200 q 566 374 566 275 l 566 720 l 842 720 l 842 0 m 600 994 l 707 994 q 707 963 707 976 q 669 847 707 888 q 572 806 631 806 q 440 841 528 806 q 367 863 387 863 q 336 850 347 863 q 325 808 325 838 l 219 808 q 218 836 218 824 q 258 951 218 908 q 353 994 298 994 q 397 988 376 994 q 475 959 418 983 q 557 936 532 936 q 587 948 576 936 q 600 994 598 960 "},"ŭ":{"x_min":81,"x_max":842,"ha":926,"o":"m 842 0 l 584 0 l 584 117 q 468 14 526 45 q 324 -16 409 -16 q 145 52 210 -16 q 81 261 81 120 l 81 720 l 358 720 l 358 324 q 383 228 358 256 q 453 200 408 200 q 534 237 502 200 q 566 374 566 275 l 566 720 l 842 720 l 842 0 m 581 1011 l 693 1011 q 662 902 688 946 q 582 832 636 858 q 466 806 528 806 q 301 859 363 806 q 230 1011 240 913 l 347 1011 q 385 954 360 971 q 460 938 410 938 q 544 954 519 938 q 581 1011 570 971 "},"―":{"x_min":-8,"x_max":1049,"ha":1042,"o":"m -8 439 l 1049 439 l 1049 288 l -8 288 l -8 439 "},"{":{"x_min":18,"x_max":526,"ha":541,"o":"m 526 1011 l 526 789 l 495 789 q 431 771 453 789 q 402 715 410 753 q 396 604 397 695 q 377 460 395 512 q 338 396 363 420 q 275 358 319 377 q 342 315 320 337 q 380 246 364 292 q 396 98 396 199 q 405 -21 396 6 q 437 -60 415 -48 q 526 -72 459 -72 l 526 -292 l 440 -292 q 252 -263 307 -292 q 172 -179 196 -234 q 148 -13 148 -123 q 150 35 148 10 q 151 65 151 50 q 136 177 151 144 q 95 225 122 210 q 18 242 68 240 l 18 475 q 96 491 70 475 q 136 541 122 507 q 150 654 150 574 l 150 677 q 149 708 149 693 q 169 882 149 828 q 224 964 189 935 q 296 996 251 985 q 434 1011 357 1011 l 526 1011 "},"¼":{"x_min":107,"x_max":1337,"ha":1389,"o":"m 436 1011 l 436 502 l 260 502 l 260 806 q 191 772 222 784 q 107 751 160 761 l 107 891 q 301 1011 231 921 l 436 1011 m 950 1011 l 1096 1011 l 470 -36 l 326 -36 l 950 1011 m 1118 48 l 841 48 l 841 176 l 1124 489 l 1270 489 l 1270 161 l 1337 161 l 1337 48 l 1270 48 l 1270 -34 l 1118 -34 l 1118 48 m 1118 161 l 1118 309 l 979 161 l 1118 161 "},"▄":{"x_min":-14.25,"x_max":1000.375,"ha":986,"o":"m 1000 -421 l -14 -421 l -14 421 l 1000 421 l 1000 -421 "},"ι":{"x_min":94,"x_max":370,"ha":463,"o":"m 94 720 l 370 720 l 370 0 l 94 0 l 94 720 "},"Ĳ":{"x_min":117,"x_max":1324,"ha":1428,"o":"m 1324 455 q 1312 271 1324 345 q 1262 134 1301 197 q 1161 36 1223 72 q 1045 -7 1099 1 q 938 -17 991 -17 q 630 74 726 -17 q 524 336 534 166 l 817 376 q 917 214 817 214 q 990 248 964 214 q 1017 382 1017 283 l 1017 994 l 1324 994 l 1324 455 m 424 0 l 117 0 l 117 994 l 424 994 l 424 0 "},"Ê":{"x_min":101,"x_max":939,"ha":1003,"o":"m 101 994 l 924 994 l 924 782 l 409 782 l 409 624 l 887 624 l 887 421 l 409 421 l 409 225 l 939 225 l 939 0 l 101 0 l 101 994 m 408 1248 l 604 1248 l 755 1054 l 586 1054 l 504 1157 l 421 1054 l 253 1054 l 408 1248 "},"Ά":{"x_min":2,"x_max":1084,"ha":1080,"o":"m 712 164 l 364 164 l 315 0 l 2 0 l 375 994 l 711 994 l 1084 0 l 762 0 l 712 164 m 648 379 l 539 736 l 430 379 l 648 379 m 257 994 l 135 791 l 3 791 l 47 994 l 257 994 "},")":{"x_min":55,"x_max":465,"ha":541,"o":"m 227 1011 l 55 1011 q 182 647 143 814 q 216 345 216 505 q 55 -292 216 35 l 227 -292 q 411 45 358 -105 q 465 361 465 196 q 409 687 465 533 q 227 1011 353 842 "},"ε":{"x_min":50,"x_max":756,"ha":761,"o":"m 756 71 q 449 -16 644 -16 q 155 46 261 -16 q 50 211 50 108 q 177 374 50 318 q 78 532 78 422 q 176 681 78 627 q 452 736 274 736 q 727 685 623 736 l 622 534 q 458 573 547 573 q 351 518 351 573 q 386 466 351 483 q 518 450 422 450 l 518 295 q 373 275 418 295 q 329 211 329 255 q 459 148 329 148 q 628 203 558 148 l 756 71 "},"э":{"x_min":43,"x_max":876,"ha":926,"o":"m 57 489 q 191 676 95 616 q 455 736 286 736 q 663 703 581 736 q 810 585 745 670 q 876 357 876 500 q 772 86 876 188 q 436 -16 669 -16 q 43 254 116 -16 l 306 284 q 453 173 339 173 q 595 287 569 173 l 382 287 l 382 429 l 590 429 q 447 547 560 547 q 317 455 338 547 l 57 489 "},"ш":{"x_min":79,"x_max":1217,"ha":1318,"o":"m 1217 0 l 79 0 l 79 720 l 355 720 l 355 201 l 510 201 l 510 720 l 786 720 l 786 201 l 940 201 l 940 720 l 1217 720 l 1217 0 "},"Я":{"x_min":3,"x_max":981,"ha":1083,"o":"m 981 0 l 981 994 l 469 994 q 251 969 326 994 q 130 878 176 945 q 84 717 84 812 q 119 575 84 635 q 216 477 154 514 q 323 438 255 453 q 243 401 268 419 q 194 349 226 389 q 151 287 162 309 l 3 0 l 350 0 l 514 303 q 569 379 545 362 q 644 403 602 403 l 672 403 l 672 0 l 981 0 m 672 591 l 542 591 q 461 604 522 591 q 412 635 431 610 q 393 693 393 660 q 423 767 393 741 q 537 793 453 793 l 672 793 l 672 591 "},"a":{"x_min":50,"x_max":878.59375,"ha":926,"o":"m 336 487 l 72 515 q 115 623 86 583 q 195 692 143 663 q 300 724 233 713 q 443 736 366 736 q 642 722 567 736 q 768 664 718 708 q 823 577 803 633 q 844 471 844 521 l 844 153 q 850 73 844 102 q 878 0 856 44 l 619 0 q 599 42 603 27 q 589 88 594 56 q 481 13 535 36 q 312 -16 408 -16 q 116 43 183 -16 q 50 190 50 103 q 98 325 50 272 q 275 404 146 378 q 476 448 430 435 q 574 481 522 460 q 553 551 574 531 q 479 572 532 572 q 378 550 412 572 q 336 487 352 533 m 574 342 q 455 306 517 321 q 349 261 372 283 q 327 210 327 239 q 349 157 327 178 q 416 137 372 137 q 501 159 461 137 q 557 214 540 181 q 574 297 574 246 l 574 342 "},"Ę":{"x_min":101,"x_max":939,"ha":1003,"o":"m 101 994 l 924 994 l 924 782 l 409 782 l 409 624 l 887 624 l 887 421 l 409 421 l 409 225 l 939 225 l 939 0 l 101 0 l 101 994 m 626 18 l 741 18 q 728 -79 728 -40 q 753 -157 728 -131 q 823 -184 778 -184 q 910 -166 855 -184 l 910 -271 q 765 -303 825 -303 q 639 -259 684 -303 q 594 -144 594 -216 q 626 18 594 -83 "},"Z":{"x_min":23,"x_max":966,"ha":1003,"o":"m 77 994 l 946 994 l 946 795 l 388 214 l 966 214 l 966 0 l 23 0 l 23 206 l 574 782 l 77 782 l 77 994 "},"⁸":{"x_min":20,"x_max":538,"ha":555,"o":"m 450 768 q 538 654 538 741 q 470 531 538 573 q 278 489 403 489 q 87 531 154 489 q 20 654 20 573 q 106 768 20 740 q 35 869 35 797 q 99 974 35 938 q 278 1011 164 1011 q 455 974 390 1011 q 521 869 521 938 q 450 768 521 798 m 278 811 q 336 825 314 811 q 358 861 358 839 q 339 899 358 888 q 279 911 320 911 q 198 861 198 911 q 219 825 198 839 q 278 811 241 811 m 278 591 q 367 659 367 591 q 343 708 367 690 q 278 726 319 726 q 190 659 190 726 q 278 591 190 591 "},"k":{"x_min":83,"x_max":926,"ha":926,"o":"m 83 994 l 365 994 l 365 482 l 571 720 l 911 720 l 652 467 l 926 0 l 614 0 l 468 288 l 365 187 l 365 0 l 83 0 l 83 994 "},"Ù":{"x_min":102,"x_max":1055,"ha":1157,"o":"m 748 994 l 1055 994 l 1055 401 q 1027 235 1055 313 q 941 98 1000 157 q 818 16 882 39 q 603 -17 728 -17 q 444 -6 530 -17 q 301 33 359 3 q 195 119 243 63 q 130 233 148 174 q 102 401 102 328 l 102 994 l 409 994 l 409 387 q 454 260 409 306 q 578 215 499 215 q 703 260 658 215 q 748 387 748 305 l 748 994 m 349 1257 l 584 1257 l 695 1055 l 565 1055 l 349 1257 "},"Ů":{"x_min":102,"x_max":1055,"ha":1157,"o":"m 748 994 l 1055 994 l 1055 401 q 1027 235 1055 313 q 941 98 1000 157 q 818 16 882 39 q 603 -17 728 -17 q 444 -6 530 -17 q 301 33 359 3 q 195 119 243 63 q 130 233 148 174 q 102 401 102 328 l 102 994 l 409 994 l 409 387 q 454 260 409 306 q 578 215 499 215 q 703 260 658 215 q 748 387 748 305 l 748 994 m 742 1202 q 694 1086 742 1134 q 578 1039 646 1039 q 462 1086 510 1039 q 415 1202 415 1134 q 462 1318 415 1270 q 578 1366 510 1366 q 694 1318 646 1366 q 742 1202 742 1270 m 648 1203 q 627 1252 648 1232 q 578 1273 607 1273 q 528 1252 548 1273 q 508 1203 508 1232 q 528 1153 508 1173 q 578 1133 548 1133 q 627 1153 607 1133 q 648 1203 648 1173 "},"¢":{"x_min":50,"x_max":883,"ha":926,"o":"m 632 279 l 883 251 q 842 144 868 184 q 707 24 793 70 q 503 -22 622 -22 q 382 -16 473 -22 l 295 -265 l 206 -233 l 289 4 q 114 130 179 39 q 50 358 50 220 q 158 636 50 530 q 442 742 267 742 q 543 736 469 742 l 631 981 l 719 949 l 638 720 q 750 664 706 698 q 825 586 795 631 q 869 489 846 553 l 622 456 q 603 501 612 487 q 574 534 595 515 l 442 157 q 481 154 467 154 q 574 186 533 154 q 632 279 615 218 m 358 202 l 482 561 q 468 562 473 562 q 360 513 408 562 q 312 342 312 464 q 322 262 312 291 q 358 202 332 233 "},"В":{"x_min":102,"x_max":1021,"ha":1080,"o":"m 102 994 l 677 994 q 898 922 821 994 q 975 746 975 851 q 920 595 975 658 q 812 528 883 553 q 970 440 920 503 q 1021 282 1021 377 q 985 143 1021 205 q 886 46 949 82 q 770 13 848 23 q 632 0 666 0 l 102 0 l 102 994 m 412 604 l 545 604 q 645 628 617 604 q 674 700 674 653 q 645 768 674 744 q 547 793 617 793 l 412 793 l 412 604 m 412 214 l 568 214 q 680 242 647 214 q 713 317 713 270 q 680 388 713 361 q 567 415 648 415 l 412 415 l 412 214 "},"І":{"x_min":114,"x_max":422,"ha":541,"o":"m 114 994 l 422 994 l 422 0 l 114 0 l 114 994 "},"ē":{"x_min":49,"x_max":883,"ha":926,"o":"m 883 292 l 330 292 q 365 192 337 225 q 469 146 405 146 q 547 166 510 146 q 595 212 569 179 l 867 187 q 716 31 804 78 q 463 -16 628 -16 q 238 24 320 -16 q 102 152 156 64 q 49 358 49 240 q 157 631 49 527 q 455 736 265 736 q 699 689 610 736 q 836 553 789 642 q 883 323 883 465 l 883 292 m 602 424 q 559 538 593 503 q 467 573 524 573 q 362 520 401 573 q 330 424 337 488 l 602 424 m 255 981 l 694 981 l 694 834 l 255 834 l 255 981 "},"β":{"x_min":81,"x_max":842,"ha":895,"o":"m 639 569 q 784 468 727 548 q 842 285 842 388 q 765 62 842 140 q 555 -16 689 -16 q 346 67 417 -16 l 346 -275 l 81 -275 l 81 688 q 174 928 81 846 q 432 1011 267 1011 q 680 945 590 1011 q 770 757 770 879 q 734 644 770 694 q 639 569 698 595 m 402 605 q 487 649 453 613 q 521 735 521 684 q 434 837 521 837 q 368 801 391 837 q 346 702 346 765 l 346 269 q 482 165 392 165 q 562 195 533 165 q 592 282 592 226 q 547 401 592 351 q 402 459 502 450 l 402 605 "},"≠":{"x_min":66,"x_max":844,"ha":917,"o":"m 66 773 l 470 773 l 606 1122 l 794 1122 l 657 773 l 844 773 l 844 554 l 574 554 l 527 440 l 844 440 l 844 221 l 441 221 l 304 -130 l 115 -130 l 252 221 l 66 221 l 66 440 l 338 440 l 383 554 l 66 554 l 66 773 "},"‼":{"x_min":85,"x_max":756,"ha":839,"o":"m 756 768 l 699 313 l 519 313 l 463 768 l 463 994 l 756 994 l 756 768 m 379 768 l 321 313 l 141 313 l 85 768 l 85 994 l 379 994 l 379 768 m 747 0 l 472 0 l 472 243 l 747 243 l 747 0 m 369 0 l 94 0 l 94 243 l 369 243 l 369 0 "},"¥":{"x_min":-1,"x_max":928,"ha":926,"o":"m -1 994 l 308 994 l 464 657 l 617 994 l 928 994 l 691 566 l 893 566 l 893 416 l 607 416 l 607 334 l 893 334 l 893 182 l 607 182 l 607 0 l 325 0 l 325 182 l 35 182 l 35 334 l 325 334 l 325 416 l 35 416 l 35 566 l 242 566 l -1 994 "},"Ĥ":{"x_min":103,"x_max":1055,"ha":1157,"o":"m 103 994 l 410 994 l 410 646 l 746 646 l 746 994 l 1055 994 l 1055 0 l 746 0 l 746 402 l 410 402 l 410 0 l 103 0 l 103 994 m 483 1260 l 679 1260 l 830 1066 l 661 1066 l 579 1169 l 496 1066 l 328 1066 l 483 1260 "},"U":{"x_min":102,"x_max":1055,"ha":1157,"o":"m 748 994 l 1055 994 l 1055 401 q 1027 235 1055 313 q 941 98 1000 157 q 818 16 882 39 q 603 -17 728 -17 q 444 -6 530 -17 q 301 33 359 3 q 195 119 243 63 q 130 233 148 174 q 102 401 102 328 l 102 994 l 409 994 l 409 387 q 454 260 409 306 q 578 215 499 215 q 703 260 658 215 q 748 387 748 305 l 748 994 "},"Ñ":{"x_min":104,"x_max":1055,"ha":1157,"o":"m 104 994 l 390 994 l 765 444 l 765 994 l 1055 994 l 1055 0 l 765 0 l 393 546 l 393 0 l 104 0 l 104 994 m 716 1240 l 823 1240 q 823 1209 823 1222 q 785 1093 823 1134 q 688 1052 747 1052 q 556 1087 644 1052 q 483 1109 503 1109 q 452 1096 463 1109 q 441 1054 441 1084 l 335 1054 q 334 1082 334 1070 q 374 1197 334 1154 q 469 1240 414 1240 q 513 1234 492 1240 q 591 1205 534 1229 q 673 1182 648 1182 q 703 1194 692 1182 q 716 1240 714 1206 "},"F":{"x_min":103,"x_max":862,"ha":926,"o":"m 103 994 l 862 994 l 862 780 l 412 780 l 412 607 l 796 607 l 796 406 l 412 406 l 412 0 l 103 0 l 103 994 "},"╤":{"x_min":-14.25,"x_max":1000.375,"ha":986,"o":"m 1000 491 l -14 491 l -14 609 l 1000 609 l 1000 491 m 433 233 l -14 233 l -14 352 l 1000 352 l 1000 233 l 552 233 l 552 -421 l 433 -421 l 433 233 "},"Ќ":{"x_min":102,"x_max":1006,"ha":1014,"o":"m 1006 0 l 659 0 l 540 256 q 474 370 498 347 q 409 393 450 393 l 409 0 l 102 0 l 102 994 l 409 994 l 409 612 q 471 640 448 614 q 541 792 493 667 q 610 926 575 885 q 725 984 646 966 q 974 1002 804 1002 l 974 792 l 958 792 q 841 762 879 792 q 779 665 803 732 q 727 565 755 598 q 650 512 699 532 q 766 437 716 490 q 871 271 815 384 l 1006 0 m 498 1269 l 735 1269 l 516 1066 l 384 1066 l 498 1269 "},"∕":{"x_min":-269,"x_max":501,"ha":232,"o":"m 355 1011 l 501 1011 l -124 -36 l -269 -36 l 355 1011 "},"å":{"x_min":50,"x_max":878.59375,"ha":926,"o":"m 336 487 l 72 515 q 115 623 86 583 q 195 692 143 663 q 300 724 233 713 q 443 736 366 736 q 642 722 567 736 q 768 664 718 708 q 823 577 803 633 q 844 471 844 521 l 844 153 q 850 73 844 102 q 878 0 856 44 l 619 0 q 599 42 603 27 q 589 88 594 56 q 481 13 535 36 q 312 -16 408 -16 q 116 43 183 -16 q 50 190 50 103 q 98 325 50 272 q 275 404 146 378 q 476 448 430 435 q 574 481 522 460 q 553 551 574 531 q 479 572 532 572 q 378 550 412 572 q 336 487 352 533 m 574 342 q 455 306 517 321 q 349 261 372 283 q 327 210 327 239 q 349 157 327 178 q 416 137 372 137 q 501 159 461 137 q 557 214 540 181 q 574 297 574 246 l 574 342 m 626 951 q 578 835 626 883 q 462 788 530 788 q 346 835 394 788 q 299 951 299 883 q 346 1067 299 1019 q 462 1115 394 1115 q 578 1067 530 1115 q 626 951 626 1019 m 532 952 q 511 1001 532 981 q 462 1022 491 1022 q 412 1001 432 1022 q 392 952 392 981 q 412 902 392 922 q 462 882 432 882 q 511 902 491 882 q 532 952 532 922 "},"Ϋ":{"x_min":2,"x_max":1084,"ha":1080,"o":"m 2 994 l 343 994 l 543 659 l 744 994 l 1084 994 l 697 416 l 697 0 l 389 0 l 389 416 l 2 994 m 309 1227 l 485 1227 l 485 1057 l 309 1057 l 309 1227 m 596 1227 l 774 1227 l 774 1057 l 596 1057 l 596 1227 "},"0":{"x_min":57,"x_max":869,"ha":926,"o":"m 57 501 q 159 897 57 784 q 469 1011 261 1011 q 634 986 570 1011 q 739 921 698 961 q 803 838 780 882 q 841 736 826 794 q 869 504 869 625 q 777 108 869 233 q 462 -17 686 -17 q 259 23 336 -17 q 132 140 182 63 q 76 290 96 195 q 57 501 57 385 m 331 500 q 364 241 331 310 q 461 172 397 172 q 534 201 503 172 q 579 294 564 230 q 594 493 594 358 q 560 758 594 690 q 460 827 527 827 q 361 757 391 827 q 331 500 331 688 "},"ō":{"x_min":50,"x_max":876,"ha":926,"o":"m 50 357 q 161 629 50 522 q 460 736 272 736 q 787 610 676 736 q 876 362 876 509 q 765 90 876 196 q 461 -16 655 -16 q 181 72 288 -16 q 50 357 50 181 m 327 358 q 365 216 327 262 q 463 171 404 171 q 560 216 522 171 q 599 361 599 261 q 560 500 599 454 q 465 546 522 546 q 366 499 405 546 q 327 358 327 453 m 244 981 l 683 981 l 683 834 l 244 834 l 244 981 "},"”":{"x_min":37,"x_max":676,"ha":695,"o":"m 37 1011 l 332 1011 l 332 783 q 279 585 332 658 q 101 458 227 512 l 37 578 q 145 651 115 615 q 178 737 174 687 l 37 737 l 37 1011 m 381 1011 l 676 1011 l 676 783 q 623 585 676 658 q 445 458 571 512 l 381 578 q 489 651 459 615 q 522 737 518 687 l 381 737 l 381 1011 "},"ö":{"x_min":50,"x_max":876,"ha":926,"o":"m 50 357 q 161 629 50 522 q 460 736 272 736 q 787 610 676 736 q 876 362 876 509 q 765 90 876 196 q 461 -16 655 -16 q 181 72 288 -16 q 50 357 50 181 m 327 358 q 365 216 327 262 q 463 171 404 171 q 560 216 522 171 q 599 361 599 261 q 560 500 599 454 q 465 546 522 546 q 366 499 405 546 q 327 358 327 453 m 231 981 l 407 981 l 407 811 l 231 811 l 231 981 m 518 981 l 696 981 l 696 811 l 518 811 l 518 981 "},"☺":{"x_min":276.03125,"x_max":1140.765625,"ha":1417,"o":"m 1140 352 q 1013 46 1140 173 q 708 -80 886 -80 q 402 45 529 -80 q 276 352 276 172 q 403 656 276 529 q 708 784 530 784 q 1013 656 887 784 q 1140 352 1140 529 m 1078 352 q 969 612 1078 503 q 708 720 860 720 q 447 612 556 720 q 339 352 339 503 q 447 90 339 199 q 708 -17 556 -17 q 969 90 860 -17 q 1078 352 1078 199 m 597 440 q 581 402 597 418 q 542 385 565 385 q 503 402 520 385 q 487 440 487 418 q 503 479 487 463 q 542 495 520 495 q 581 479 565 495 q 597 440 597 463 m 929 440 q 913 402 929 418 q 874 385 897 385 q 835 402 851 385 q 819 440 819 418 q 835 479 819 463 q 874 495 851 495 q 913 479 897 495 q 929 440 929 463 m 509 212 l 551 236 q 708 139 604 139 q 865 236 812 139 l 908 212 q 708 80 837 80 q 509 212 579 80 "},"╧":{"x_min":-14.25,"x_max":1000.375,"ha":986,"o":"m 1000 491 l -14 491 l -14 609 l 433 609 l 433 1264 l 552 1264 l 552 609 l 1000 609 l 1000 491 m 1000 233 l -14 233 l -14 352 l 1000 352 l 1000 233 "},"ć":{"x_min":50,"x_max":883,"ha":926,"o":"m 621 282 l 883 252 q 811 110 861 170 q 685 17 762 50 q 489 -16 608 -16 q 298 5 374 -16 q 167 74 222 26 q 81 186 112 122 q 50 356 50 250 q 88 541 50 467 q 163 638 115 595 q 263 702 212 681 q 470 736 343 736 q 739 673 646 736 q 869 489 831 610 l 609 454 q 564 523 596 500 q 478 547 532 547 q 367 497 409 547 q 325 349 325 448 q 367 214 325 260 q 474 169 409 169 q 565 196 528 169 q 621 282 602 224 m 524 1011 l 761 1011 l 542 808 l 410 808 l 524 1011 "},"þ":{"x_min":85,"x_max":877,"ha":926,"o":"m 85 -274 l 85 994 l 364 994 l 364 649 q 454 715 407 695 q 568 736 502 736 q 796 627 715 736 q 877 352 877 519 q 791 78 877 173 q 573 -16 705 -16 q 457 5 510 -16 q 364 70 405 27 l 364 -274 l 85 -274 m 362 357 q 397 231 362 272 q 488 190 433 190 q 568 229 536 190 q 601 363 601 269 q 567 492 601 451 q 484 533 533 533 q 397 491 432 533 q 362 357 362 450 "},"]":{"x_min":32,"x_max":449,"ha":541,"o":"m 449 994 l 32 994 l 32 780 l 197 780 l 197 -62 l 32 -62 l 32 -276 l 449 -276 l 449 994 "},"А":{"x_min":2,"x_max":1084,"ha":1080,"o":"m 712 164 l 364 164 l 315 0 l 2 0 l 375 994 l 711 994 l 1084 0 l 762 0 l 712 164 m 648 379 l 539 736 l 430 379 l 648 379 "},"′":{"x_min":85,"x_max":353,"ha":423,"o":"m 353 1011 l 216 739 l 85 739 l 115 1011 l 353 1011 "},"Ы":{"x_min":103,"x_max":1401,"ha":1503,"o":"m 410 611 l 574 611 q 908 531 799 611 q 1018 283 1018 451 q 917 72 1018 145 q 630 0 817 0 l 103 0 l 103 994 l 410 994 l 410 611 m 410 214 l 566 214 q 711 318 711 214 q 566 410 711 410 l 410 410 l 410 214 m 1093 994 l 1401 994 l 1401 0 l 1093 0 l 1093 994 "},"ẁ":{"x_min":2,"x_max":1314,"ha":1311,"o":"m 2 720 l 268 720 l 385 267 l 532 720 l 779 720 l 932 266 l 1048 720 l 1314 720 l 1048 0 l 803 0 l 657 433 l 516 0 l 269 0 l 2 720 m 460 1011 l 695 1011 l 806 809 l 676 809 l 460 1011 "},"ĭ":{"x_min":1,"x_max":464,"ha":463,"o":"m 94 720 l 370 720 l 370 0 l 94 0 l 94 720 m 352 1011 l 464 1011 q 433 902 459 946 q 353 832 407 858 q 237 806 299 806 q 72 859 134 806 q 1 1011 11 913 l 118 1011 q 156 954 131 971 q 231 938 181 938 q 315 954 290 938 q 352 1011 341 971 "},"8":{"x_min":57,"x_max":869,"ha":926,"o":"m 222 535 q 128 612 158 569 q 88 746 88 670 q 205 950 88 870 q 446 1011 296 1011 q 740 935 645 1011 q 836 744 836 859 q 798 619 836 677 q 709 535 769 575 q 829 432 789 496 q 869 291 869 368 q 834 151 869 216 q 750 51 800 86 q 626 0 700 16 q 468 -17 552 -17 q 227 20 310 -17 q 100 130 143 57 q 57 292 57 203 q 97 441 57 380 q 222 535 138 501 m 348 730 q 380 647 348 678 q 465 616 412 616 q 542 647 512 616 q 573 727 573 678 q 541 810 573 778 q 460 843 509 843 q 379 811 410 843 q 348 730 348 780 m 332 302 q 372 194 332 236 q 463 153 412 153 q 552 195 513 153 q 592 303 592 237 q 552 410 592 368 q 460 453 512 453 q 370 412 408 453 q 332 302 332 371 "},"R":{"x_min":106,"x_max":1084,"ha":1080,"o":"m 106 0 l 106 994 l 617 994 q 835 969 760 994 q 956 878 910 945 q 1003 717 1003 812 q 967 575 1003 635 q 870 477 932 514 q 763 438 831 453 q 843 401 818 419 q 892 349 860 389 q 935 287 924 309 l 1084 0 l 736 0 l 572 303 q 517 379 541 362 q 442 403 484 403 l 415 403 l 415 0 l 106 0 m 415 591 l 544 591 q 625 604 564 591 q 674 635 655 610 q 694 693 694 660 q 663 767 694 741 q 549 793 633 793 l 415 793 l 415 591 "},"Ż":{"x_min":23,"x_max":966,"ha":1003,"o":"m 77 994 l 946 994 l 946 795 l 388 214 l 966 214 l 966 0 l 23 0 l 23 206 l 574 782 l 77 782 l 77 994 m 412 1258 l 625 1258 l 625 1055 l 412 1055 l 412 1258 "},"ħ":{"x_min":13,"x_max":845,"ha":926,"o":"m 845 0 l 569 0 l 569 396 q 471 521 569 521 q 388 481 417 521 q 359 345 359 441 l 359 0 l 83 0 l 83 804 l 13 804 l 13 930 l 83 930 l 83 994 l 359 994 l 359 930 l 536 930 l 536 804 l 359 804 l 359 628 q 603 736 456 736 q 783 663 722 736 q 845 458 845 591 l 845 0 "},"õ":{"x_min":50,"x_max":876,"ha":926,"o":"m 50 357 q 161 629 50 522 q 460 736 272 736 q 787 610 676 736 q 876 362 876 509 q 765 90 876 196 q 461 -16 655 -16 q 181 72 288 -16 q 50 357 50 181 m 327 358 q 365 216 327 262 q 463 171 404 171 q 560 216 522 171 q 599 361 599 261 q 560 500 599 454 q 465 546 522 546 q 366 499 405 546 q 327 358 327 453 m 600 994 l 707 994 q 707 963 707 976 q 669 847 707 888 q 572 806 631 806 q 440 841 528 806 q 367 863 387 863 q 336 850 347 863 q 325 808 325 838 l 219 808 q 218 836 218 824 q 258 951 218 908 q 353 994 298 994 q 397 988 376 994 q 475 959 418 983 q 557 936 532 936 q 587 948 576 936 q 600 994 598 960 "},"─":{"x_min":-14.25,"x_max":1000.375,"ha":986,"o":"m 1000 362 l -14 362 l -14 480 l 1000 480 l 1000 362 "},"˙":{"x_min":125,"x_max":338,"ha":463,"o":"m 125 1015 l 338 1015 l 338 812 l 125 812 l 125 1015 "},"ê":{"x_min":49,"x_max":883,"ha":926,"o":"m 883 292 l 330 292 q 365 192 337 225 q 469 146 405 146 q 547 166 510 146 q 595 212 569 179 l 867 187 q 716 31 804 78 q 463 -16 628 -16 q 238 24 320 -16 q 102 152 156 64 q 49 358 49 240 q 157 631 49 527 q 455 736 265 736 q 699 689 610 736 q 836 553 789 642 q 883 323 883 465 l 883 292 m 602 424 q 559 538 593 503 q 467 573 524 573 q 362 520 401 573 q 330 424 337 488 l 602 424 m 369 1002 l 565 1002 l 716 808 l 547 808 l 465 911 l 382 808 l 214 808 l 369 1002 "},"″":{"x_min":81,"x_max":660,"ha":728,"o":"m 660 1011 l 523 739 l 392 739 l 422 1011 l 660 1011 m 349 1011 l 212 739 l 81 739 l 111 1011 l 349 1011 "},"„":{"x_min":37,"x_max":676,"ha":695,"o":"m 37 274 l 332 274 l 332 46 q 279 -150 332 -78 q 101 -279 227 -223 l 37 -158 q 145 -85 115 -121 q 178 0 174 -49 l 37 0 l 37 274 m 381 274 l 676 274 l 676 46 q 623 -150 676 -78 q 445 -279 571 -223 l 381 -158 q 489 -85 459 -121 q 522 0 518 -49 l 381 0 l 381 274 "},"ч":{"x_min":78,"x_max":841,"ha":920,"o":"m 841 0 l 564 0 l 564 265 q 337 203 459 203 q 78 479 78 203 l 78 720 l 354 720 l 354 522 q 376 445 354 473 q 438 418 398 418 q 564 481 516 418 l 564 720 l 841 720 l 841 0 "},"δ":{"x_min":50,"x_max":876,"ha":926,"o":"m 444 803 l 649 688 q 818 542 760 628 q 876 351 876 455 q 770 90 876 196 q 460 -16 665 -16 q 157 88 264 -16 q 50 347 50 193 q 113 558 50 466 q 299 689 177 649 l 114 801 l 114 994 l 779 994 l 779 803 l 444 803 m 462 173 q 564 218 528 173 q 600 349 600 263 q 465 524 600 524 q 361 475 396 524 q 326 347 326 427 q 360 218 326 263 q 462 173 395 173 m 461 736 l 461 736 "},"Â":{"x_min":2,"x_max":1084,"ha":1080,"o":"m 712 164 l 364 164 l 315 0 l 2 0 l 375 994 l 711 994 l 1084 0 l 762 0 l 712 164 m 648 379 l 539 736 l 430 379 l 648 379 m 446 1248 l 642 1248 l 793 1054 l 624 1054 l 542 1157 l 459 1054 l 291 1054 l 446 1248 "},"Į":{"x_min":117,"x_max":473,"ha":541,"o":"m 473 -271 q 330 -302 396 -302 q 204 -259 250 -302 q 158 -144 158 -216 q 185 0 158 -85 l 117 0 l 117 994 l 424 994 l 424 0 l 301 0 q 293 -80 293 -43 q 387 -184 293 -184 q 473 -166 418 -184 l 473 -271 "},"ω":{"x_min":49,"x_max":1266,"ha":1314,"o":"m 1182 720 q 1266 377 1266 568 q 1172 91 1266 198 q 916 -16 1078 -16 q 759 27 834 -16 q 656 142 684 70 q 558 26 629 69 q 399 -16 486 -16 q 142 91 236 -16 q 49 377 49 198 q 132 720 49 568 l 410 720 q 363 552 385 657 q 342 371 342 448 q 440 201 342 201 q 494 239 469 201 q 520 338 520 277 l 520 566 l 797 566 l 797 338 q 821 239 797 277 q 874 201 846 201 q 973 371 973 201 q 951 552 973 448 q 905 720 929 657 l 1182 720 "},"Ţ":{"x_min":32,"x_max":965,"ha":1003,"o":"m 32 994 l 965 994 l 965 748 l 652 748 l 652 0 l 345 0 l 345 748 l 32 748 l 32 994 m 349 -112 l 369 -32 q 488 -17 433 -17 q 648 -56 604 -17 q 693 -148 693 -95 q 672 -215 693 -181 q 601 -271 652 -250 q 464 -292 549 -292 q 282 -274 386 -292 l 282 -191 q 432 -205 352 -205 q 511 -189 490 -205 q 532 -148 532 -173 q 515 -115 532 -129 q 462 -101 498 -101 q 349 -112 414 -101 "},"´":{"x_min":111,"x_max":462,"ha":463,"o":"m 225 1011 l 462 1011 l 243 808 l 111 808 l 225 1011 "},"Ĉ":{"x_min":66,"x_max":1033,"ha":1080,"o":"m 764 407 l 1033 325 q 947 136 1005 212 q 802 21 889 60 q 582 -17 716 -17 q 317 30 420 -17 q 140 195 215 77 q 66 499 66 314 q 197 878 66 746 q 568 1011 328 1011 q 864 934 756 1011 q 1024 701 971 858 l 753 641 q 723 707 738 686 q 659 761 697 742 q 576 781 622 781 q 416 697 471 781 q 374 501 374 634 q 424 275 374 336 q 565 214 474 214 q 698 263 653 214 q 764 407 743 312 m 461 1260 l 657 1260 l 808 1066 l 639 1066 l 557 1169 l 474 1066 l 306 1066 l 461 1260 "},"И":{"x_min":102,"x_max":1053,"ha":1157,"o":"m 1053 994 l 1053 0 l 764 0 l 764 545 l 392 0 l 102 0 l 102 994 l 392 994 l 392 444 l 766 994 l 1053 994 "},"⌡":{"x_min":174.296875,"x_max":465.9375,"ha":834,"o":"m 367 1178 l 465 1178 l 465 -50 q 407 -269 465 -190 q 267 -349 349 -349 q 196 -325 217 -349 q 174 -275 174 -302 q 192 -230 174 -247 q 233 -212 210 -212 q 271 -222 257 -212 q 300 -254 286 -231 q 332 -279 316 -279 q 359 -263 352 -279 q 367 -158 367 -246 l 367 1178 "},"○":{"x_min":118.015625,"x_max":715.53125,"ha":834,"o":"m 715 392 q 627 180 715 268 q 417 92 539 92 q 205 180 293 92 q 118 392 118 268 q 205 602 118 515 q 416 690 293 690 q 628 602 540 690 q 715 392 715 515 m 663 392 q 591 566 663 494 q 417 638 519 638 q 242 565 314 638 q 169 392 169 493 q 242 217 169 290 q 417 144 314 144 q 591 217 518 144 q 663 392 663 290 "},"Љ":{"x_min":1,"x_max":1624,"ha":1681,"o":"m 1015 611 l 1179 611 q 1511 527 1399 611 q 1624 283 1624 444 q 1560 105 1624 182 q 1379 13 1497 27 q 1236 0 1260 0 l 708 0 l 708 750 l 468 750 l 468 444 q 447 167 468 255 q 354 37 427 78 q 116 -4 280 -4 q 1 6 66 -4 l 1 208 l 47 208 q 135 235 109 208 q 161 336 161 262 l 161 994 l 1015 994 l 1015 611 m 1015 214 l 1172 214 q 1317 318 1317 214 q 1172 410 1317 410 l 1015 410 l 1015 214 "},"р":{"x_min":85,"x_max":877,"ha":926,"o":"m 85 -274 l 85 720 l 343 720 l 343 613 q 441 704 397 680 q 575 736 502 736 q 798 625 719 736 q 877 352 877 515 q 791 78 877 173 q 573 -16 705 -16 q 457 5 510 -16 q 364 70 405 27 l 364 -274 l 85 -274 m 361 357 q 397 231 361 272 q 488 190 433 190 q 568 229 536 190 q 601 363 601 269 q 567 492 601 451 q 484 533 533 533 q 397 491 432 533 q 361 357 361 450 "},"Ω":{"x_min":64,"x_max":1093,"ha":1157,"o":"m 219 216 q 113 358 162 258 q 64 556 64 457 q 197 888 64 766 q 576 1011 330 1011 q 961 893 830 1011 q 1093 556 1093 776 q 1043 358 1093 457 q 937 216 994 258 l 1084 216 l 1084 0 l 636 0 l 636 216 q 786 535 786 321 q 576 780 786 780 q 423 714 475 780 q 371 535 371 649 q 521 216 371 334 l 521 0 l 72 0 l 72 216 l 219 216 "},"т":{"x_min":14,"x_max":691,"ha":705,"o":"m 691 519 l 491 519 l 491 0 l 214 0 l 214 519 l 14 519 l 14 720 l 691 720 l 691 519 "},"П":{"x_min":103,"x_max":1054,"ha":1157,"o":"m 1054 0 l 747 0 l 747 750 l 410 750 l 410 0 l 103 0 l 103 994 l 1054 994 l 1054 0 "},"Ö":{"x_min":63,"x_max":1093,"ha":1157,"o":"m 63 496 q 198 875 63 739 q 576 1011 334 1011 q 958 877 824 1011 q 1093 504 1093 744 q 1034 218 1093 330 q 864 45 975 107 q 588 -17 753 -17 q 310 36 420 -17 q 131 206 199 90 q 63 496 63 322 m 370 494 q 425 278 370 344 q 578 213 481 213 q 731 277 677 213 q 786 508 786 341 q 729 713 786 648 q 575 778 672 778 q 426 712 482 778 q 370 494 370 646 m 346 1227 l 522 1227 l 522 1057 l 346 1057 l 346 1227 m 633 1227 l 811 1227 l 811 1057 l 633 1057 l 633 1227 "},"z":{"x_min":25,"x_max":743,"ha":773,"o":"m 52 720 l 721 720 l 721 558 l 357 189 l 743 189 l 743 0 l 25 0 l 25 179 l 369 531 l 52 531 l 52 720 "},"™":{"x_min":24,"x_max":1264,"ha":1320,"o":"m 24 994 l 567 994 l 567 862 l 374 862 l 374 441 l 215 441 l 215 862 l 24 862 l 24 994 m 630 994 l 872 994 l 948 692 l 1029 994 l 1264 994 l 1264 441 l 1114 441 l 1114 831 l 1010 441 l 885 441 l 783 831 l 783 441 l 630 441 l 630 994 "},"╦":{"x_min":-14.25,"x_max":1000.375,"ha":986,"o":"m 1000 491 l -14 491 l -14 609 l 1000 609 l 1000 491 m 304 233 l -14 233 l -14 352 l 423 352 l 423 -421 l 304 -421 l 304 233 m 562 -421 l 562 352 l 1000 352 l 1000 233 l 680 233 l 680 -421 l 562 -421 "},"Θ":{"x_min":64,"x_max":1093,"ha":1157,"o":"m 576 1011 q 959 878 825 1011 q 1093 503 1093 745 q 960 117 1093 252 q 588 -17 827 -17 q 192 124 320 -17 q 64 495 64 266 q 196 873 64 736 q 576 1011 329 1011 m 577 214 q 733 280 680 214 q 786 508 786 346 q 576 780 786 780 q 371 494 371 780 q 577 214 371 214 m 717 409 l 446 409 l 446 597 l 717 597 l 717 409 "},"Ř":{"x_min":106,"x_max":1084,"ha":1080,"o":"m 106 0 l 106 994 l 617 994 q 835 969 760 994 q 956 878 910 945 q 1003 717 1003 812 q 967 575 1003 635 q 870 477 932 514 q 763 438 831 453 q 843 401 818 419 q 892 349 860 389 q 935 287 924 309 l 1084 0 l 736 0 l 572 303 q 517 379 541 362 q 442 403 484 403 l 415 403 l 415 0 l 106 0 m 415 591 l 544 591 q 625 604 564 591 q 674 635 655 610 q 694 693 694 660 q 663 767 694 741 q 549 793 633 793 l 415 793 l 415 591 m 658 1059 l 463 1059 l 313 1253 l 480 1253 l 563 1149 l 645 1253 l 815 1253 l 658 1059 "},"╖":{"x_min":-14.25,"x_max":680.9375,"ha":986,"o":"m 304 -421 l 304 362 l -14 362 l -14 480 l 680 480 l 680 -421 l 562 -421 l 562 362 l 423 362 l 423 -421 l 304 -421 "},"Ň":{"x_min":104,"x_max":1055,"ha":1157,"o":"m 104 994 l 390 994 l 765 444 l 765 994 l 1055 994 l 1055 0 l 765 0 l 393 546 l 393 0 l 104 0 l 104 994 m 673 1059 l 478 1059 l 328 1253 l 495 1253 l 578 1149 l 660 1253 l 830 1253 l 673 1059 "},"É":{"x_min":101,"x_max":939,"ha":1003,"o":"m 101 994 l 924 994 l 924 782 l 409 782 l 409 624 l 887 624 l 887 421 l 409 421 l 409 225 l 939 225 l 939 0 l 101 0 l 101 994 m 495 1257 l 732 1257 l 513 1054 l 381 1054 l 495 1257 "},"и":{"x_min":93,"x_max":888,"ha":981,"o":"m 888 0 l 627 0 l 627 354 l 354 0 l 93 0 l 93 720 l 354 720 l 354 361 l 630 720 l 888 720 l 888 0 "},"³":{"x_min":21,"x_max":534,"ha":555,"o":"m 204 853 l 29 879 q 111 972 62 943 q 285 1011 176 1011 q 469 965 407 1011 q 514 881 514 933 q 489 815 514 845 q 428 773 472 794 q 508 720 482 755 q 534 640 534 686 q 484 539 534 577 q 278 489 417 489 q 80 541 149 489 q 21 632 40 572 l 193 652 q 223 605 203 619 q 276 591 243 591 q 335 609 314 591 q 357 654 357 628 q 318 707 357 688 q 217 720 297 718 l 236 816 q 315 830 295 816 q 336 867 336 845 q 322 897 336 885 q 280 909 308 909 q 230 893 252 909 q 204 853 214 882 "},"♦":{"x_min":42.734375,"x_max":665.34375,"ha":709,"o":"m 352 834 q 665 409 483 615 q 520 229 630 374 q 352 -16 410 85 q 42 409 284 112 q 352 834 262 669 "},"[":{"x_min":92,"x_max":509,"ha":541,"o":"m 92 994 l 509 994 l 509 780 l 344 780 l 344 -62 l 509 -62 l 509 -276 l 92 -276 l 92 994 "},"ζ":{"x_min":53,"x_max":626,"ha":639,"o":"m 626 833 q 393 548 465 657 q 321 338 321 438 q 341 263 321 298 q 430 197 362 229 q 531 143 499 165 q 585 78 563 121 q 608 -32 608 36 q 527 -218 608 -144 q 319 -292 447 -292 l 243 -292 l 290 -113 q 405 -61 405 -113 q 388 -22 405 -39 q 297 16 371 -5 q 175 66 224 38 q 89 155 126 93 q 53 326 53 218 q 127 548 53 434 q 363 803 201 662 l 84 803 l 84 994 l 626 994 l 626 833 "},"∏":{"x_min":31,"x_max":1113,"ha":1143,"o":"m 841 958 l 301 958 l 301 -161 q 326 -242 301 -218 q 410 -267 351 -267 l 435 -267 l 435 -292 l 31 -292 l 31 -267 l 54 -267 q 139 -242 114 -267 q 165 -161 165 -218 l 165 880 q 139 961 165 937 q 54 986 114 986 l 31 986 l 31 1011 l 1113 1011 l 1113 986 l 1089 986 q 1004 961 1029 986 q 979 880 979 937 l 979 -161 q 1004 -242 979 -218 q 1089 -267 1029 -267 l 1113 -267 l 1113 -292 l 707 -292 l 707 -267 l 730 -267 q 815 -242 790 -267 q 841 -161 841 -218 l 841 958 "},"Έ":{"x_min":3,"x_max":1113,"ha":1175,"o":"m 275 994 l 1098 994 l 1098 782 l 583 782 l 583 624 l 1061 624 l 1061 421 l 583 421 l 583 225 l 1113 225 l 1113 0 l 275 0 l 275 994 m 257 994 l 135 791 l 3 791 l 47 994 l 257 994 "},"Ρ":{"x_min":100,"x_max":944,"ha":1003,"o":"m 100 994 l 610 994 q 860 914 777 994 q 944 688 944 835 q 853 453 944 538 q 577 369 762 369 l 409 369 l 409 0 l 100 0 l 100 994 m 409 570 l 484 570 q 609 600 573 570 q 645 679 645 631 q 613 759 645 726 q 496 792 582 792 l 409 792 l 409 570 "},"ğ":{"x_min":50,"x_max":843.671875,"ha":926,"o":"m 584 720 l 843 720 l 843 40 l 843 8 q 814 -120 843 -59 q 738 -220 786 -182 q 617 -275 690 -258 q 448 -292 543 -292 q 150 -226 231 -292 q 70 -52 70 -161 q 71 -16 70 -39 l 339 -47 q 370 -98 349 -84 q 446 -119 400 -119 q 535 -87 506 -119 q 565 23 565 -55 l 565 133 q 483 62 524 84 q 346 29 419 29 q 113 155 201 29 q 50 391 50 244 q 131 647 50 559 q 344 736 212 736 q 482 707 428 736 q 584 613 537 679 l 584 720 m 325 370 q 358 255 325 293 q 445 218 391 218 q 532 256 497 218 q 567 374 567 295 q 530 494 567 452 q 440 536 493 536 q 356 497 388 536 q 325 370 325 459 m 582 1011 l 694 1011 q 663 902 689 946 q 583 832 637 858 q 467 806 529 806 q 302 859 364 806 q 231 1011 241 913 l 348 1011 q 386 954 361 971 q 461 938 411 938 q 545 954 520 938 q 582 1011 571 971 "},"ª":{"x_min":22,"x_max":515.734375,"ha":555,"o":"m 515 516 l 368 516 q 351 561 357 536 q 290 520 320 531 q 193 504 248 504 q 65 544 108 504 q 22 649 22 584 q 57 745 22 709 q 210 802 93 781 q 339 836 280 814 q 324 888 339 873 q 270 903 309 903 q 217 891 234 903 q 192 850 200 879 l 42 879 q 78 954 54 927 q 140 996 102 982 q 253 1011 178 1011 q 445 973 397 1011 q 492 850 492 934 l 492 621 q 496 560 492 579 q 515 516 500 541 m 339 743 q 256 720 300 729 q 196 697 211 712 q 180 662 180 682 q 197 621 180 637 q 245 605 215 605 q 313 632 288 605 q 339 716 339 659 l 339 743 "},"ї":{"x_min":0,"x_max":465,"ha":463,"o":"m 94 720 l 370 720 l 370 0 l 94 0 l 94 720 m 0 981 l 176 981 l 176 811 l 0 811 l 0 981 m 287 981 l 465 981 l 465 811 l 287 811 l 287 981 "},"T":{"x_min":32,"x_max":965,"ha":1003,"o":"m 32 994 l 965 994 l 965 748 l 652 748 l 652 0 l 345 0 l 345 748 l 32 748 l 32 994 "},"š":{"x_min":34,"x_max":800,"ha":848,"o":"m 34 200 l 308 226 q 355 156 324 177 q 437 135 386 135 q 523 158 492 135 q 547 202 547 176 q 515 248 547 232 q 397 276 493 260 q 197 323 253 301 q 103 395 141 344 q 65 511 65 446 q 106 633 65 582 q 220 710 147 685 q 415 736 292 736 q 605 716 543 736 q 707 655 666 696 q 776 544 748 614 l 514 518 q 480 568 503 552 q 401 590 447 590 q 333 573 354 590 q 312 533 312 556 q 339 493 312 506 q 456 468 366 479 q 661 425 594 453 q 764 346 728 397 q 800 233 800 295 q 762 112 800 171 q 643 18 724 53 q 422 -16 562 -16 q 141 40 225 -16 q 34 200 57 96 m 518 808 l 323 808 l 173 1002 l 340 1002 l 423 898 l 505 1002 l 675 1002 l 518 808 "},"є":{"x_min":50,"x_max":883.265625,"ha":926,"o":"m 883 254 q 490 -16 809 -16 q 153 86 256 -16 q 50 357 50 188 q 107 574 50 492 q 248 696 165 656 q 470 736 331 736 q 734 676 639 736 q 869 489 830 616 l 609 455 q 478 547 587 547 q 336 430 365 547 l 544 430 l 544 288 l 331 288 q 472 173 356 173 q 620 284 587 173 l 883 254 "},"Þ":{"x_min":100,"x_max":944,"ha":1003,"o":"m 100 994 l 409 994 l 409 817 l 611 816 q 860 737 777 816 q 944 511 944 657 q 853 276 944 361 q 577 192 762 192 l 409 192 l 409 0 l 100 0 l 100 994 m 409 393 l 484 393 q 609 423 573 393 q 645 502 645 454 q 613 582 645 549 q 496 615 582 615 l 409 615 l 409 393 "},"j":{"x_min":-68,"x_max":371,"ha":463,"o":"m 94 994 l 371 994 l 371 804 l 94 804 l 94 994 m 94 720 l 371 720 l 371 21 q 351 -167 371 -111 q 280 -257 332 -222 q 130 -292 227 -292 q -68 -268 50 -292 l -26 -67 q 22 -74 6 -74 q 75 -49 57 -74 q 94 45 94 -25 l 94 720 "},"Σ":{"x_min":103,"x_max":942,"ha":1003,"o":"m 942 0 l 103 0 l 103 214 l 397 513 l 103 788 l 103 994 l 926 994 l 926 780 l 434 780 l 726 513 l 434 225 l 942 225 l 942 0 "},"1":{"x_min":114,"x_max":683,"ha":926,"o":"m 683 1011 l 683 0 l 404 0 l 404 662 q 272 579 336 611 q 114 518 209 547 l 114 745 q 332 853 254 790 q 454 1011 410 917 l 683 1011 "},"░":{"x_min":70.53125,"x_max":1000.375,"ha":986,"o":"m 70 1264 l 155 1264 l 155 1179 l 70 1179 l 70 1264 m 408 1264 l 493 1264 l 493 1179 l 408 1179 l 408 1264 m 746 1264 l 831 1264 l 831 1179 l 746 1179 l 746 1264 m 239 1095 l 324 1095 l 324 1010 l 239 1010 l 239 1095 m 577 1095 l 661 1095 l 661 1010 l 577 1010 l 577 1095 m 915 1095 l 1000 1095 l 1000 1010 l 915 1010 l 915 1095 m 746 926 l 831 926 l 831 841 l 746 841 l 746 926 m 408 926 l 493 926 l 493 841 l 408 841 l 408 926 m 70 926 l 155 926 l 155 841 l 70 841 l 70 926 m 915 756 l 1000 756 l 1000 672 l 915 672 l 915 756 m 577 756 l 661 756 l 661 672 l 577 672 l 577 756 m 239 756 l 324 756 l 324 672 l 239 672 l 239 756 m 70 588 l 155 588 l 155 503 l 70 503 l 70 588 m 408 588 l 493 588 l 493 503 l 408 503 l 408 588 m 746 588 l 831 588 l 831 503 l 746 503 l 746 588 m 915 419 l 1000 419 l 1000 334 l 915 334 l 915 419 m 577 419 l 661 419 l 661 334 l 577 334 l 577 419 m 239 419 l 324 419 l 324 334 l 239 334 l 239 419 m 70 250 l 155 250 l 155 165 l 70 165 l 70 250 m 408 250 l 493 250 l 493 165 l 408 165 l 408 250 m 746 250 l 831 250 l 831 165 l 746 165 l 746 250 m 239 80 l 324 80 l 324 -3 l 239 -3 l 239 80 m 577 80 l 661 80 l 661 -3 l 577 -3 l 577 80 m 915 80 l 1000 80 l 1000 -3 l 915 -3 l 915 80 m 746 -88 l 831 -88 l 831 -172 l 746 -172 l 746 -88 m 408 -88 l 493 -88 l 493 -172 l 408 -172 l 408 -88 m 70 -88 l 155 -88 l 155 -172 l 70 -172 l 70 -88 m 239 -257 l 324 -257 l 324 -341 l 239 -341 l 239 -257 m 577 -257 l 661 -257 l 661 -341 l 577 -341 l 577 -257 m 915 -257 l 1000 -257 l 1000 -341 l 915 -341 l 915 -257 "},"ℓ":{"x_min":178.375,"x_max":667.375,"ha":815,"o":"m 422 367 q 384 115 384 169 q 404 78 384 78 q 460 143 430 78 q 492 171 474 171 q 518 141 518 171 q 471 32 518 86 q 362 -21 425 -21 q 280 22 310 -21 q 249 181 249 65 q 251 243 249 204 q 205 206 216 206 q 187 216 196 206 q 178 244 178 227 q 196 283 178 262 q 262 359 242 335 q 375 768 303 598 q 554 937 446 937 q 638 900 609 937 q 667 807 667 862 q 422 367 667 611 m 442 494 q 542 646 503 562 q 581 794 581 730 q 558 845 581 845 q 502 756 531 845 q 442 494 474 667 "},"ĉ":{"x_min":50,"x_max":883,"ha":926,"o":"m 621 282 l 883 252 q 811 110 861 170 q 685 17 762 50 q 489 -16 608 -16 q 298 5 374 -16 q 167 74 222 26 q 81 186 112 122 q 50 356 50 250 q 88 541 50 467 q 163 638 115 595 q 263 702 212 681 q 470 736 343 736 q 739 673 646 736 q 869 489 831 610 l 609 454 q 564 523 596 500 q 478 547 532 547 q 367 497 409 547 q 325 349 325 448 q 367 214 325 260 q 474 169 409 169 q 565 196 528 169 q 621 282 602 224 m 379 1002 l 575 1002 l 726 808 l 557 808 l 475 911 l 392 808 l 224 808 l 379 1002 "},"ī":{"x_min":13,"x_max":452,"ha":463,"o":"m 94 720 l 370 720 l 370 0 l 94 0 l 94 720 m 13 981 l 452 981 l 452 834 l 13 834 l 13 981 "},"О":{"x_min":63,"x_max":1093,"ha":1157,"o":"m 63 496 q 198 875 63 739 q 576 1011 334 1011 q 958 877 824 1011 q 1093 504 1093 744 q 1034 218 1093 330 q 864 45 975 107 q 588 -17 753 -17 q 310 36 420 -17 q 131 206 199 90 q 63 496 63 322 m 370 494 q 425 278 370 344 q 578 213 481 213 q 731 277 677 213 q 786 508 786 341 q 729 713 786 648 q 575 778 672 778 q 426 712 482 778 q 370 494 370 646 "},"ξ":{"x_min":53,"x_max":608,"ha":639,"o":"m 562 505 q 385 445 450 498 q 321 305 321 393 q 340 242 321 270 q 426 185 360 214 q 527 134 493 156 q 584 70 560 112 q 608 -40 608 28 q 528 -221 608 -151 q 319 -292 448 -292 l 243 -292 l 290 -113 q 371 -98 342 -113 q 401 -61 401 -84 q 384 -25 401 -41 q 294 10 367 -9 q 173 54 222 30 q 88 135 124 79 q 53 289 53 191 q 116 471 53 397 q 291 568 180 544 q 146 644 196 589 q 96 779 96 699 q 187 945 96 885 q 451 1006 279 1006 l 561 1006 l 561 822 q 470 825 507 825 q 333 750 333 825 q 375 693 333 714 q 488 672 417 672 l 562 672 l 562 505 "},"Ď":{"x_min":106,"x_max":1020,"ha":1080,"o":"m 106 994 l 561 994 q 779 957 696 994 q 917 852 862 920 q 995 692 971 783 q 1020 500 1020 602 q 983 253 1020 341 q 883 106 947 165 q 744 27 818 46 q 561 0 643 0 l 106 0 l 106 994 m 413 769 l 413 226 l 488 226 q 624 247 583 226 q 688 321 665 268 q 711 494 711 375 q 659 710 711 652 q 489 769 608 769 l 413 769 m 621 1059 l 426 1059 l 276 1253 l 443 1253 l 526 1149 l 608 1253 l 778 1253 l 621 1059 "},"&":{"x_min":104,"x_max":1177.96875,"ha":1235,"o":"m 886 484 l 1102 435 q 1069 340 1085 376 q 1025 255 1053 304 l 1129 184 q 1177 154 1148 171 l 1029 -16 q 944 34 988 5 q 866 83 901 62 q 722 13 794 35 q 496 -16 623 -16 q 200 66 297 -16 q 104 267 104 149 q 161 427 104 352 q 347 555 218 503 q 273 669 293 621 q 253 768 253 718 q 333 942 253 874 q 578 1011 414 1011 q 824 945 745 1011 q 903 790 903 880 q 878 692 903 739 q 820 616 854 645 q 699 530 786 587 q 850 395 771 457 q 886 484 871 437 m 569 658 q 651 721 622 687 q 681 786 681 755 q 656 839 681 817 q 589 862 632 862 q 521 837 547 862 q 495 780 495 813 q 569 658 495 738 m 471 416 q 395 348 414 376 q 377 287 377 319 q 419 199 377 238 q 530 161 462 161 q 696 218 604 161 q 471 416 608 286 "},"G":{"x_min":64,"x_max":1076,"ha":1157,"o":"m 602 360 l 602 567 l 1076 567 l 1076 143 q 835 16 939 50 q 586 -17 730 -17 q 298 43 409 -17 q 125 223 186 103 q 64 497 64 342 q 131 780 64 659 q 327 962 198 900 q 599 1011 428 1011 q 845 981 763 1011 q 981 888 927 951 q 1062 729 1034 826 l 766 677 q 704 763 747 733 q 592 793 660 793 q 431 722 491 793 q 372 500 372 652 q 432 270 372 339 q 601 201 493 201 q 699 215 653 201 q 807 266 746 230 l 807 360 l 602 360 "},"ΰ":{"x_min":81,"x_max":843,"ha":926,"o":"m 843 292 q 741 67 843 150 q 458 -16 640 -16 q 179 67 278 -16 q 81 292 81 150 l 81 720 l 357 720 l 357 332 q 461 200 357 200 q 539 229 512 200 q 567 332 567 259 l 567 720 l 843 720 l 843 292 m 610 1234 l 488 1031 l 356 1031 l 400 1234 l 610 1234 m 697 811 l 519 811 l 519 981 l 697 981 l 697 811 m 409 811 l 231 811 l 231 981 l 409 981 l 409 811 "},"`":{"x_min":1,"x_max":347,"ha":463,"o":"m 1 1011 l 236 1011 l 347 809 l 217 809 l 1 1011 "},"╔":{"x_min":305.203125,"x_max":1000.375,"ha":986,"o":"m 423 -421 l 305 -421 l 305 609 l 1000 609 l 1000 491 l 423 491 l 423 -421 m 681 233 l 681 -421 l 562 -421 l 562 352 l 1000 352 l 1000 233 l 681 233 "},"ŏ":{"x_min":50,"x_max":876,"ha":926,"o":"m 50 357 q 161 629 50 522 q 460 736 272 736 q 787 610 676 736 q 876 362 876 509 q 765 90 876 196 q 461 -16 655 -16 q 181 72 288 -16 q 50 357 50 181 m 327 358 q 365 216 327 262 q 463 171 404 171 q 560 216 522 171 q 599 361 599 261 q 560 500 599 454 q 465 546 522 546 q 366 499 405 546 q 327 358 327 453 m 577 1011 l 689 1011 q 658 902 684 946 q 578 832 632 858 q 462 806 524 806 q 297 859 359 806 q 226 1011 236 913 l 343 1011 q 381 954 356 971 q 456 938 406 938 q 540 954 515 938 q 577 1011 566 971 "},"ý":{"x_min":3,"x_max":853,"ha":848,"o":"m 3 720 l 294 720 l 443 240 l 581 720 l 853 720 l 567 -49 q 467 -227 518 -181 q 249 -292 396 -292 q 64 -275 189 -292 l 43 -83 q 175 -102 102 -102 q 254 -79 224 -102 q 305 0 284 -57 l 3 720 m 417 1011 l 654 1011 l 435 808 l 303 808 l 417 1011 "},"º":{"x_min":16,"x_max":535,"ha":555,"o":"m 16 757 q 45 882 16 821 q 135 977 74 943 q 280 1011 196 1011 q 466 941 397 1011 q 535 755 535 871 q 465 573 535 643 q 281 504 395 504 q 129 540 191 504 q 42 638 68 577 q 16 757 16 699 m 184 757 q 213 649 184 684 q 279 622 235 622 q 342 653 317 622 q 368 757 368 684 q 342 863 368 832 q 276 895 317 895 q 209 863 234 895 q 184 757 184 832 "},"╝":{"x_min":-14.25,"x_max":680.9375,"ha":986,"o":"m 562 1264 l 680 1264 l 680 233 l -14 233 l -14 352 l 562 352 l 562 1264 m 304 609 l 304 1264 l 423 1264 l 423 491 l -14 491 l -14 609 l 304 609 "},"∞":{"x_min":13,"x_max":799,"ha":810,"o":"m 371 579 q 474 697 421 661 q 590 734 526 734 q 739 670 680 734 q 799 497 799 607 q 739 323 799 386 q 590 260 680 260 q 474 295 527 260 q 371 414 422 331 q 278 327 331 357 q 177 298 225 298 q 60 351 108 298 q 13 496 13 404 q 60 642 13 589 q 177 695 108 695 q 278 665 225 695 q 371 579 331 635 m 434 498 q 498 406 480 427 q 540 372 516 385 q 592 360 565 360 q 672 400 644 360 q 700 499 700 440 q 669 598 700 563 q 594 634 638 634 q 523 607 558 634 q 434 498 487 580 m 313 499 q 184 595 245 595 q 130 569 153 595 q 108 499 108 544 q 130 427 108 453 q 184 402 152 402 q 232 416 211 402 q 313 499 268 440 "},"ź":{"x_min":25,"x_max":743,"ha":773,"o":"m 52 720 l 721 720 l 721 558 l 357 189 l 743 189 l 743 0 l 25 0 l 25 179 l 369 531 l 52 531 l 52 720 m 382 1011 l 619 1011 l 400 808 l 268 808 l 382 1011 "},"я":{"x_min":1,"x_max":784,"ha":867,"o":"m 784 0 l 508 0 l 508 280 l 497 280 q 451 264 468 280 q 417 215 434 248 l 306 0 l 1 0 l 108 208 q 233 310 155 301 q 99 383 145 324 q 54 513 54 442 q 88 636 54 583 q 190 705 123 690 q 359 720 257 720 l 784 720 l 784 0 m 508 443 l 508 556 l 421 556 q 345 541 360 556 q 330 500 330 526 q 430 443 330 443 l 508 443 "},"Ё":{"x_min":101,"x_max":939,"ha":1003,"o":"m 101 994 l 924 994 l 924 782 l 409 782 l 409 624 l 887 624 l 887 421 l 409 421 l 409 225 l 939 225 l 939 0 l 101 0 l 101 994 m 271 1227 l 447 1227 l 447 1057 l 271 1057 l 271 1227 m 558 1227 l 736 1227 l 736 1057 l 558 1057 l 558 1227 "},"█":{"x_min":-14.25,"x_max":1000.375,"ha":986,"o":"m -14 -421 l -14 1264 l 1000 1264 l 1000 -421 l -14 -421 "},"ń":{"x_min":83,"x_max":845,"ha":926,"o":"m 83 720 l 340 720 l 340 602 q 456 705 397 674 q 600 736 515 736 q 780 667 715 736 q 845 457 845 599 l 845 0 l 568 0 l 568 395 q 542 491 568 463 q 472 520 517 520 q 390 482 421 520 q 359 345 359 444 l 359 0 l 83 0 l 83 720 m 459 1011 l 696 1011 l 477 808 l 345 808 l 459 1011 "},"Г":{"x_min":102,"x_max":889,"ha":926,"o":"m 889 750 l 409 750 l 409 0 l 102 0 l 102 994 l 889 994 l 889 750 "},"Ь":{"x_min":103,"x_max":1018,"ha":1075,"o":"m 410 611 l 574 611 q 908 531 799 611 q 1018 283 1018 451 q 917 72 1018 145 q 630 0 817 0 l 103 0 l 103 994 l 410 994 l 410 611 m 410 214 l 566 214 q 711 318 711 214 q 566 410 711 410 l 410 410 l 410 214 "},"¤":{"x_min":66,"x_max":844,"ha":917,"o":"m 206 778 l 303 681 q 380 710 342 700 q 454 720 418 720 q 529 710 491 720 q 606 681 567 700 l 701 778 l 844 635 l 748 538 q 775 465 766 502 q 784 390 784 428 q 775 316 784 354 q 748 238 766 278 l 844 143 l 701 0 l 606 96 q 526 69 564 78 q 452 60 487 60 q 380 69 417 60 q 303 96 342 78 l 211 0 l 66 143 l 161 238 q 134 310 143 273 q 125 385 125 347 q 134 462 125 423 q 161 538 143 500 l 66 635 l 206 778 m 585 388 q 546 480 585 442 q 454 519 508 519 q 363 480 401 519 q 325 388 325 442 q 363 297 325 335 q 454 259 401 259 q 546 297 508 259 q 585 388 585 335 "},"Ĝ":{"x_min":64,"x_max":1076,"ha":1157,"o":"m 602 360 l 602 567 l 1076 567 l 1076 143 q 835 16 939 50 q 586 -17 730 -17 q 298 43 409 -17 q 125 223 186 103 q 64 497 64 342 q 131 780 64 659 q 327 962 198 900 q 599 1011 428 1011 q 845 981 763 1011 q 981 888 927 951 q 1062 729 1034 826 l 766 677 q 704 763 747 733 q 592 793 660 793 q 431 722 491 793 q 372 500 372 652 q 432 270 372 339 q 601 201 493 201 q 699 215 653 201 q 807 266 746 230 l 807 360 l 602 360 m 499 1260 l 695 1260 l 846 1066 l 677 1066 l 595 1169 l 512 1066 l 344 1066 l 499 1260 "},"p":{"x_min":85,"x_max":877,"ha":926,"o":"m 85 -274 l 85 720 l 343 720 l 343 613 q 441 704 397 680 q 575 736 502 736 q 798 625 719 736 q 877 352 877 515 q 791 78 877 173 q 573 -16 705 -16 q 457 5 510 -16 q 364 70 405 27 l 364 -274 l 85 -274 m 361 357 q 397 231 361 272 q 488 190 433 190 q 568 229 536 190 q 601 363 601 269 q 567 492 601 451 q 484 533 533 533 q 397 491 432 533 q 361 357 361 450 "},"│":{"x_min":306.5625,"x_max":425.25,"ha":861,"o":"m 306 -421 l 306 1264 l 425 1264 l 425 -421 l 306 -421 "},"Ю":{"x_min":103,"x_max":1543,"ha":1609,"o":"m 529 645 q 696 917 569 823 q 1026 1011 824 1011 q 1409 878 1275 1011 q 1543 503 1543 745 q 1410 117 1543 252 q 1038 -17 1278 -17 q 663 102 787 -17 q 519 401 540 222 l 410 401 l 410 0 l 103 0 l 103 994 l 410 994 l 410 645 l 529 645 m 1028 214 q 1183 280 1130 214 q 1236 508 1236 346 q 1026 780 1236 780 q 821 494 821 780 q 1028 214 821 214 "},"ο":{"x_min":50,"x_max":876,"ha":926,"o":"m 50 357 q 161 629 50 522 q 460 736 272 736 q 787 610 676 736 q 876 362 876 509 q 765 90 876 196 q 461 -16 655 -16 q 181 72 288 -16 q 50 357 50 181 m 327 358 q 365 216 327 262 q 463 171 404 171 q 560 216 522 171 q 599 361 599 261 q 560 500 599 454 q 465 546 522 546 q 366 499 405 546 q 327 358 327 453 "},"S":{"x_min":48,"x_max":950,"ha":1003,"o":"m 48 328 l 340 347 q 378 238 349 275 q 514 178 426 178 q 616 208 580 178 q 652 280 652 239 q 617 349 652 319 q 460 407 583 380 q 171 528 258 452 q 85 720 85 603 q 129 864 85 796 q 262 972 173 933 q 507 1011 352 1011 q 798 940 697 1011 q 917 714 898 869 l 627 698 q 578 795 615 765 q 476 826 541 826 q 396 803 423 826 q 369 747 369 780 q 391 705 369 724 q 494 668 413 685 q 783 580 696 625 q 910 470 870 536 q 950 323 950 404 q 897 147 950 227 q 749 24 844 66 q 509 -17 654 -17 q 158 80 256 -17 q 48 328 60 178 "},"/":{"x_min":1,"x_max":390,"ha":386,"o":"m 249 1011 l 390 1011 l 140 -17 l 1 -17 l 249 1011 "},"►":{"x_min":195.328125,"x_max":1179.421875,"ha":1375,"o":"m 195 961 l 1179 470 l 195 -21 l 195 961 "},"Ŧ":{"x_min":36,"x_max":968,"ha":1003,"o":"m 968 750 l 656 750 l 656 558 l 786 558 l 786 380 l 656 380 l 656 0 l 349 0 l 349 380 l 226 380 l 226 558 l 349 558 l 349 750 l 36 750 l 36 994 l 968 994 l 968 750 "},"ђ":{"x_min":13,"x_max":858,"ha":939,"o":"m 858 36 q 843 -136 858 -76 q 776 -237 829 -197 q 616 -278 722 -278 q 418 -254 532 -278 l 460 -54 q 509 -61 496 -61 q 561 -36 542 -61 q 581 59 581 -12 l 581 396 q 483 521 581 521 q 400 481 430 521 q 371 345 371 441 l 371 0 l 94 0 l 94 804 l 13 804 l 13 930 l 94 930 l 94 994 l 371 994 l 371 930 l 536 930 l 536 804 l 371 804 l 371 628 q 615 736 468 736 q 796 663 735 736 q 858 458 858 591 l 858 36 "},"y":{"x_min":3,"x_max":853,"ha":848,"o":"m 3 720 l 294 720 l 443 240 l 581 720 l 853 720 l 567 -49 q 467 -227 518 -181 q 249 -292 396 -292 q 64 -275 189 -292 l 43 -83 q 175 -102 102 -102 q 254 -79 224 -102 q 305 0 284 -57 l 3 720 "},"Π":{"x_min":103,"x_max":1054,"ha":1157,"o":"m 1054 0 l 747 0 l 747 750 l 410 750 l 410 0 l 103 0 l 103 994 l 1054 994 l 1054 0 "},"‗":{"x_min":-8,"x_max":703,"ha":695,"o":"m 703 -104 l -8 -104 l -8 -35 l 703 -35 l 703 -104 m 703 -242 l -8 -242 l -8 -173 l 703 -173 l 703 -242 "},"–":{"x_min":-8,"x_max":703,"ha":695,"o":"m -8 439 l 703 439 l 703 288 l -8 288 l -8 439 "},"ë":{"x_min":49,"x_max":883,"ha":926,"o":"m 883 292 l 330 292 q 365 192 337 225 q 469 146 405 146 q 547 166 510 146 q 595 212 569 179 l 867 187 q 716 31 804 78 q 463 -16 628 -16 q 238 24 320 -16 q 102 152 156 64 q 49 358 49 240 q 157 631 49 527 q 455 736 265 736 q 699 689 610 736 q 836 553 789 642 q 883 323 883 465 l 883 292 m 602 424 q 559 538 593 503 q 467 573 524 573 q 362 520 401 573 q 330 424 337 488 l 602 424 m 232 981 l 408 981 l 408 811 l 232 811 l 232 981 m 519 981 l 697 981 l 697 811 l 519 811 l 519 981 "},"б":{"x_min":50,"x_max":876,"ha":926,"o":"m 325 698 q 461 736 374 736 q 769 629 663 736 q 876 362 876 522 q 770 93 876 204 q 460 -17 665 -17 q 153 94 257 -17 q 50 458 50 206 q 139 835 50 691 q 397 984 229 979 l 480 987 q 604 1017 592 992 l 823 1017 q 601 810 823 819 q 398 781 451 805 q 325 698 344 757 m 462 172 q 564 220 528 172 q 600 360 600 269 q 563 498 600 450 q 465 547 526 547 q 361 494 396 547 q 326 357 326 441 q 360 221 326 270 q 462 172 395 172 "},"ƒ":{"x_min":25,"x_max":906,"ha":926,"o":"m 670 678 l 803 678 l 760 481 l 628 481 l 500 -117 q 423 -247 482 -202 q 257 -292 365 -292 q 25 -251 156 -292 l 74 -75 q 179 -100 144 -100 q 220 -85 205 -100 q 247 -16 235 -70 l 353 481 l 223 481 l 263 678 l 395 678 l 426 822 q 465 922 437 879 q 544 987 492 964 q 671 1011 597 1011 q 906 969 784 1011 l 856 791 q 752 818 793 818 q 710 802 726 818 q 680 725 695 786 l 670 678 "},"у":{"x_min":3,"x_max":853,"ha":848,"o":"m 3 720 l 294 720 l 443 240 l 581 720 l 853 720 l 567 -49 q 467 -227 518 -181 q 249 -292 396 -292 q 64 -275 189 -292 l 43 -83 q 175 -102 102 -102 q 254 -79 224 -102 q 305 0 284 -57 l 3 720 "},"J":{"x_min":24,"x_max":823,"ha":926,"o":"m 515 994 l 823 994 l 823 453 q 792 195 823 283 q 671 44 762 106 q 438 -17 580 -17 q 204 23 287 -17 q 77 142 122 64 q 24 336 32 220 l 318 376 q 329 278 318 310 q 365 226 340 246 q 415 214 383 214 q 491 252 467 214 q 515 381 515 290 l 515 994 "},"ŷ":{"x_min":3,"x_max":853,"ha":848,"o":"m 3 720 l 294 720 l 443 240 l 581 720 l 853 720 l 567 -49 q 467 -227 518 -181 q 249 -292 396 -292 q 64 -275 189 -292 l 43 -83 q 175 -102 102 -102 q 254 -79 224 -102 q 305 0 284 -57 l 3 720 m 341 1002 l 537 1002 l 688 808 l 519 808 l 437 911 l 354 808 l 186 808 l 341 1002 "},"ŕ":{"x_min":86,"x_max":653,"ha":617,"o":"m 86 720 l 344 720 l 344 602 q 421 707 381 678 q 519 736 460 736 q 653 698 580 736 l 567 501 q 490 522 518 522 q 405 477 435 522 q 363 241 363 414 l 363 0 l 86 0 l 86 720 m 349 1011 l 586 1011 l 367 808 l 235 808 l 349 1011 "},"☻":{"x_min":297.0625,"x_max":1161.796875,"ha":1458,"o":"m 1161 352 q 1034 46 1161 173 q 729 -80 907 -80 q 423 45 550 -80 q 297 352 297 172 q 424 656 297 529 q 729 784 551 784 q 1034 656 908 784 q 1161 352 1161 529 m 618 440 q 602 479 618 463 q 563 495 586 495 q 524 479 541 495 q 508 440 508 463 q 524 402 508 418 q 563 385 541 385 q 602 402 586 385 q 618 440 618 418 m 950 440 q 934 479 950 463 q 895 495 918 495 q 856 479 872 495 q 840 440 840 463 q 856 402 840 418 q 895 385 872 385 q 934 402 918 385 q 950 440 950 418 m 530 212 q 729 80 600 80 q 929 212 858 80 l 886 236 q 729 139 833 139 q 572 236 626 139 l 530 212 "},"ώ":{"x_min":49,"x_max":1266,"ha":1314,"o":"m 1182 720 q 1266 377 1266 568 q 1172 91 1266 198 q 916 -16 1078 -16 q 759 27 834 -16 q 656 142 684 70 q 558 26 629 69 q 399 -16 486 -16 q 142 91 236 -16 q 49 377 49 198 q 132 720 49 568 l 410 720 q 363 552 385 657 q 342 371 342 448 q 440 201 342 201 q 494 239 469 201 q 520 338 520 277 l 520 566 l 797 566 l 797 338 q 821 239 797 277 q 874 201 846 201 q 973 371 973 201 q 951 552 973 448 q 905 720 929 657 l 1182 720 m 808 994 l 686 791 l 554 791 l 598 994 l 808 994 "},"˘":{"x_min":0,"x_max":463,"ha":463,"o":"m 351 1011 l 463 1011 q 432 902 458 946 q 352 832 406 858 q 236 806 298 806 q 71 859 133 806 q 0 1011 10 913 l 117 1011 q 155 954 130 971 q 230 938 180 938 q 314 954 289 938 q 351 1011 340 971 "},"┤":{"x_min":-14.25,"x_max":552.078125,"ha":986,"o":"m 433 -421 l 433 362 l -14 362 l -14 480 l 433 480 l 433 1264 l 552 1264 l 552 -421 l 433 -421 "},"↑":{"x_min":103.765625,"x_max":591.40625,"ha":695,"o":"m 103 712 q 329 992 281 872 l 360 992 q 591 710 419 862 l 591 658 q 381 792 451 723 l 381 -290 l 313 -290 l 313 792 q 103 659 219 714 l 103 712 "},"D":{"x_min":106,"x_max":1020,"ha":1080,"o":"m 106 994 l 561 994 q 779 957 696 994 q 917 852 862 920 q 995 692 971 783 q 1020 500 1020 602 q 983 253 1020 341 q 883 106 947 165 q 744 27 818 46 q 561 0 643 0 l 106 0 l 106 994 m 413 769 l 413 226 l 488 226 q 624 247 583 226 q 688 321 665 268 q 711 494 711 375 q 659 710 711 652 q 489 769 608 769 l 413 769 "},"┼":{"x_min":-14.25,"x_max":1000.375,"ha":986,"o":"m 433 362 l -14 362 l -14 480 l 433 480 l 433 1264 l 552 1264 l 552 480 l 1000 480 l 1000 362 l 552 362 l 552 -421 l 433 -421 l 433 362 "},"ł":{"x_min":0,"x_max":463,"ha":463,"o":"m 94 994 l 371 994 l 371 675 l 463 736 l 463 603 l 371 542 l 371 0 l 94 0 l 94 358 l 0 295 l 0 428 l 94 491 l 94 994 "},"ĺ":{"x_min":93,"x_max":473,"ha":463,"o":"m 93 994 l 370 994 l 370 0 l 93 0 l 93 994 m 236 1263 l 473 1263 l 254 1060 l 122 1060 l 236 1263 "},"ц":{"x_min":79,"x_max":947,"ha":958,"o":"m 947 -206 l 755 -206 l 755 0 l 79 0 l 79 720 l 355 720 l 355 201 l 565 201 l 565 720 l 841 720 l 841 201 l 947 201 l 947 -206 "},"Л":{"x_min":1,"x_max":1015,"ha":1117,"o":"m 1015 0 l 708 0 l 708 750 l 468 750 l 468 444 q 447 167 468 255 q 354 37 427 78 q 116 -4 280 -4 q 1 6 66 -4 l 1 208 l 47 208 q 135 235 109 208 q 161 336 161 262 l 161 994 l 1015 994 l 1015 0 "},"├":{"x_min":434.0625,"x_max":1001.0625,"ha":986,"o":"m 434 -421 l 434 1264 l 552 1264 l 552 480 l 1001 480 l 1001 362 l 552 362 l 552 -421 l 434 -421 "},"$":{"x_min":37,"x_max":878,"ha":926,"o":"m 848 760 l 596 721 q 561 787 576 768 q 511 824 546 805 l 511 628 q 786 512 717 573 q 878 304 878 430 q 845 168 878 230 q 760 65 812 106 q 652 5 709 23 q 511 -17 594 -13 l 511 -145 l 412 -145 l 412 -17 q 250 15 312 -8 q 143 79 188 38 q 73 168 98 121 q 37 284 49 216 l 311 316 q 343 219 323 249 q 412 166 364 189 l 412 406 q 217 472 274 444 q 118 561 160 500 q 76 711 76 622 q 160 913 76 831 q 412 1003 245 994 l 412 1070 l 511 1070 l 511 1003 q 743 931 662 993 q 848 760 823 869 m 412 828 q 351 792 368 813 q 334 742 334 771 q 351 690 334 712 q 412 653 368 668 l 412 828 m 511 160 q 595 202 568 172 q 622 268 622 232 q 599 327 622 300 q 511 377 576 354 l 511 160 "},"w":{"x_min":2,"x_max":1314,"ha":1311,"o":"m 2 720 l 268 720 l 385 267 l 532 720 l 779 720 l 932 266 l 1048 720 l 1314 720 l 1048 0 l 803 0 l 657 433 l 516 0 l 269 0 l 2 720 "},"о":{"x_min":50,"x_max":876,"ha":926,"o":"m 50 357 q 161 629 50 522 q 460 736 272 736 q 787 610 676 736 q 876 362 876 509 q 765 90 876 196 q 461 -16 655 -16 q 181 72 288 -16 q 50 357 50 181 m 327 358 q 365 216 327 262 q 463 171 404 171 q 560 216 522 171 q 599 361 599 261 q 560 500 599 454 q 465 546 522 546 q 366 499 405 546 q 327 358 327 453 "},"Д":{"x_min":15,"x_max":1145,"ha":1164,"o":"m 1145 -216 l 897 -216 l 897 0 l 262 0 l 262 -216 l 15 -216 l 15 229 l 117 229 q 204 772 204 469 l 204 994 l 1038 994 l 1038 229 l 1145 229 l 1145 -216 m 731 229 l 731 750 l 483 750 l 483 737 q 413 229 483 530 l 731 229 "},"Ç":{"x_min":66,"x_max":1033,"ha":1080,"o":"m 764 407 l 1033 325 q 947 136 1005 212 q 802 21 889 60 q 582 -17 716 -17 q 317 30 420 -17 q 140 195 215 77 q 66 499 66 314 q 197 878 66 746 q 568 1011 328 1011 q 864 934 756 1011 q 1024 701 971 858 l 753 641 q 723 707 738 686 q 659 761 697 742 q 576 781 622 781 q 416 697 471 781 q 374 501 374 634 q 424 275 374 336 q 565 214 474 214 q 698 263 653 214 q 764 407 743 312 m 387 -112 l 407 -32 q 526 -17 471 -17 q 686 -56 642 -17 q 731 -148 731 -95 q 710 -215 731 -181 q 639 -271 690 -250 q 502 -292 587 -292 q 320 -274 424 -292 l 320 -191 q 470 -205 390 -205 q 549 -189 528 -205 q 570 -148 570 -173 q 553 -115 570 -129 q 500 -101 536 -101 q 387 -112 452 -101 "},"Ŝ":{"x_min":48,"x_max":950,"ha":1003,"o":"m 48 328 l 340 347 q 378 238 349 275 q 514 178 426 178 q 616 208 580 178 q 652 280 652 239 q 617 349 652 319 q 460 407 583 380 q 171 528 258 452 q 85 720 85 603 q 129 864 85 796 q 262 972 173 933 q 507 1011 352 1011 q 798 940 697 1011 q 917 714 898 869 l 627 698 q 578 795 615 765 q 476 826 541 826 q 396 803 423 826 q 369 747 369 780 q 391 705 369 724 q 494 668 413 685 q 783 580 696 625 q 910 470 870 536 q 950 323 950 404 q 897 147 950 227 q 749 24 844 66 q 509 -17 654 -17 q 158 80 256 -17 q 48 328 60 178 m 406 1262 l 602 1262 l 753 1068 l 584 1068 l 502 1171 l 419 1068 l 251 1068 l 406 1262 "},"C":{"x_min":66,"x_max":1033,"ha":1080,"o":"m 764 407 l 1033 325 q 947 136 1005 212 q 802 21 889 60 q 582 -17 716 -17 q 317 30 420 -17 q 140 195 215 77 q 66 499 66 314 q 197 878 66 746 q 568 1011 328 1011 q 864 934 756 1011 q 1024 701 971 858 l 753 641 q 723 707 738 686 q 659 761 697 742 q 576 781 622 781 q 416 697 471 781 q 374 501 374 634 q 424 275 374 336 q 565 214 474 214 q 698 263 653 214 q 764 407 743 312 "},"Ĵ":{"x_min":24,"x_max":823,"ha":926,"o":"m 515 994 l 823 994 l 823 453 q 792 195 823 283 q 671 44 762 106 q 438 -17 580 -17 q 204 23 287 -17 q 77 142 122 64 q 24 336 32 220 l 318 376 q 329 278 318 310 q 365 226 340 246 q 415 214 383 214 q 491 252 467 214 q 515 381 515 290 l 515 994 m 376 1257 l 572 1257 l 723 1063 l 554 1063 l 472 1166 l 389 1063 l 221 1063 l 376 1257 "},"È":{"x_min":101,"x_max":939,"ha":1003,"o":"m 101 994 l 924 994 l 924 782 l 409 782 l 409 624 l 887 624 l 887 421 l 409 421 l 409 225 l 939 225 l 939 0 l 101 0 l 101 994 m 273 1257 l 508 1257 l 619 1055 l 489 1055 l 273 1257 "},"ﬁ":{"x_min":13,"x_max":842,"ha":926,"o":"m 354 720 l 477 720 l 477 518 l 354 518 l 354 0 l 103 0 l 103 518 l 13 518 l 13 720 l 103 720 l 103 752 q 112 847 103 793 q 149 937 121 902 q 225 991 176 972 q 344 1011 274 1011 q 536 995 397 1011 l 505 829 q 435 836 456 836 q 372 815 391 836 q 354 736 354 795 l 354 720 m 590 994 l 842 994 l 842 806 l 590 806 l 590 994 m 590 720 l 842 720 l 842 0 l 590 0 l 590 720 "},"X":{"x_min":2,"x_max":1083,"ha":1080,"o":"m 33 994 l 371 994 l 547 688 l 719 994 l 1054 994 l 744 512 l 1083 0 l 738 0 l 541 319 l 345 0 l 2 0 l 344 518 l 33 994 "},"ô":{"x_min":50,"x_max":876,"ha":926,"o":"m 50 357 q 161 629 50 522 q 460 736 272 736 q 787 610 676 736 q 876 362 876 509 q 765 90 876 196 q 461 -16 655 -16 q 181 72 288 -16 q 50 357 50 181 m 327 358 q 365 216 327 262 q 463 171 404 171 q 560 216 522 171 q 599 361 599 261 q 560 500 599 454 q 465 546 522 546 q 366 499 405 546 q 327 358 327 453 m 367 1002 l 563 1002 l 714 808 l 545 808 l 463 911 l 380 808 l 212 808 l 367 1002 "},"Ė":{"x_min":101,"x_max":939,"ha":1003,"o":"m 101 994 l 924 994 l 924 782 l 409 782 l 409 624 l 887 624 l 887 421 l 409 421 l 409 225 l 939 225 l 939 0 l 101 0 l 101 994 m 417 1267 l 630 1267 l 630 1064 l 417 1064 l 417 1267 "},"г":{"x_min":93,"x_max":676,"ha":705,"o":"m 676 519 l 370 519 l 370 0 l 93 0 l 93 720 l 676 720 l 676 519 "},"Ŀ":{"x_min":102,"x_max":888,"ha":926,"o":"m 102 994 l 409 994 l 409 245 l 888 245 l 888 0 l 102 0 l 102 994 m 610 725 l 823 725 l 823 522 l 610 522 l 610 725 "},"х":{"x_min":8,"x_max":919,"ha":926,"o":"m 22 720 l 350 720 l 463 519 l 596 720 l 901 720 l 655 376 l 919 0 l 597 0 l 463 231 l 307 0 l 8 0 l 269 376 l 22 720 "},"╚":{"x_min":305.203125,"x_max":1000.375,"ha":986,"o":"m 423 1264 l 423 352 l 1000 352 l 1000 233 l 305 233 l 305 1264 l 423 1264 m 681 609 l 1000 609 l 1000 491 l 562 491 l 562 1264 l 681 1264 l 681 609 "},"ŋ":{"x_min":103,"x_max":873,"ha":946,"o":"m 376 603 q 620 736 465 736 q 816 626 759 736 q 873 275 873 517 q 808 -153 873 -15 q 604 -292 744 -292 q 427 -268 517 -292 l 468 -68 q 516 -76 494 -76 q 579 6 561 -76 q 597 262 597 88 q 570 480 597 425 q 491 535 544 535 q 417 489 442 535 q 392 365 392 444 l 392 0 l 103 0 l 103 720 l 373 720 l 373 603 l 376 603 "},"Ч":{"x_min":92,"x_max":1015,"ha":1117,"o":"m 1015 0 l 708 0 l 708 369 q 440 292 567 292 q 190 381 288 292 q 92 628 92 471 l 92 994 l 399 994 l 399 689 q 433 577 399 616 q 533 538 468 538 q 708 609 653 538 l 708 994 l 1015 994 l 1015 0 "},"∟":{"x_min":245.515625,"x_max":1114.3125,"ha":1360,"o":"m 245 867 l 313 867 l 313 67 l 1114 67 l 1114 0 l 245 0 l 245 867 "},"ü":{"x_min":81,"x_max":842,"ha":926,"o":"m 842 0 l 584 0 l 584 117 q 468 14 526 45 q 324 -16 409 -16 q 145 52 210 -16 q 81 261 81 120 l 81 720 l 358 720 l 358 324 q 383 228 358 256 q 453 200 408 200 q 534 237 502 200 q 566 374 566 275 l 566 720 l 842 720 l 842 0 m 230 981 l 406 981 l 406 811 l 230 811 l 230 981 m 517 981 l 695 981 l 695 811 l 517 811 l 517 981 "},"ь":{"x_min":93,"x_max":816,"ha":863,"o":"m 370 464 l 496 464 q 816 230 816 464 q 504 0 816 0 l 93 0 l 93 720 l 370 720 l 370 464 m 370 170 l 460 170 q 515 185 494 170 q 537 230 537 201 q 460 296 537 296 l 370 296 l 370 170 "},"Ÿ":{"x_min":2,"x_max":1084,"ha":1080,"o":"m 2 994 l 343 994 l 543 659 l 744 994 l 1084 994 l 697 416 l 697 0 l 389 0 l 389 416 l 2 994 m 309 1227 l 485 1227 l 485 1057 l 309 1057 l 309 1227 m 596 1227 l 774 1227 l 774 1057 l 596 1057 l 596 1227 "},"€":{"x_min":11.75,"x_max":890,"ha":926,"o":"m 677 464 l 648 341 l 442 341 q 616 214 482 214 q 890 309 762 214 l 890 56 q 634 -17 784 -17 q 276 93 392 -17 q 134 341 160 204 l 11 341 l 45 464 l 119 464 q 118 499 118 474 q 119 539 118 526 l 28 539 l 61 662 l 134 662 q 618 1011 223 1011 q 881 941 748 1011 l 820 695 q 627 780 727 780 q 450 662 496 780 l 694 662 l 665 539 l 426 539 q 425 499 425 525 l 425 464 l 677 464 "},"в":{"x_min":83,"x_max":806,"ha":855,"o":"m 627 383 q 757 329 709 375 q 806 205 806 283 q 738 51 806 102 q 494 0 670 0 l 83 0 l 83 720 l 528 720 q 712 673 648 720 q 776 545 776 627 q 734 443 776 486 q 627 386 693 400 l 627 383 m 359 446 l 429 446 q 499 509 499 446 q 425 560 499 560 l 359 560 l 359 446 m 359 170 l 450 170 q 505 185 484 170 q 527 230 527 201 q 450 296 527 296 l 359 296 l 359 170 "},"Η":{"x_min":103,"x_max":1055,"ha":1157,"o":"m 103 994 l 410 994 l 410 646 l 746 646 l 746 994 l 1055 994 l 1055 0 l 746 0 l 746 402 l 410 402 l 410 0 l 103 0 l 103 994 "},"С":{"x_min":66,"x_max":1033,"ha":1080,"o":"m 764 407 l 1033 325 q 947 136 1005 212 q 802 21 889 60 q 582 -17 716 -17 q 317 30 420 -17 q 140 195 215 77 q 66 499 66 314 q 197 878 66 746 q 568 1011 328 1011 q 864 934 756 1011 q 1024 701 971 858 l 753 641 q 723 707 738 686 q 659 761 697 742 q 576 781 622 781 q 416 697 471 781 q 374 501 374 634 q 424 275 374 336 q 565 214 474 214 q 698 263 653 214 q 764 407 743 312 "},"ß":{"x_min":81,"x_max":877,"ha":926,"o":"m 81 0 l 81 689 q 116 853 81 777 q 232 970 151 929 q 447 1011 313 1011 q 685 952 612 1011 q 758 808 758 893 q 718 674 758 753 q 679 570 679 594 q 687 535 679 552 q 726 491 696 518 q 851 333 813 411 q 877 213 877 279 q 810 48 877 113 q 630 -16 743 -16 q 487 12 548 -16 q 398 85 442 34 l 555 178 q 602 149 579 149 q 641 164 625 149 q 657 203 657 180 q 638 251 657 223 q 517 378 619 279 q 443 470 464 430 q 430 528 430 496 q 470 647 430 568 q 510 766 510 726 q 489 817 510 797 q 434 837 468 837 q 370 805 395 837 q 345 694 345 774 l 345 0 l 81 0 "},"└":{"x_min":434.0625,"x_max":1001.0625,"ha":986,"o":"m 434 362 l 434 1264 l 552 1264 l 552 480 l 1001 480 l 1001 362 l 434 362 "},"њ":{"x_min":93,"x_max":1371,"ha":1421,"o":"m 926 464 l 1051 464 q 1371 230 1371 464 q 1060 0 1371 0 l 649 0 l 649 272 l 370 272 l 370 0 l 93 0 l 93 720 l 370 720 l 370 473 l 649 473 l 649 720 l 926 720 l 926 464 m 926 170 l 1015 170 q 1070 185 1049 170 q 1092 230 1092 201 q 1015 296 1092 296 l 926 296 l 926 170 "},"Ű":{"x_min":102,"x_max":1055,"ha":1157,"o":"m 748 994 l 1055 994 l 1055 401 q 1027 235 1055 313 q 941 98 1000 157 q 818 16 882 39 q 603 -17 728 -17 q 444 -6 530 -17 q 301 33 359 3 q 195 119 243 63 q 130 233 148 174 q 102 401 102 328 l 102 994 l 409 994 l 409 387 q 454 260 409 306 q 578 215 499 215 q 703 260 658 215 q 748 387 748 305 l 748 994 m 490 1262 l 710 1262 l 510 1062 l 376 1062 l 490 1262 m 760 1262 l 982 1262 l 778 1062 l 648 1062 l 760 1262 "},"♣":{"x_min":40.015625,"x_max":876.265625,"ha":917,"o":"m 747 0 l 172 0 l 177 23 q 326 69 281 45 q 411 163 371 93 q 451 318 451 233 l 450 346 q 353 226 413 267 q 227 185 293 185 q 95 239 150 185 q 40 375 40 294 q 89 506 40 451 q 204 561 138 561 q 314 526 246 561 q 269 650 269 599 q 322 780 269 727 q 456 834 376 834 q 590 781 534 834 q 645 653 645 729 q 598 526 645 590 q 708 562 670 562 q 828 507 779 562 q 876 377 876 453 q 821 241 876 296 q 690 185 766 185 q 577 219 637 185 q 465 346 516 252 q 497 176 467 240 q 580 78 527 113 q 741 23 634 44 l 747 0 "},"c":{"x_min":50,"x_max":883,"ha":926,"o":"m 621 282 l 883 252 q 811 110 861 170 q 685 17 762 50 q 489 -16 608 -16 q 298 5 374 -16 q 167 74 222 26 q 81 186 112 122 q 50 356 50 250 q 88 541 50 467 q 163 638 115 595 q 263 702 212 681 q 470 736 343 736 q 739 673 646 736 q 869 489 831 610 l 609 454 q 564 523 596 500 q 478 547 532 547 q 367 497 409 547 q 325 349 325 448 q 367 214 325 260 q 474 169 409 169 q 565 196 528 169 q 621 282 602 224 "},"¶":{"x_min":92,"x_max":1097,"ha":1181,"o":"m 1097 994 l 1097 779 l 1008 779 l 1008 -276 l 807 -276 l 807 779 l 694 779 l 694 -276 l 493 -276 l 493 417 l 446 417 q 239 450 308 417 q 131 554 170 484 q 92 711 92 624 q 178 921 92 848 q 437 994 265 994 l 1097 994 "},"Ή":{"x_min":3,"x_max":1226,"ha":1329,"o":"m 274 994 l 581 994 l 581 646 l 917 646 l 917 994 l 1226 994 l 1226 0 l 917 0 l 917 402 l 581 402 l 581 0 l 274 0 l 274 994 m 257 994 l 135 791 l 3 791 l 47 994 l 257 994 "},"γ":{"x_min":-1,"x_max":850,"ha":848,"o":"m 850 720 l 560 36 l 560 -275 l 284 -275 l 284 36 l -1 720 l 286 720 l 424 264 l 571 720 l 850 720 "},"­":{"x_min":31,"x_max":432,"ha":463,"o":"m 31 470 l 432 470 l 432 256 l 31 256 l 31 470 "},":":{"x_min":84,"x_max":379,"ha":463,"o":"m 84 720 l 379 720 l 379 443 l 84 443 l 84 720 m 84 277 l 379 277 l 379 0 l 84 0 l 84 277 "},"╓":{"x_min":305.203125,"x_max":1001.0625,"ha":986,"o":"m 305 -421 l 305 480 l 1001 480 l 1001 362 l 681 362 l 681 -421 l 562 -421 l 562 352 l 423 352 l 423 -421 l 305 -421 "},"ś":{"x_min":34,"x_max":800,"ha":848,"o":"m 34 200 l 308 226 q 355 156 324 177 q 437 135 386 135 q 523 158 492 135 q 547 202 547 176 q 515 248 547 232 q 397 276 493 260 q 197 323 253 301 q 103 395 141 344 q 65 511 65 446 q 106 633 65 582 q 220 710 147 685 q 415 736 292 736 q 605 716 543 736 q 707 655 666 696 q 776 544 748 614 l 514 518 q 480 568 503 552 q 401 590 447 590 q 333 573 354 590 q 312 533 312 556 q 339 493 312 506 q 456 468 366 479 q 661 425 594 453 q 764 346 728 397 q 800 233 800 295 q 762 112 800 171 q 643 18 724 53 q 422 -16 562 -16 q 141 40 225 -16 q 34 200 57 96 m 406 1011 l 643 1011 l 424 808 l 292 808 l 406 1011 "}," ":{"x_min":0,"x_max":0,"ha":463},"У":{"x_min":8,"x_max":928,"ha":933,"o":"m 8 994 l 342 994 l 479 584 l 615 994 l 928 994 l 601 226 q 531 87 561 133 q 443 12 502 42 q 282 -17 384 -17 q 96 -1 228 -17 l 96 204 q 209 196 173 196 q 339 275 316 196 l 8 994 "},"¾":{"x_min":47,"x_max":1337,"ha":1389,"o":"m 230 853 l 55 879 q 137 972 88 943 q 311 1011 202 1011 q 495 965 433 1011 q 540 881 540 933 q 515 815 540 845 q 454 773 498 794 q 534 720 508 755 q 560 640 560 686 q 510 539 560 577 q 304 489 443 489 q 106 541 175 489 q 47 632 66 572 l 219 652 q 249 605 229 619 q 302 591 269 591 q 361 609 340 591 q 383 654 383 628 q 344 707 383 688 q 243 720 323 718 l 262 816 q 341 830 321 816 q 362 867 362 845 q 348 897 362 885 q 306 909 334 909 q 256 893 278 909 q 230 853 240 882 m 967 1011 l 1113 1011 l 487 -36 l 343 -36 l 967 1011 m 1118 48 l 841 48 l 841 176 l 1124 489 l 1270 489 l 1270 161 l 1337 161 l 1337 48 l 1270 48 l 1270 -34 l 1118 -34 l 1118 48 m 1118 161 l 1118 309 l 979 161 l 1118 161 "},"Ί":{"x_min":5,"x_max":579,"ha":696,"o":"m 271 994 l 579 994 l 579 0 l 271 0 l 271 994 m 259 994 l 137 791 l 5 791 l 49 994 l 259 994 "},"ŉ":{"x_min":36,"x_max":1111,"ha":1192,"o":"m 305 792 q 257 612 305 684 q 101 494 209 539 l 36 581 q 127 643 92 607 q 164 746 161 679 l 36 746 l 36 994 l 305 994 l 305 792 m 1111 0 l 835 0 l 835 396 q 737 521 835 521 q 655 481 684 521 q 626 345 626 441 l 626 0 l 349 0 l 349 720 l 607 720 l 607 603 l 610 603 q 867 736 703 736 q 1049 664 987 736 q 1111 458 1111 592 l 1111 0 "},"┴":{"x_min":-14.25,"x_max":1000.375,"ha":986,"o":"m 1000 362 l -14 362 l -14 480 l 433 480 l 433 1264 l 552 1264 l 552 480 l 1000 480 l 1000 362 "},"Ģ":{"x_min":64,"x_max":1076,"ha":1157,"o":"m 602 360 l 602 567 l 1076 567 l 1076 143 q 835 16 939 50 q 586 -17 730 -17 q 298 43 409 -17 q 125 223 186 103 q 64 497 64 342 q 131 780 64 659 q 327 962 198 900 q 599 1011 428 1011 q 845 981 763 1011 q 981 888 927 951 q 1062 729 1034 826 l 766 677 q 704 763 747 733 q 592 793 660 793 q 431 722 491 793 q 372 500 372 652 q 432 270 372 339 q 601 201 493 201 q 699 215 653 201 q 807 266 746 230 l 807 360 l 602 360 m 480 -112 l 500 -32 q 619 -17 564 -17 q 779 -56 735 -17 q 824 -148 824 -95 q 803 -215 824 -181 q 732 -271 783 -250 q 595 -292 680 -292 q 413 -274 517 -292 l 413 -191 q 563 -205 483 -205 q 642 -189 621 -205 q 663 -148 663 -173 q 646 -115 663 -129 q 593 -101 629 -101 q 480 -112 545 -101 "},"m":{"x_min":85,"x_max":1308,"ha":1389,"o":"m 85 720 l 342 720 l 342 614 q 455 708 398 680 q 592 736 512 736 q 729 705 678 736 q 811 614 779 674 q 929 710 876 685 q 1061 736 983 736 q 1242 667 1177 736 q 1308 452 1308 598 l 1308 0 l 1031 0 l 1031 410 q 1012 482 1031 458 q 943 520 984 520 q 864 484 894 520 q 835 371 835 449 l 835 0 l 558 0 l 558 396 q 552 460 558 443 q 521 504 543 487 q 470 521 500 521 q 392 485 423 521 q 362 367 362 449 l 362 0 l 85 0 l 85 720 "},"Е":{"x_min":101,"x_max":939,"ha":1003,"o":"m 101 994 l 924 994 l 924 782 l 409 782 l 409 624 l 887 624 l 887 421 l 409 421 l 409 225 l 939 225 l 939 0 l 101 0 l 101 994 "},"ž":{"x_min":25,"x_max":743,"ha":773,"o":"m 52 720 l 721 720 l 721 558 l 357 189 l 743 189 l 743 0 l 25 0 l 25 179 l 369 531 l 52 531 l 52 720 m 481 808 l 286 808 l 136 1002 l 303 1002 l 386 898 l 468 1002 l 638 1002 l 481 808 "},"⁵":{"x_min":24,"x_max":529,"ha":555,"o":"m 195 817 q 315 840 246 840 q 467 795 405 840 q 529 678 529 751 q 464 540 529 590 q 278 491 399 491 q 24 631 68 491 l 191 655 q 220 608 196 625 q 276 592 245 592 q 339 613 314 592 q 364 666 364 634 q 339 718 364 699 q 273 738 315 738 q 223 727 251 738 q 180 700 196 716 l 48 719 l 92 1009 l 501 1009 l 501 893 l 206 893 l 195 817 "},"╞":{"x_min":434.0625,"x_max":1001.0625,"ha":986,"o":"m 434 -421 l 434 1264 l 552 1264 l 552 609 l 1001 609 l 1001 491 l 552 491 l 552 352 l 1001 352 l 1001 233 l 552 233 l 552 -421 l 434 -421 "},"á":{"x_min":50,"x_max":878.59375,"ha":926,"o":"m 336 487 l 72 515 q 115 623 86 583 q 195 692 143 663 q 300 724 233 713 q 443 736 366 736 q 642 722 567 736 q 768 664 718 708 q 823 577 803 633 q 844 471 844 521 l 844 153 q 850 73 844 102 q 878 0 856 44 l 619 0 q 599 42 603 27 q 589 88 594 56 q 481 13 535 36 q 312 -16 408 -16 q 116 43 183 -16 q 50 190 50 103 q 98 325 50 272 q 275 404 146 378 q 476 448 430 435 q 574 481 522 460 q 553 551 574 531 q 479 572 532 572 q 378 550 412 572 q 336 487 352 533 m 574 342 q 455 306 517 321 q 349 261 372 283 q 327 210 327 239 q 349 157 327 178 q 416 137 372 137 q 501 159 461 137 q 557 214 540 181 q 574 297 574 246 l 574 342 m 456 1011 l 693 1011 l 474 808 l 342 808 l 456 1011 "},"×":{"x_min":84.796875,"x_max":828.25,"ha":917,"o":"m 240 868 l 455 653 l 670 868 l 828 711 l 612 496 l 828 281 l 670 126 l 456 340 l 240 126 l 84 281 l 299 496 l 85 711 l 240 868 "},"п":{"x_min":81,"x_max":843,"ha":926,"o":"m 843 0 l 567 0 l 567 519 l 357 519 l 357 0 l 81 0 l 81 720 l 843 720 l 843 0 "},"Ǻ":{"x_min":2,"x_max":1084,"ha":1080,"o":"m 398 994 q 377 1076 377 1032 q 424 1191 377 1143 q 539 1240 472 1240 q 655 1192 607 1240 q 703 1076 703 1144 q 680 994 703 1032 l 710 994 l 1084 0 l 762 0 l 710 164 l 366 164 l 315 0 l 2 0 l 374 994 l 398 994 m 470 1076 q 490 1026 470 1046 q 539 1006 510 1006 q 588 1026 568 1006 q 609 1076 609 1046 q 588 1125 609 1105 q 539 1146 568 1146 q 490 1125 510 1146 q 470 1076 470 1105 m 641 391 l 539 719 l 437 391 l 641 391 m 506 1505 l 743 1505 l 524 1302 l 392 1302 l 506 1505 "},"K":{"x_min":103,"x_max":1157,"ha":1157,"o":"m 103 994 l 410 994 l 410 618 l 732 994 l 1141 994 l 779 618 l 1157 0 l 778 0 l 569 408 l 410 241 l 410 0 l 103 0 l 103 994 "},"7":{"x_min":62,"x_max":868,"ha":926,"o":"m 62 994 l 868 994 l 868 807 q 692 602 762 712 q 556 303 606 467 q 504 0 517 174 l 229 0 q 331 408 261 243 q 552 761 401 573 l 62 761 l 62 994 "},"¨":{"x_min":-1,"x_max":464,"ha":463,"o":"m -1 981 l 175 981 l 175 811 l -1 811 l -1 981 m 286 981 l 464 981 l 464 811 l 286 811 l 286 981 "},"Y":{"x_min":2,"x_max":1084,"ha":1080,"o":"m 2 994 l 343 994 l 543 659 l 744 994 l 1084 994 l 697 416 l 697 0 l 389 0 l 389 416 l 2 994 "},"E":{"x_min":101,"x_max":939,"ha":1003,"o":"m 101 994 l 924 994 l 924 782 l 409 782 l 409 624 l 887 624 l 887 421 l 409 421 l 409 225 l 939 225 l 939 0 l 101 0 l 101 994 "},"Ô":{"x_min":63,"x_max":1093,"ha":1157,"o":"m 63 496 q 198 875 63 739 q 576 1011 334 1011 q 958 877 824 1011 q 1093 504 1093 744 q 1034 218 1093 330 q 864 45 975 107 q 588 -17 753 -17 q 310 36 420 -17 q 131 206 199 90 q 63 496 63 322 m 370 494 q 425 278 370 344 q 578 213 481 213 q 731 277 677 213 q 786 508 786 341 q 729 713 786 648 q 575 778 672 778 q 426 712 482 778 q 370 494 370 646 m 482 1248 l 678 1248 l 829 1054 l 660 1054 l 578 1157 l 495 1054 l 327 1054 l 482 1248 "},"Є":{"x_min":64,"x_max":1062,"ha":1106,"o":"m 1062 289 q 900 68 1015 153 q 568 -17 784 -17 q 196 117 329 -17 q 64 503 64 252 q 198 878 64 745 q 581 1011 332 1011 q 1040 760 916 1011 l 763 656 q 581 780 717 780 q 377 588 406 780 l 678 588 l 678 404 l 378 404 q 579 214 403 214 q 773 367 730 214 l 1062 289 "},"Ï":{"x_min":37,"x_max":502,"ha":541,"o":"m 114 994 l 422 994 l 422 0 l 114 0 l 114 994 m 37 1227 l 213 1227 l 213 1057 l 37 1057 l 37 1227 m 324 1227 l 502 1227 l 502 1057 l 324 1057 l 324 1227 "},"ġ":{"x_min":50,"x_max":843.671875,"ha":926,"o":"m 584 720 l 843 720 l 843 40 l 843 8 q 814 -120 843 -59 q 738 -220 786 -182 q 617 -275 690 -258 q 448 -292 543 -292 q 150 -226 231 -292 q 70 -52 70 -161 q 71 -16 70 -39 l 339 -47 q 370 -98 349 -84 q 446 -119 400 -119 q 535 -87 506 -119 q 565 23 565 -55 l 565 133 q 483 62 524 84 q 346 29 419 29 q 113 155 201 29 q 50 391 50 244 q 131 647 50 559 q 344 736 212 736 q 482 707 428 736 q 584 613 537 679 l 584 720 m 325 370 q 358 255 325 293 q 445 218 391 218 q 532 256 497 218 q 567 374 567 295 q 530 494 567 452 q 440 536 493 536 q 356 497 388 536 q 325 370 325 459 m 355 1015 l 568 1015 l 568 812 l 355 812 l 355 1015 "},"έ":{"x_min":50,"x_max":756,"ha":761,"o":"m 756 71 q 449 -16 644 -16 q 155 46 261 -16 q 50 211 50 108 q 177 374 50 318 q 78 532 78 422 q 176 681 78 627 q 452 736 274 736 q 727 685 623 736 l 622 534 q 458 573 547 573 q 351 518 351 573 q 386 466 351 483 q 518 450 422 450 l 518 295 q 373 275 418 295 q 329 211 329 255 q 459 148 329 148 q 628 203 558 148 l 756 71 m 566 994 l 444 791 l 312 791 l 356 994 l 566 994 "},"ϋ":{"x_min":81,"x_max":843,"ha":926,"o":"m 843 292 q 741 67 843 150 q 458 -16 640 -16 q 179 67 278 -16 q 81 292 81 150 l 81 720 l 357 720 l 357 332 q 461 200 357 200 q 539 229 512 200 q 567 332 567 259 l 567 720 l 843 720 l 843 292 m 231 981 l 407 981 l 407 811 l 231 811 l 231 981 m 518 981 l 696 981 l 696 811 l 518 811 l 518 981 "},"й":{"x_min":93,"x_max":888,"ha":981,"o":"m 888 0 l 627 0 l 627 354 l 354 0 l 93 0 l 93 720 l 354 720 l 354 361 l 630 720 l 888 720 l 888 0 m 713 1012 q 644 860 710 913 q 486 808 577 808 q 318 861 378 808 q 250 1012 258 915 l 367 1012 q 481 940 387 940 q 562 954 532 940 q 602 1012 591 968 l 713 1012 "},"b":{"x_min":85,"x_max":877,"ha":926,"o":"m 85 994 l 364 994 l 364 649 q 457 714 405 692 q 573 736 510 736 q 791 641 705 736 q 877 370 877 546 q 837 162 877 252 q 729 28 798 72 q 575 -16 659 -16 q 442 15 502 -16 q 343 106 397 39 l 343 0 l 85 0 l 85 994 m 361 362 q 396 227 361 269 q 484 186 431 186 q 567 226 534 186 q 601 364 601 267 q 568 490 601 450 q 488 530 535 530 q 397 488 432 530 q 361 362 361 446 "},"ύ":{"x_min":81,"x_max":843,"ha":926,"o":"m 843 292 q 741 67 843 150 q 458 -16 640 -16 q 179 67 278 -16 q 81 292 81 150 l 81 720 l 357 720 l 357 332 q 461 200 357 200 q 539 229 512 200 q 567 332 567 259 l 567 720 l 843 720 l 843 292 m 626 994 l 504 791 l 372 791 l 416 994 l 626 994 "},"ﬂ":{"x_min":13,"x_max":842,"ha":926,"o":"m 354 720 l 477 720 l 477 518 l 354 518 l 354 0 l 103 0 l 103 518 l 13 518 l 13 720 l 103 720 l 103 752 q 112 847 103 793 q 149 937 121 902 q 225 991 176 972 q 344 1011 274 1011 q 536 995 397 1011 l 505 829 q 435 836 456 836 q 372 815 391 836 q 354 736 354 795 l 354 720 m 590 994 l 842 994 l 842 0 l 590 0 l 590 994 "},"ф":{"x_min":52,"x_max":1356,"ha":1407,"o":"m 842 647 q 1052 736 924 736 q 1273 628 1191 736 q 1356 349 1356 521 q 1273 83 1356 182 q 1051 -16 1191 -16 q 842 70 918 -16 l 842 -275 l 566 -275 l 566 68 q 354 -16 479 -16 q 134 91 216 -16 q 52 371 52 198 q 134 637 52 538 q 355 736 216 736 q 566 644 488 736 l 566 994 l 842 994 l 842 647 m 966 188 q 1049 233 1020 188 q 1079 354 1079 278 q 962 532 1079 532 q 875 493 911 532 q 839 357 839 454 q 871 236 839 284 q 966 188 904 188 m 444 188 q 532 226 496 188 q 569 363 569 265 q 536 483 569 435 q 440 532 503 532 q 357 486 387 532 q 328 366 328 441 q 444 188 328 188 "},"Ŋ":{"x_min":103,"x_max":1069,"ha":1131,"o":"m 395 877 q 527 971 437 932 q 712 1011 616 1011 q 1069 467 1069 1011 q 974 -105 1069 81 q 681 -292 879 -292 q 517 -268 611 -292 l 558 -40 q 618 -48 595 -48 q 728 76 695 -48 q 762 456 762 201 q 582 754 762 754 q 460 714 511 754 q 410 625 410 675 l 410 0 l 103 0 l 103 994 l 392 994 l 392 877 l 395 877 "},"╩":{"x_min":-14.25,"x_max":1000.375,"ha":986,"o":"m 423 491 l -14 491 l -14 609 l 304 609 l 304 1264 l 423 1264 l 423 491 m 1000 491 l 562 491 l 562 1264 l 680 1264 l 680 609 l 1000 609 l 1000 491 m 1000 233 l -14 233 l -14 352 l 1000 352 l 1000 233 "},"Ũ":{"x_min":102,"x_max":1055,"ha":1157,"o":"m 748 994 l 1055 994 l 1055 401 q 1027 235 1055 313 q 941 98 1000 157 q 818 16 882 39 q 603 -17 728 -17 q 444 -6 530 -17 q 301 33 359 3 q 195 119 243 63 q 130 233 148 174 q 102 401 102 328 l 102 994 l 409 994 l 409 387 q 454 260 409 306 q 578 215 499 215 q 703 260 658 215 q 748 387 748 305 l 748 994 m 716 1254 l 823 1254 q 823 1223 823 1236 q 785 1107 823 1148 q 688 1066 747 1066 q 556 1101 644 1066 q 483 1123 503 1123 q 452 1110 463 1123 q 441 1068 441 1098 l 335 1068 q 334 1096 334 1084 q 374 1211 334 1168 q 469 1254 414 1254 q 513 1248 492 1254 q 591 1219 534 1243 q 673 1196 648 1196 q 703 1208 692 1196 q 716 1254 714 1220 "},"Щ":{"x_min":104,"x_max":1547,"ha":1581,"o":"m 1547 -216 l 1300 -216 l 1300 0 l 104 0 l 104 994 l 411 994 l 411 244 l 617 244 l 617 994 l 924 994 l 924 244 l 1134 244 l 1134 994 l 1441 994 l 1441 229 l 1547 229 l 1547 -216 "},"L":{"x_min":102,"x_max":888,"ha":926,"o":"m 102 994 l 409 994 l 409 245 l 888 245 l 888 0 l 102 0 l 102 994 "},";":{"x_min":84,"x_max":379,"ha":463,"o":"m 84 720 l 379 720 l 379 443 l 84 443 l 84 720 m 84 274 l 379 274 l 379 46 q 326 -150 379 -78 q 148 -279 274 -223 l 84 -158 q 192 -85 162 -121 q 225 0 221 -49 l 84 0 l 84 274 "},"ď":{"x_min":49,"x_max":1148,"ha":1172,"o":"m 841 994 l 841 0 l 582 0 l 582 106 q 483 15 528 38 q 350 -16 423 -16 q 126 95 204 -16 q 49 367 49 207 q 134 641 49 546 q 352 736 220 736 q 468 714 416 736 q 562 649 521 692 l 562 994 l 841 994 m 564 362 q 528 488 564 446 q 437 530 492 530 q 357 490 389 530 q 325 355 325 450 q 358 226 325 267 q 441 186 391 186 q 528 227 493 186 q 564 362 564 268 m 965 994 l 1148 994 l 1148 861 q 1117 745 1148 788 q 1013 671 1087 703 l 965 741 q 1048 834 1047 777 l 965 834 l 965 994 "},"Ο":{"x_min":63,"x_max":1093,"ha":1157,"o":"m 63 496 q 198 875 63 739 q 576 1011 334 1011 q 958 877 824 1011 q 1093 504 1093 744 q 1034 218 1093 330 q 864 45 975 107 q 588 -17 753 -17 q 310 36 420 -17 q 131 206 199 90 q 63 496 63 322 m 370 494 q 425 278 370 344 q 578 213 481 213 q 731 277 677 213 q 786 508 786 341 q 729 713 786 648 q 575 778 672 778 q 426 712 482 778 q 370 494 370 646 "},"Ĭ":{"x_min":40,"x_max":503,"ha":541,"o":"m 114 994 l 422 994 l 422 0 l 114 0 l 114 994 m 391 1271 l 503 1271 q 472 1162 498 1206 q 392 1092 446 1118 q 276 1066 338 1066 q 111 1119 173 1066 q 40 1271 50 1173 l 157 1271 q 195 1214 170 1231 q 270 1198 220 1198 q 354 1214 329 1198 q 391 1271 380 1231 "},"♪":{"x_min":16.953125,"x_max":1053.28125,"ha":1070,"o":"m 627 1041 l 668 1041 q 916 831 779 973 q 1053 638 1053 689 q 1039 608 1053 627 q 1013 588 1026 588 q 970 618 994 588 q 838 747 933 663 q 674 874 743 831 l 691 -56 q 643 -187 691 -139 q 496 -277 594 -236 q 298 -318 397 -318 q 93 -252 169 -318 q 16 -96 16 -186 q 127 92 16 11 q 379 174 237 174 q 648 110 510 174 l 627 1041 "},"ŧ":{"x_min":36,"x_max":577,"ha":617,"o":"m 577 5 q 384 -17 477 -17 q 228 12 281 -17 q 156 99 175 42 q 138 264 138 156 l 138 286 l 36 286 l 36 436 l 138 436 l 138 518 l 36 518 l 36 720 l 138 720 l 138 852 l 414 994 l 414 720 l 566 720 l 566 518 l 414 518 l 414 436 l 533 436 l 533 286 l 414 286 l 414 263 q 429 193 414 208 q 471 179 445 179 q 555 197 505 179 l 577 5 "},"À":{"x_min":2,"x_max":1084,"ha":1080,"o":"m 712 164 l 364 164 l 315 0 l 2 0 l 375 994 l 711 994 l 1084 0 l 762 0 l 712 164 m 648 379 l 539 736 l 430 379 l 648 379 m 311 1257 l 546 1257 l 657 1055 l 527 1055 l 311 1257 "},"Ϊ":{"x_min":37,"x_max":502,"ha":541,"o":"m 114 994 l 422 994 l 422 0 l 114 0 l 114 994 m 37 1227 l 213 1227 l 213 1057 l 37 1057 l 37 1227 m 324 1227 l 502 1227 l 502 1057 l 324 1057 l 324 1227 "},"½":{"x_min":107,"x_max":1350,"ha":1389,"o":"m 436 1011 l 436 502 l 260 502 l 260 806 q 191 772 222 784 q 107 751 160 761 l 107 891 q 301 1011 231 921 l 436 1011 m 929 1011 l 1075 1011 l 449 -36 l 305 -36 l 929 1011 m 1350 -20 l 828 -20 q 882 85 844 41 q 1050 216 920 130 q 1146 291 1125 267 q 1166 335 1166 316 q 1150 369 1166 356 q 1103 382 1135 382 q 1047 363 1070 382 q 1015 305 1025 345 l 848 319 q 880 400 860 373 q 966 464 909 440 q 1110 489 1023 489 q 1290 444 1233 489 q 1348 336 1348 399 q 1319 250 1348 290 q 1222 171 1290 210 q 1113 104 1155 131 l 1350 104 l 1350 -20 "},"╛":{"x_min":-14.25,"x_max":552.078125,"ha":986,"o":"m 552 233 l -14 233 l -14 352 l 433 352 l 433 491 l -14 491 l -14 609 l 433 609 l 433 1264 l 552 1264 l 552 233 "},"╜":{"x_min":-14.25,"x_max":680.9375,"ha":986,"o":"m 680 362 l -14 362 l -14 480 l 304 480 l 304 1264 l 423 1264 l 423 480 l 562 480 l 562 1264 l 680 1264 l 680 362 "},"'":{"x_min":58,"x_max":333,"ha":386,"o":"m 58 994 l 333 994 l 333 829 l 289 628 l 102 628 l 58 829 l 58 994 "},"ĳ":{"x_min":93,"x_max":835,"ha":928,"o":"m 835 806 l 558 806 l 558 994 l 835 994 l 835 806 m 370 806 l 93 806 l 93 994 l 370 994 l 370 806 m 835 22 q 823 -140 835 -77 q 758 -247 811 -203 q 594 -292 706 -292 q 396 -268 505 -292 l 437 -68 q 486 -76 475 -76 q 541 -48 525 -76 q 558 45 558 -20 l 558 720 l 835 720 l 835 22 m 370 0 l 93 0 l 93 720 l 370 720 l 370 0 "},"╟":{"x_min":305.203125,"x_max":1001.0625,"ha":986,"o":"m 562 -421 l 562 1264 l 681 1264 l 681 480 l 1001 480 l 1001 362 l 681 362 l 681 -421 l 562 -421 m 305 -421 l 305 1264 l 423 1264 l 423 -421 l 305 -421 "},"Р":{"x_min":100,"x_max":944,"ha":1003,"o":"m 100 994 l 610 994 q 860 914 777 994 q 944 688 944 835 q 853 453 944 538 q 577 369 762 369 l 409 369 l 409 0 l 100 0 l 100 994 m 409 570 l 484 570 q 609 600 573 570 q 645 679 645 631 q 613 759 645 726 q 496 792 582 792 l 409 792 l 409 570 "},"˛":{"x_min":103,"x_max":419,"ha":463,"o":"m 135 18 l 250 18 q 237 -79 237 -40 q 262 -157 237 -131 q 332 -184 287 -184 q 419 -166 364 -184 l 419 -271 q 274 -303 334 -303 q 148 -259 193 -303 q 103 -144 103 -216 q 135 18 103 -83 "},"♂":{"x_min":71.890625,"x_max":882.375,"ha":931,"o":"m 753 930 l 773 923 q 882 506 796 680 l 865 495 q 714 777 764 623 l 514 346 q 651 236 589 318 q 712 54 712 155 q 622 -151 712 -72 q 401 -229 532 -229 q 167 -139 263 -229 q 71 80 71 -48 q 160 294 71 207 q 368 381 248 381 q 483 358 419 381 l 682 790 q 372 719 537 729 l 372 737 q 548 804 488 773 q 753 930 608 836 m 362 349 q 179 274 257 349 q 101 85 101 198 q 179 -99 101 -23 q 366 -175 257 -175 q 551 -98 476 -175 q 627 82 627 -21 q 548 271 627 193 q 362 349 468 349 "},"⁷":{"x_min":54,"x_max":504,"ha":555,"o":"m 504 914 q 328 489 351 773 l 150 489 q 333 892 175 700 l 54 892 l 54 1011 l 504 1011 l 504 914 "},"╨":{"x_min":-14.25,"x_max":1000.375,"ha":986,"o":"m 1000 362 l -14 362 l -14 480 l 304 480 l 304 1264 l 423 1264 l 423 480 l 562 480 l 562 1264 l 680 1264 l 680 480 l 1000 480 l 1000 362 "},"Ć":{"x_min":66,"x_max":1033,"ha":1080,"o":"m 764 407 l 1033 325 q 947 136 1005 212 q 802 21 889 60 q 582 -17 716 -17 q 317 30 420 -17 q 140 195 215 77 q 66 499 66 314 q 197 878 66 746 q 568 1011 328 1011 q 864 934 756 1011 q 1024 701 971 858 l 753 641 q 723 707 738 686 q 659 761 697 742 q 576 781 622 781 q 416 697 471 781 q 374 501 374 634 q 424 275 374 336 q 565 214 474 214 q 698 263 653 214 q 764 407 743 312 m 563 1257 l 800 1257 l 581 1054 l 449 1054 l 563 1257 "},"Т":{"x_min":32,"x_max":965,"ha":1003,"o":"m 32 994 l 965 994 l 965 748 l 652 748 l 652 0 l 345 0 l 345 748 l 32 748 l 32 994 "},"£":{"x_min":77,"x_max":919,"ha":926,"o":"m 458 573 l 664 573 l 664 411 l 482 411 q 460 307 478 353 q 413 234 446 271 q 478 243 451 243 q 568 229 513 243 q 689 212 644 212 q 754 218 727 212 q 826 245 782 224 l 919 42 q 801 -4 851 8 q 692 -17 750 -17 q 546 5 628 -17 q 412 40 438 35 q 357 45 387 45 q 164 -17 269 45 l 77 176 q 219 380 219 278 q 217 411 219 385 l 77 411 l 77 573 l 177 573 q 148 676 151 662 q 144 730 144 698 q 189 882 144 815 q 307 980 234 949 q 506 1011 381 1011 q 690 984 622 1011 q 806 898 759 958 q 871 751 853 837 l 612 711 q 566 807 592 783 q 509 831 541 831 q 445 805 469 831 q 421 731 421 779 q 425 683 421 706 q 458 573 430 659 "},"ů":{"x_min":81,"x_max":842,"ha":926,"o":"m 842 0 l 584 0 l 584 117 q 468 14 526 45 q 324 -16 409 -16 q 145 52 210 -16 q 81 261 81 120 l 81 720 l 358 720 l 358 324 q 383 228 358 256 q 453 200 408 200 q 534 237 502 200 q 566 374 566 275 l 566 720 l 842 720 l 842 0 m 626 951 q 578 835 626 883 q 462 788 530 788 q 346 835 394 788 q 299 951 299 883 q 346 1067 299 1019 q 462 1115 394 1115 q 578 1067 530 1115 q 626 951 626 1019 m 532 952 q 511 1001 532 981 q 462 1022 491 1022 q 412 1001 432 1022 q 392 952 392 981 q 412 902 392 922 q 462 882 432 882 q 511 902 491 882 q 532 952 532 922 "},"Ō":{"x_min":63,"x_max":1093,"ha":1157,"o":"m 63 496 q 198 875 63 739 q 576 1011 334 1011 q 958 877 824 1011 q 1093 504 1093 744 q 1034 218 1093 330 q 864 45 975 107 q 588 -17 753 -17 q 310 36 420 -17 q 131 206 199 90 q 63 496 63 322 m 370 494 q 425 278 370 344 q 578 213 481 213 q 731 277 677 213 q 786 508 786 341 q 729 713 786 648 q 575 778 672 778 q 426 712 482 778 q 370 494 370 646 m 359 1212 l 798 1212 l 798 1065 l 359 1065 l 359 1212 "},"а":{"x_min":50,"x_max":878.59375,"ha":926,"o":"m 336 487 l 72 515 q 115 623 86 583 q 195 692 143 663 q 300 724 233 713 q 443 736 366 736 q 642 722 567 736 q 768 664 718 708 q 823 577 803 633 q 844 471 844 521 l 844 153 q 850 73 844 102 q 878 0 856 44 l 619 0 q 599 42 603 27 q 589 88 594 56 q 481 13 535 36 q 312 -16 408 -16 q 116 43 183 -16 q 50 190 50 103 q 98 325 50 272 q 275 404 146 378 q 476 448 430 435 q 574 481 522 460 q 553 551 574 531 q 479 572 532 572 q 378 550 412 572 q 336 487 352 533 m 574 342 q 455 306 517 321 q 349 261 372 283 q 327 210 327 239 q 349 157 327 178 q 416 137 372 137 q 501 159 461 137 q 557 214 540 181 q 574 297 574 246 l 574 342 "},"Ğ":{"x_min":64,"x_max":1076,"ha":1157,"o":"m 602 360 l 602 567 l 1076 567 l 1076 143 q 835 16 939 50 q 586 -17 730 -17 q 298 43 409 -17 q 125 223 186 103 q 64 497 64 342 q 131 780 64 659 q 327 962 198 900 q 599 1011 428 1011 q 845 981 763 1011 q 981 888 927 951 q 1062 729 1034 826 l 766 677 q 704 763 747 733 q 592 793 660 793 q 431 722 491 793 q 372 500 372 652 q 432 270 372 339 q 601 201 493 201 q 699 215 653 201 q 807 266 746 230 l 807 360 l 602 360 m 697 1257 l 809 1257 q 778 1148 804 1192 q 698 1078 752 1104 q 582 1052 644 1052 q 417 1105 479 1052 q 346 1257 356 1159 l 463 1257 q 501 1200 476 1217 q 576 1184 526 1184 q 660 1200 635 1184 q 697 1257 686 1217 "},"v":{"x_min":1,"x_max":852,"ha":848,"o":"m 1 720 l 288 720 l 428 263 l 573 720 l 852 720 l 545 0 l 300 0 l 1 720 "},"Ї":{"x_min":37,"x_max":502,"ha":541,"o":"m 114 994 l 422 994 l 422 0 l 114 0 l 114 994 m 37 1227 l 213 1227 l 213 1057 l 37 1057 l 37 1227 m 324 1227 l 502 1227 l 502 1057 l 324 1057 l 324 1227 "},"û":{"x_min":81,"x_max":842,"ha":926,"o":"m 842 0 l 584 0 l 584 117 q 468 14 526 45 q 324 -16 409 -16 q 145 52 210 -16 q 81 261 81 120 l 81 720 l 358 720 l 358 324 q 383 228 358 256 q 453 200 408 200 q 534 237 502 200 q 566 374 566 275 l 566 720 l 842 720 l 842 0 m 367 1002 l 563 1002 l 714 808 l 545 808 l 463 911 l 380 808 l 212 808 l 367 1002 "},"Ź":{"x_min":23,"x_max":966,"ha":1003,"o":"m 77 994 l 946 994 l 946 795 l 388 214 l 966 214 l 966 0 l 23 0 l 23 206 l 574 782 l 77 782 l 77 994 m 494 1263 l 731 1263 l 512 1060 l 380 1060 l 494 1263 "},"╒":{"x_min":434.0625,"x_max":1001.0625,"ha":986,"o":"m 434 -421 l 434 609 l 1001 609 l 1001 491 l 552 491 l 552 352 l 1001 352 l 1001 233 l 552 233 l 552 -421 l 434 -421 "},"ˉ":{"x_min":12,"x_max":451,"ha":463,"o":"m 12 981 l 451 981 l 451 834 l 12 834 l 12 981 "},"Ĺ":{"x_min":102,"x_max":888,"ha":926,"o":"m 102 994 l 409 994 l 409 245 l 888 245 l 888 0 l 102 0 l 102 994 m 490 1263 l 727 1263 l 508 1060 l 376 1060 l 490 1263 "},"₤":{"x_min":71,"x_max":919,"ha":926,"o":"m 919 42 q 691 -17 807 -17 q 539 7 628 -17 q 419 38 450 31 q 357 45 389 45 q 164 -17 266 45 l 78 175 q 212 341 183 252 l 71 341 l 71 435 l 211 435 q 200 504 206 485 l 71 504 l 71 599 l 172 599 q 145 730 145 666 q 200 897 145 830 q 325 987 256 964 q 507 1011 393 1011 q 649 997 582 1011 q 782 926 716 983 q 872 751 847 869 l 612 711 q 510 831 581 831 q 446 804 470 831 q 423 731 423 778 q 451 599 423 674 l 658 599 l 658 504 l 482 504 q 477 435 482 474 l 658 435 l 658 341 l 459 341 q 413 235 442 269 l 416 233 q 479 243 452 243 q 531 238 513 243 q 599 222 549 233 q 691 211 650 211 q 827 244 759 211 l 919 42 "},"┐":{"x_min":-14.25,"x_max":552.078125,"ha":986,"o":"m 433 362 l -14 362 l -14 480 l 552 480 l 552 -421 l 433 -421 l 433 362 "},"Č":{"x_min":66,"x_max":1033,"ha":1080,"o":"m 764 407 l 1033 325 q 947 136 1005 212 q 802 21 889 60 q 582 -17 716 -17 q 317 30 420 -17 q 140 195 215 77 q 66 499 66 314 q 197 878 66 746 q 568 1011 328 1011 q 864 934 756 1011 q 1024 701 971 858 l 753 641 q 723 707 738 686 q 659 761 697 742 q 576 781 622 781 q 416 697 471 781 q 374 501 374 634 q 424 275 374 336 q 565 214 474 214 q 698 263 653 214 q 764 407 743 312 m 664 1054 l 469 1054 l 319 1248 l 486 1248 l 569 1144 l 651 1248 l 821 1248 l 664 1054 "},"x":{"x_min":8,"x_max":919,"ha":926,"o":"m 22 720 l 350 720 l 463 519 l 596 720 l 901 720 l 655 376 l 919 0 l 597 0 l 463 231 l 307 0 l 8 0 l 269 376 l 22 720 "},"è":{"x_min":49,"x_max":883,"ha":926,"o":"m 883 292 l 330 292 q 365 192 337 225 q 469 146 405 146 q 547 166 510 146 q 595 212 569 179 l 867 187 q 716 31 804 78 q 463 -16 628 -16 q 238 24 320 -16 q 102 152 156 64 q 49 358 49 240 q 157 631 49 527 q 455 736 265 736 q 699 689 610 736 q 836 553 789 642 q 883 323 883 465 l 883 292 m 602 424 q 559 538 593 503 q 467 573 524 573 q 362 520 401 573 q 330 424 337 488 l 602 424 m 234 1011 l 469 1011 l 580 809 l 450 809 l 234 1011 "},"Ń":{"x_min":104,"x_max":1055,"ha":1157,"o":"m 104 994 l 390 994 l 765 444 l 765 994 l 1055 994 l 1055 0 l 765 0 l 393 546 l 393 0 l 104 0 l 104 994 m 571 1263 l 808 1263 l 589 1060 l 457 1060 l 571 1263 "},"μ":{"x_min":81,"x_max":843,"ha":926,"o":"m 843 0 l 583 0 l 583 57 q 472 -16 539 -16 q 357 52 390 -16 l 357 -272 l 81 -272 l 81 720 l 357 720 l 357 358 q 362 279 357 310 q 391 225 368 249 q 464 201 415 201 q 540 232 514 201 q 567 366 567 264 l 567 720 l 843 720 l 843 0 "},".":{"x_min":84,"x_max":379,"ha":463,"o":"m 84 277 l 379 277 l 379 0 l 84 0 l 84 277 "},"‘":{"x_min":47,"x_max":342,"ha":386,"o":"m 342 458 l 47 458 l 47 685 q 99 882 47 810 q 278 1011 151 955 l 342 890 q 234 817 264 853 q 201 732 204 781 l 342 732 l 342 458 "},"π":{"x_min":14,"x_max":970,"ha":982,"o":"m 970 519 l 879 519 l 879 0 l 603 0 l 603 519 l 394 519 l 394 0 l 117 0 l 117 519 l 14 519 l 14 720 l 970 720 l 970 519 "},"║":{"x_min":305.203125,"x_max":681.609375,"ha":986,"o":"m 562 -421 l 562 1264 l 681 1264 l 681 -421 l 562 -421 m 305 -421 l 305 1264 l 423 1264 l 423 -421 l 305 -421 "},"9":{"x_min":48,"x_max":867,"ha":926,"o":"m 69 223 l 344 258 q 380 176 354 200 q 443 153 406 153 q 547 220 510 153 q 588 429 574 269 q 486 354 538 378 q 365 331 434 331 q 139 425 231 331 q 48 665 48 520 q 94 846 48 764 q 223 969 141 927 q 429 1011 305 1011 q 669 959 578 1011 q 813 797 759 908 q 867 502 867 685 q 753 108 867 233 q 439 -17 640 -17 q 252 10 321 -17 q 138 91 184 38 q 69 223 93 143 m 577 666 q 537 793 577 747 q 437 839 496 839 q 346 797 382 839 q 310 673 310 756 q 347 546 310 590 q 441 502 385 502 q 539 544 500 502 q 577 666 577 587 "},"l":{"x_min":93,"x_max":370,"ha":463,"o":"m 93 994 l 370 994 l 370 0 l 93 0 l 93 994 "},"Ъ":{"x_min":34,"x_max":1335,"ha":1392,"o":"m 726 604 l 890 604 q 1335 283 1335 604 q 1271 105 1335 182 q 1090 13 1208 27 q 947 0 971 0 l 419 0 l 419 793 l 34 793 l 34 994 l 726 994 l 726 604 m 726 214 l 883 214 q 1028 318 1028 214 q 883 416 1028 416 l 726 416 l 726 214 "},"Ś":{"x_min":48,"x_max":950,"ha":1003,"o":"m 48 328 l 340 347 q 378 238 349 275 q 514 178 426 178 q 616 208 580 178 q 652 280 652 239 q 617 349 652 319 q 460 407 583 380 q 171 528 258 452 q 85 720 85 603 q 129 864 85 796 q 262 972 173 933 q 507 1011 352 1011 q 798 940 697 1011 q 917 714 898 869 l 627 698 q 578 795 615 765 q 476 826 541 826 q 396 803 423 826 q 369 747 369 780 q 391 705 369 724 q 494 668 413 685 q 783 580 696 625 q 910 470 870 536 q 950 323 950 404 q 897 147 950 227 q 749 24 844 66 q 509 -17 654 -17 q 158 80 256 -17 q 48 328 60 178 m 496 1263 l 733 1263 l 514 1060 l 382 1060 l 496 1263 "},"Ü":{"x_min":102,"x_max":1055,"ha":1157,"o":"m 748 994 l 1055 994 l 1055 401 q 1027 235 1055 313 q 941 98 1000 157 q 818 16 882 39 q 603 -17 728 -17 q 444 -6 530 -17 q 301 33 359 3 q 195 119 243 63 q 130 233 148 174 q 102 401 102 328 l 102 994 l 409 994 l 409 387 q 454 260 409 306 q 578 215 499 215 q 703 260 658 215 q 748 387 748 305 l 748 994 m 346 1227 l 522 1227 l 522 1057 l 346 1057 l 346 1227 m 633 1227 l 811 1227 l 811 1057 l 633 1057 l 633 1227 "},"à":{"x_min":50,"x_max":878.59375,"ha":926,"o":"m 336 487 l 72 515 q 115 623 86 583 q 195 692 143 663 q 300 724 233 713 q 443 736 366 736 q 642 722 567 736 q 768 664 718 708 q 823 577 803 633 q 844 471 844 521 l 844 153 q 850 73 844 102 q 878 0 856 44 l 619 0 q 599 42 603 27 q 589 88 594 56 q 481 13 535 36 q 312 -16 408 -16 q 116 43 183 -16 q 50 190 50 103 q 98 325 50 272 q 275 404 146 378 q 476 448 430 435 q 574 481 522 460 q 553 551 574 531 q 479 572 532 572 q 378 550 412 572 q 336 487 352 533 m 574 342 q 455 306 517 321 q 349 261 372 283 q 327 210 327 239 q 349 157 327 178 q 416 137 372 137 q 501 159 461 137 q 557 214 540 181 q 574 297 574 246 l 574 342 m 234 1011 l 469 1011 l 580 809 l 450 809 l 234 1011 "},"η":{"x_min":83,"x_max":845,"ha":926,"o":"m 845 -275 l 569 -275 l 569 396 q 471 521 569 521 q 388 481 417 521 q 359 345 359 441 l 359 0 l 83 0 l 83 720 l 341 720 l 341 603 l 344 603 q 600 736 436 736 q 783 664 721 736 q 845 458 845 592 l 845 -275 "},"ó":{"x_min":50,"x_max":876,"ha":926,"o":"m 50 357 q 161 629 50 522 q 460 736 272 736 q 787 610 676 736 q 876 362 876 509 q 765 90 876 196 q 461 -16 655 -16 q 181 72 288 -16 q 50 357 50 181 m 327 358 q 365 216 327 262 q 463 171 404 171 q 560 216 522 171 q 599 361 599 261 q 560 500 599 454 q 465 546 522 546 q 366 499 405 546 q 327 358 327 453 m 456 1011 l 693 1011 l 474 808 l 342 808 l 456 1011 "},"¦":{"x_min":109,"x_max":282,"ha":386,"o":"m 109 994 l 282 994 l 282 468 l 109 468 l 109 994 m 109 253 l 282 253 l 282 -274 l 109 -274 l 109 253 "},"▒":{"x_min":0,"x_max":981,"ha":984,"o":"m 81 1264 l 163 1264 l 163 1180 l 81 1180 l 81 1264 m 245 1264 l 327 1264 l 327 1180 l 245 1180 l 245 1264 m 409 1264 l 491 1264 l 491 1180 l 409 1180 l 409 1264 m 572 1264 l 654 1264 l 654 1180 l 572 1180 l 572 1264 m 736 1264 l 818 1264 l 818 1180 l 736 1180 l 736 1264 m 899 1264 l 981 1264 l 981 1180 l 899 1180 l 899 1264 m 0 1095 l 82 1095 l 82 1011 l 0 1011 l 0 1095 m 163 1095 l 245 1095 l 245 1011 l 163 1011 l 163 1095 m 327 1095 l 409 1095 l 409 1011 l 327 1011 l 327 1095 m 491 1095 l 573 1095 l 573 1011 l 491 1011 l 491 1095 m 654 1095 l 736 1095 l 736 1011 l 654 1011 l 654 1095 m 818 1095 l 900 1095 l 900 1011 l 818 1011 l 818 1095 m 81 926 l 163 926 l 163 842 l 81 842 l 81 926 m 245 926 l 327 926 l 327 842 l 245 842 l 245 926 m 409 926 l 491 926 l 491 842 l 409 842 l 409 926 m 572 926 l 654 926 l 654 842 l 572 842 l 572 926 m 736 926 l 818 926 l 818 842 l 736 842 l 736 926 m 899 926 l 981 926 l 981 842 l 899 842 l 899 926 m 163 757 l 245 757 l 245 673 l 163 673 l 163 757 m 327 757 l 409 757 l 409 673 l 327 673 l 327 757 m 491 757 l 573 757 l 573 673 l 491 673 l 491 757 m 654 757 l 736 757 l 736 673 l 654 673 l 654 757 m 818 757 l 900 757 l 900 673 l 818 673 l 818 757 m 0 757 l 82 757 l 82 673 l 0 673 l 0 757 m 81 588 l 163 588 l 163 504 l 81 504 l 81 588 m 245 588 l 327 588 l 327 504 l 245 504 l 245 588 m 409 588 l 491 588 l 491 504 l 409 504 l 409 588 m 572 588 l 654 588 l 654 504 l 572 504 l 572 588 m 736 588 l 818 588 l 818 504 l 736 504 l 736 588 m 899 588 l 981 588 l 981 504 l 899 504 l 899 588 m 0 419 l 82 419 l 82 335 l 0 335 l 0 419 m 327 419 l 409 419 l 409 335 l 327 335 l 327 419 m 491 419 l 573 419 l 573 335 l 491 335 l 491 419 m 654 419 l 736 419 l 736 335 l 654 335 l 654 419 m 818 419 l 900 419 l 900 335 l 818 335 l 818 419 m 163 419 l 245 419 l 245 335 l 163 335 l 163 419 m 899 250 l 981 250 l 981 166 l 899 166 l 899 250 m 736 250 l 818 250 l 818 166 l 736 166 l 736 250 m 572 250 l 654 250 l 654 166 l 572 166 l 572 250 m 409 250 l 491 250 l 491 166 l 409 166 l 409 250 m 245 250 l 327 250 l 327 166 l 245 166 l 245 250 m 81 250 l 163 250 l 163 166 l 81 166 l 81 250 m 0 81 l 82 81 l 82 -3 l 0 -3 l 0 81 m 163 81 l 245 81 l 245 -3 l 163 -3 l 163 81 m 327 81 l 409 81 l 409 -3 l 327 -3 l 327 81 m 491 81 l 573 81 l 573 -3 l 491 -3 l 491 81 m 654 81 l 736 81 l 736 -3 l 654 -3 l 654 81 m 818 81 l 900 81 l 900 -3 l 818 -3 l 818 81 m 899 -88 l 981 -88 l 981 -172 l 899 -172 l 899 -88 m 736 -88 l 818 -88 l 818 -172 l 736 -172 l 736 -88 m 572 -88 l 654 -88 l 654 -172 l 572 -172 l 572 -88 m 409 -88 l 491 -88 l 491 -172 l 409 -172 l 409 -88 m 245 -88 l 327 -88 l 327 -172 l 245 -172 l 245 -88 m 81 -88 l 163 -88 l 163 -172 l 81 -172 l 81 -88 m 0 -257 l 82 -257 l 82 -341 l 0 -341 l 0 -257 m 163 -257 l 245 -257 l 245 -341 l 163 -341 l 163 -257 m 327 -257 l 409 -257 l 409 -341 l 327 -341 l 327 -257 m 491 -257 l 573 -257 l 573 -341 l 491 -341 l 491 -257 m 654 -257 l 736 -257 l 736 -341 l 654 -341 l 654 -257 m 818 -257 l 900 -257 l 900 -341 l 818 -341 l 818 -257 "},"Ő":{"x_min":63,"x_max":1093,"ha":1157,"o":"m 63 496 q 198 875 63 739 q 576 1011 334 1011 q 958 877 824 1011 q 1093 504 1093 744 q 1034 218 1093 330 q 864 45 975 107 q 588 -17 753 -17 q 310 36 420 -17 q 131 206 199 90 q 63 496 63 322 m 370 494 q 425 278 370 344 q 578 213 481 213 q 731 277 677 213 q 786 508 786 341 q 729 713 786 648 q 575 778 672 778 q 426 712 482 778 q 370 494 370 646 m 431 1263 l 651 1263 l 451 1063 l 317 1063 l 431 1263 m 701 1263 l 923 1263 l 719 1063 l 589 1063 l 701 1263 "},"Ž":{"x_min":23,"x_max":966,"ha":1003,"o":"m 77 994 l 946 994 l 946 795 l 388 214 l 966 214 l 966 0 l 23 0 l 23 206 l 574 782 l 77 782 l 77 994 m 598 1054 l 403 1054 l 253 1248 l 420 1248 l 503 1144 l 585 1248 l 755 1248 l 598 1054 "},"е":{"x_min":49,"x_max":883,"ha":926,"o":"m 883 292 l 330 292 q 365 192 337 225 q 469 146 405 146 q 547 166 510 146 q 595 212 569 179 l 867 187 q 716 31 804 78 q 463 -16 628 -16 q 238 24 320 -16 q 102 152 156 64 q 49 358 49 240 q 157 631 49 527 q 455 736 265 736 q 699 689 610 736 q 836 553 789 642 q 883 323 883 465 l 883 292 m 602 424 q 559 538 593 503 q 467 573 524 573 q 362 520 401 573 q 330 424 337 488 l 602 424 "},"Î":{"x_min":19,"x_max":521,"ha":541,"o":"m 114 994 l 422 994 l 422 0 l 114 0 l 114 994 m 174 1248 l 370 1248 l 521 1054 l 352 1054 l 270 1157 l 187 1054 l 19 1054 l 174 1248 "},"e":{"x_min":49,"x_max":883,"ha":926,"o":"m 883 292 l 330 292 q 365 192 337 225 q 469 146 405 146 q 547 166 510 146 q 595 212 569 179 l 867 187 q 716 31 804 78 q 463 -16 628 -16 q 238 24 320 -16 q 102 152 156 64 q 49 358 49 240 q 157 631 49 527 q 455 736 265 736 q 699 689 610 736 q 836 553 789 642 q 883 323 883 465 l 883 292 m 602 424 q 559 538 593 503 q 467 573 524 573 q 362 520 401 573 q 330 424 337 488 l 602 424 "},"ό":{"x_min":50,"x_max":876,"ha":926,"o":"m 50 357 q 161 629 50 522 q 460 736 272 736 q 787 610 676 736 q 876 362 876 509 q 765 90 876 196 q 461 -16 655 -16 q 181 72 288 -16 q 50 357 50 181 m 327 358 q 365 216 327 262 q 463 171 404 171 q 560 216 522 171 q 599 361 599 261 q 560 500 599 454 q 465 546 522 546 q 366 499 405 546 q 327 358 327 453 m 623 994 l 501 791 l 369 791 l 413 994 l 623 994 "},"Ĕ":{"x_min":101,"x_max":939,"ha":1003,"o":"m 101 994 l 924 994 l 924 782 l 409 782 l 409 624 l 887 624 l 887 421 l 409 421 l 409 225 l 939 225 l 939 0 l 101 0 l 101 994 m 632 1269 l 744 1269 q 713 1160 739 1204 q 633 1090 687 1116 q 517 1064 579 1064 q 352 1117 414 1064 q 281 1269 291 1171 l 398 1269 q 436 1212 411 1229 q 511 1196 461 1196 q 595 1212 570 1196 q 632 1269 621 1229 "},"ļ":{"x_min":11,"x_max":422,"ha":463,"o":"m 93 994 l 370 994 l 370 0 l 93 0 l 93 994 m 78 -112 l 98 -32 q 217 -17 162 -17 q 377 -56 333 -17 q 422 -148 422 -95 q 401 -215 422 -181 q 330 -271 381 -250 q 193 -292 278 -292 q 11 -274 115 -292 l 11 -191 q 161 -205 81 -205 q 240 -189 219 -205 q 261 -148 261 -173 q 244 -115 261 -129 q 191 -101 227 -101 q 78 -112 143 -101 "},"Ѓ":{"x_min":102,"x_max":889,"ha":926,"o":"m 889 750 l 409 750 l 409 0 l 102 0 l 102 994 l 889 994 l 889 750 m 449 1271 l 686 1271 l 467 1068 l 335 1068 l 449 1271 "},"ò":{"x_min":50,"x_max":876,"ha":926,"o":"m 50 357 q 161 629 50 522 q 460 736 272 736 q 787 610 676 736 q 876 362 876 509 q 765 90 876 196 q 461 -16 655 -16 q 181 72 288 -16 q 50 357 50 181 m 327 358 q 365 216 327 262 q 463 171 404 171 q 560 216 522 171 q 599 361 599 261 q 560 500 599 454 q 465 546 522 546 q 366 499 405 546 q 327 358 327 453 m 234 1011 l 469 1011 l 580 809 l 450 809 l 234 1011 "},"^":{"x_min":85,"x_max":827,"ha":917,"o":"m 361 1011 l 550 1011 l 827 460 l 587 460 l 457 792 l 324 460 l 85 460 l 361 1011 "},"∙":{"x_min":84,"x_max":379,"ha":463,"o":"m 84 636 l 379 636 l 379 359 l 84 359 l 84 636 "},"ⁿ":{"x_min":47,"x_max":564,"ha":606,"o":"m 564 505 l 378 505 l 378 773 q 312 860 378 860 q 234 739 234 860 l 234 505 l 47 505 l 47 994 l 220 994 l 220 914 l 225 914 q 400 1006 286 1006 q 522 956 481 1006 q 564 816 564 907 l 564 505 "},"к":{"x_min":83,"x_max":885,"ha":892,"o":"m 885 0 l 573 0 l 467 198 q 418 258 442 246 q 359 271 394 271 l 359 0 l 83 0 l 83 720 l 359 720 l 359 460 q 409 482 392 463 q 456 565 425 501 q 511 660 487 630 q 574 704 536 690 q 669 723 612 719 q 839 728 726 728 l 839 532 l 826 532 q 741 527 771 532 q 695 508 712 523 q 654 450 677 494 q 615 389 631 406 q 570 365 600 371 q 659 341 628 360 q 754 216 690 321 l 885 0 "},"ū":{"x_min":81,"x_max":842,"ha":926,"o":"m 842 0 l 584 0 l 584 117 q 468 14 526 45 q 324 -16 409 -16 q 145 52 210 -16 q 81 261 81 120 l 81 720 l 358 720 l 358 324 q 383 228 358 256 q 453 200 408 200 q 534 237 502 200 q 566 374 566 275 l 566 720 l 842 720 l 842 0 m 241 981 l 680 981 l 680 834 l 241 834 l 241 981 "},"ˆ":{"x_min":-19,"x_max":483,"ha":463,"o":"m 136 1002 l 332 1002 l 483 808 l 314 808 l 232 911 l 149 808 l -19 808 l 136 1002 "},"Ẅ":{"x_min":0,"x_max":1390,"ha":1389,"o":"m 0 994 l 291 994 l 397 441 l 550 994 l 840 994 l 994 440 l 1099 994 l 1390 994 l 1170 0 l 869 0 l 695 625 l 521 0 l 220 0 l 0 994 m 465 1233 l 641 1233 l 641 1063 l 465 1063 l 465 1233 m 752 1233 l 930 1233 l 930 1063 l 752 1063 l 752 1233 "},"◘":{"x_min":84.09375,"x_max":748.765625,"ha":834,"o":"m 84 0 l 84 664 l 748 664 l 748 0 l 84 0 m 553 332 q 513 428 553 388 q 416 469 473 469 q 320 429 360 469 q 279 332 279 389 q 319 235 279 276 q 416 195 360 195 q 513 236 473 195 q 553 332 553 276 "},"⌂":{"x_min":103.765625,"x_max":729.765625,"ha":834,"o":"m 103 0 l 103 430 l 416 781 l 729 430 l 729 0 l 103 0 m 158 54 l 674 54 l 674 406 l 416 696 l 158 406 l 158 54 "},"č":{"x_min":50,"x_max":883,"ha":926,"o":"m 621 282 l 883 252 q 811 110 861 170 q 685 17 762 50 q 489 -16 608 -16 q 298 5 374 -16 q 167 74 222 26 q 81 186 112 122 q 50 356 50 250 q 88 541 50 467 q 163 638 115 595 q 263 702 212 681 q 470 736 343 736 q 739 673 646 736 q 869 489 831 610 l 609 454 q 564 523 596 500 q 478 547 532 547 q 367 497 409 547 q 325 349 325 448 q 367 214 325 260 q 474 169 409 169 q 565 196 528 169 q 621 282 602 224 m 571 808 l 376 808 l 226 1002 l 393 1002 l 476 898 l 558 1002 l 728 1002 l 571 808 "},"’":{"x_min":47,"x_max":342,"ha":386,"o":"m 47 1011 l 342 1011 l 342 783 q 289 585 342 658 q 111 458 237 512 l 47 578 q 155 651 125 615 q 188 737 184 687 l 47 737 l 47 1011 "},"Ν":{"x_min":104,"x_max":1055,"ha":1157,"o":"m 104 994 l 390 994 l 765 444 l 765 994 l 1055 994 l 1055 0 l 765 0 l 393 546 l 393 0 l 104 0 l 104 994 "},"-":{"x_min":31,"x_max":432,"ha":463,"o":"m 31 470 l 432 470 l 432 256 l 31 256 l 31 470 "},"Q":{"x_min":63,"x_max":1131,"ha":1157,"o":"m 984 145 q 1059 94 1042 105 q 1131 60 1086 80 l 1045 -112 q 918 -37 981 -80 q 830 27 855 5 q 575 -17 728 -17 q 217 100 348 -17 q 63 493 63 240 q 198 875 63 739 q 576 1011 333 1011 q 958 878 823 1011 q 1093 497 1093 745 q 984 145 1093 277 m 749 302 q 786 498 786 368 q 730 713 786 649 q 575 778 674 778 q 427 712 484 778 q 370 507 370 646 q 425 278 370 344 q 578 213 481 213 q 637 219 609 213 q 514 289 598 256 l 563 399 q 626 381 603 392 q 715 324 649 370 q 749 302 730 313 "},"▼":{"x_min":206.1875,"x_max":1169.25,"ha":1375,"o":"m 1169 941 l 687 -21 l 206 941 l 1169 941 "},"ј":{"x_min":-68,"x_max":371,"ha":463,"o":"m 94 994 l 371 994 l 371 804 l 94 804 l 94 994 m 94 720 l 371 720 l 371 21 q 351 -167 371 -111 q 280 -257 332 -222 q 130 -292 227 -292 q -68 -268 50 -292 l -26 -67 q 22 -74 6 -74 q 75 -49 57 -74 q 94 45 94 -25 l 94 720 "},"ě":{"x_min":49,"x_max":883,"ha":926,"o":"m 883 292 l 330 292 q 365 192 337 225 q 469 146 405 146 q 547 166 510 146 q 595 212 569 179 l 867 187 q 716 31 804 78 q 463 -16 628 -16 q 238 24 320 -16 q 102 152 156 64 q 49 358 49 240 q 157 631 49 527 q 455 736 265 736 q 699 689 610 736 q 836 553 789 642 q 883 323 883 465 l 883 292 m 602 424 q 559 538 593 503 q 467 573 524 573 q 362 520 401 573 q 330 424 337 488 l 602 424 m 559 808 l 364 808 l 214 1002 l 381 1002 l 464 898 l 546 1002 l 716 1002 l 559 808 "},"œ":{"x_min":40,"x_max":1351.359375,"ha":1389,"o":"m 1350 296 l 826 296 q 865 181 832 215 q 951 148 898 148 q 1012 163 987 148 q 1063 215 1038 179 l 1329 190 q 1188 36 1283 89 q 962 -16 1093 -16 q 681 63 797 -16 q 558 1 614 19 q 434 -16 502 -16 q 149 92 258 -16 q 40 368 40 200 q 176 660 40 554 q 430 736 273 736 q 564 717 506 736 q 692 652 623 699 q 819 715 755 694 q 962 736 882 736 q 1247 631 1143 736 q 1351 343 1351 527 q 1350 296 1351 327 m 1074 427 q 1034 539 1065 506 q 952 572 1003 572 q 866 537 901 572 q 823 427 832 503 l 1074 427 m 316 368 q 345 226 316 267 q 431 185 375 185 q 519 224 488 185 q 551 376 551 263 q 519 510 551 471 q 441 549 488 549 q 348 509 381 549 q 316 368 316 470 "},"#":{"x_min":41,"x_max":871,"ha":917,"o":"m 171 409 l 205 581 l 41 581 l 41 768 l 243 768 l 292 1011 l 484 1011 l 435 768 l 584 768 l 633 1011 l 826 1011 l 777 768 l 871 768 l 871 581 l 740 581 l 705 409 l 871 409 l 871 222 l 668 222 l 621 -17 l 428 -17 l 475 222 l 325 222 l 277 -17 l 86 -17 l 133 222 l 41 222 l 41 409 l 171 409 m 363 409 l 513 409 l 547 581 l 398 581 l 363 409 "},"Џ":{"x_min":103,"x_max":1054,"ha":1157,"o":"m 1054 0 l 701 0 l 701 -216 l 454 -216 l 454 0 l 103 0 l 103 994 l 410 994 l 410 244 l 747 244 l 747 994 l 1054 994 l 1054 0 "},"Å":{"x_min":2,"x_max":1084,"ha":1080,"o":"m 398 994 q 377 1076 377 1032 q 424 1191 377 1143 q 539 1240 472 1240 q 655 1192 607 1240 q 703 1076 703 1144 q 680 994 703 1032 l 710 994 l 1084 0 l 762 0 l 710 164 l 366 164 l 315 0 l 2 0 l 374 994 l 398 994 m 470 1076 q 490 1026 470 1046 q 539 1006 510 1006 q 588 1026 568 1006 q 609 1076 609 1046 q 588 1125 609 1105 q 539 1146 568 1146 q 490 1125 510 1146 q 470 1076 470 1105 m 641 391 l 539 719 l 437 391 l 641 391 "},"ș":{"x_min":34,"x_max":800,"ha":848,"o":"m 34 200 l 308 226 q 355 156 324 177 q 437 135 386 135 q 523 158 492 135 q 547 202 547 176 q 515 248 547 232 q 397 276 493 260 q 197 323 253 301 q 103 395 141 344 q 65 511 65 446 q 106 633 65 582 q 220 710 147 685 q 415 736 292 736 q 605 716 543 736 q 707 655 666 696 q 776 544 748 614 l 514 518 q 480 568 503 552 q 401 590 447 590 q 333 573 354 590 q 312 533 312 556 q 339 493 312 506 q 456 468 366 479 q 661 425 594 453 q 764 346 728 397 q 800 233 800 295 q 762 112 800 171 q 643 18 724 53 q 422 -16 562 -16 q 141 40 225 -16 q 34 200 57 96 m 328 -82 l 511 -82 l 511 -214 q 480 -330 511 -287 q 376 -405 450 -372 l 328 -334 q 411 -242 410 -298 l 328 -242 l 328 -82 "},"▀":{"x_min":-14.25,"x_max":1000.375,"ha":986,"o":"m 1000 421 l -14 421 l -14 1264 l 1000 1264 l 1000 421 "},"¸":{"x_min":12,"x_max":423,"ha":463,"o":"m 79 -112 l 99 -32 q 218 -17 163 -17 q 378 -56 334 -17 q 423 -148 423 -95 q 402 -215 423 -181 q 331 -271 382 -250 q 194 -292 279 -292 q 12 -274 116 -292 l 12 -191 q 162 -205 82 -205 q 241 -189 220 -205 q 262 -148 262 -173 q 245 -115 262 -129 q 192 -101 228 -101 q 79 -112 144 -101 "},"=":{"x_min":85,"x_max":826,"ha":917,"o":"m 85 773 l 826 773 l 826 553 l 85 553 l 85 773 m 85 440 l 826 440 l 826 221 l 85 221 l 85 440 "},"ρ":{"x_min":85,"x_max":874,"ha":926,"o":"m 85 -275 l 85 347 q 190 630 85 525 q 479 736 296 736 q 768 629 663 736 q 874 349 874 523 q 792 83 874 182 q 570 -16 710 -16 q 361 63 432 -16 l 361 -275 l 85 -275 m 485 188 q 568 233 539 188 q 598 354 598 278 q 481 532 598 532 q 390 487 423 532 q 358 357 358 443 q 390 236 358 284 q 485 188 422 188 "},"Ћ":{"x_min":36,"x_max":1274,"ha":1356,"o":"m 1274 0 l 967 0 l 967 263 q 832 415 967 415 q 656 343 732 415 l 656 0 l 349 0 l 349 750 l 36 750 l 36 994 l 968 994 l 968 750 l 656 750 l 656 583 q 925 661 791 661 q 1175 570 1077 661 q 1274 324 1274 480 l 1274 0 "},"ú":{"x_min":81,"x_max":842,"ha":926,"o":"m 842 0 l 584 0 l 584 117 q 468 14 526 45 q 324 -16 409 -16 q 145 52 210 -16 q 81 261 81 120 l 81 720 l 358 720 l 358 324 q 383 228 358 256 q 453 200 408 200 q 534 237 502 200 q 566 374 566 275 l 566 720 l 842 720 l 842 0 m 456 1011 l 693 1011 l 474 808 l 342 808 l 456 1011 "},"˚":{"x_min":68,"x_max":395,"ha":463,"o":"m 395 951 q 347 835 395 883 q 231 788 299 788 q 115 835 163 788 q 68 951 68 883 q 115 1067 68 1019 q 231 1115 163 1115 q 347 1067 299 1115 q 395 951 395 1019 m 301 952 q 280 1001 301 981 q 231 1022 260 1022 q 181 1001 201 1022 q 161 952 161 981 q 181 902 161 922 q 231 882 201 882 q 280 902 260 882 q 301 952 301 922 "},"д":{"x_min":9,"x_max":903,"ha":920,"o":"m 903 -206 l 712 -206 l 712 0 l 201 0 l 201 -206 l 9 -206 l 9 201 l 78 201 q 155 556 155 336 l 155 720 l 827 720 l 827 201 l 903 201 l 903 -206 m 550 201 l 550 519 l 417 519 l 417 510 q 352 201 417 360 l 550 201 "},"¯":{"x_min":-8,"x_max":703,"ha":695,"o":"m -8 1154 l 703 1154 l 703 1085 l -8 1085 l -8 1154 "},"u":{"x_min":81,"x_max":842,"ha":926,"o":"m 842 0 l 584 0 l 584 117 q 468 14 526 45 q 324 -16 409 -16 q 145 52 210 -16 q 81 261 81 120 l 81 720 l 358 720 l 358 324 q 383 228 358 256 q 453 200 408 200 q 534 237 502 200 q 566 374 566 275 l 566 720 l 842 720 l 842 0 "},"З":{"x_min":40,"x_max":904,"ha":956,"o":"m 724 539 q 904 314 904 491 q 791 76 904 169 q 474 -17 679 -17 q 40 276 124 -17 l 330 298 q 469 195 354 195 q 566 226 533 195 q 599 315 599 258 q 557 403 599 369 q 444 438 516 438 l 361 438 l 361 616 l 426 616 q 518 646 485 616 q 552 733 552 677 q 451 814 552 814 q 331 721 347 814 l 56 752 q 457 1011 123 1011 q 746 939 641 1011 q 852 745 852 867 q 724 539 852 598 "},"Α":{"x_min":2,"x_max":1084,"ha":1080,"o":"m 712 164 l 364 164 l 315 0 l 2 0 l 375 994 l 711 994 l 1084 0 l 762 0 l 712 164 m 648 379 l 539 736 l 430 379 l 648 379 "},"⅝":{"x_min":65,"x_max":1284,"ha":1389,"o":"m 236 817 q 356 840 287 840 q 508 795 446 840 q 570 678 570 751 q 505 540 570 590 q 319 491 440 491 q 65 631 109 491 l 232 655 q 261 608 237 625 q 317 592 286 592 q 380 613 355 592 q 405 666 405 634 q 380 718 405 699 q 314 738 356 738 q 264 727 292 738 q 221 700 237 716 l 89 719 l 133 1009 l 542 1009 l 542 893 l 247 893 l 236 817 m 906 1011 l 1052 1011 l 426 -36 l 282 -36 l 906 1011 m 1196 246 q 1284 132 1284 219 q 1216 9 1284 51 q 1024 -33 1149 -33 q 833 9 900 -33 q 766 132 766 51 q 852 246 766 218 q 781 347 781 275 q 845 452 781 416 q 1024 489 910 489 q 1201 452 1136 489 q 1267 347 1267 416 q 1196 246 1267 276 m 1024 289 q 1082 303 1060 289 q 1104 339 1104 317 q 1085 377 1104 366 q 1025 389 1066 389 q 944 339 944 389 q 965 303 944 317 q 1024 289 987 289 m 1024 69 q 1113 137 1113 69 q 1089 186 1113 168 q 1024 204 1065 204 q 936 137 936 204 q 1024 69 936 69 "},"◙":{"x_min":25.765625,"x_max":809.125,"ha":834,"o":"m 25 0 l 25 783 l 809 783 l 809 0 l 25 0 m 716 391 q 628 602 716 514 q 417 690 540 690 q 206 602 293 690 q 118 391 118 514 q 205 180 118 267 q 417 92 293 92 q 628 180 540 92 q 716 391 716 268 m 664 391 q 592 217 664 289 q 417 144 519 144 q 242 217 315 144 q 170 391 170 289 q 243 566 170 493 q 417 638 316 638 q 592 566 519 638 q 664 391 664 494 "},"é":{"x_min":49,"x_max":883,"ha":926,"o":"m 883 292 l 330 292 q 365 192 337 225 q 469 146 405 146 q 547 166 510 146 q 595 212 569 179 l 867 187 q 716 31 804 78 q 463 -16 628 -16 q 238 24 320 -16 q 102 152 156 64 q 49 358 49 240 q 157 631 49 527 q 455 736 265 736 q 699 689 610 736 q 836 553 789 642 q 883 323 883 465 l 883 292 m 602 424 q 559 538 593 503 q 467 573 524 573 q 362 520 401 573 q 330 424 337 488 l 602 424 m 456 1011 l 693 1011 l 474 808 l 342 808 l 456 1011 "},"Ş":{"x_min":48,"x_max":950,"ha":1003,"o":"m 48 328 l 340 347 q 378 238 349 275 q 514 178 426 178 q 616 208 580 178 q 652 280 652 239 q 617 349 652 319 q 460 407 583 380 q 171 528 258 452 q 85 720 85 603 q 129 864 85 796 q 262 972 173 933 q 507 1011 352 1011 q 798 940 697 1011 q 917 714 898 869 l 627 698 q 578 795 615 765 q 476 826 541 826 q 396 803 423 826 q 369 747 369 780 q 391 705 369 724 q 494 668 413 685 q 783 580 696 625 q 910 470 870 536 q 950 323 950 404 q 897 147 950 227 q 749 24 844 66 q 509 -17 654 -17 q 158 80 256 -17 q 48 328 60 178 m 349 -112 l 369 -32 q 488 -17 433 -17 q 648 -56 604 -17 q 693 -148 693 -95 q 672 -215 693 -181 q 601 -271 652 -250 q 464 -292 549 -292 q 282 -274 386 -292 l 282 -191 q 432 -205 352 -205 q 511 -189 490 -205 q 532 -148 532 -173 q 515 -115 532 -129 q 462 -101 498 -101 q 349 -112 414 -101 "},"↓":{"x_min":103.765625,"x_max":591.40625,"ha":695,"o":"m 103 -10 l 103 40 q 313 -91 219 -14 l 313 992 l 381 992 l 381 -91 q 591 42 451 -22 l 591 -10 q 360 -290 419 -161 l 329 -290 q 103 -10 281 -171 "},"B":{"x_min":102,"x_max":1021,"ha":1080,"o":"m 102 994 l 677 994 q 898 922 821 994 q 975 746 975 851 q 920 595 975 658 q 812 528 883 553 q 970 440 920 503 q 1021 282 1021 377 q 985 143 1021 205 q 886 46 949 82 q 770 13 848 23 q 632 0 666 0 l 102 0 l 102 994 m 412 604 l 545 604 q 645 628 617 604 q 674 700 674 653 q 645 768 674 744 q 547 793 617 793 l 412 793 l 412 604 m 412 214 l 568 214 q 680 242 647 214 q 713 317 713 270 q 680 388 713 361 q 567 415 648 415 l 412 415 l 412 214 "},"…":{"x_min":84,"x_max":1305,"ha":1389,"o":"m 84 277 l 379 277 l 379 0 l 84 0 l 84 277 m 547 277 l 842 277 l 842 0 l 547 0 l 547 277 m 1010 277 l 1305 277 l 1305 0 l 1010 0 l 1010 277 "},"H":{"x_min":103,"x_max":1055,"ha":1157,"o":"m 103 994 l 410 994 l 410 646 l 746 646 l 746 994 l 1055 994 l 1055 0 l 746 0 l 746 402 l 410 402 l 410 0 l 103 0 l 103 994 "},"î":{"x_min":-19,"x_max":483,"ha":463,"o":"m 94 720 l 370 720 l 370 0 l 94 0 l 94 720 m 136 1002 l 332 1002 l 483 808 l 314 808 l 232 911 l 149 808 l -19 808 l 136 1002 "},"ν":{"x_min":1,"x_max":852,"ha":848,"o":"m 1 720 l 288 720 l 428 263 l 573 720 l 852 720 l 545 0 l 300 0 l 1 720 "},"▪":{"x_min":88.84375,"x_max":402.859375,"ha":492,"o":"m 402 616 l 402 301 l 88 301 l 88 615 l 402 616 "},"Ό":{"x_min":5,"x_max":1166,"ha":1231,"o":"m 136 496 q 271 875 136 739 q 649 1011 407 1011 q 1031 877 897 1011 q 1166 504 1166 744 q 1107 218 1166 330 q 937 45 1048 107 q 661 -17 826 -17 q 383 36 493 -17 q 204 206 272 90 q 136 496 136 322 m 443 494 q 498 278 443 344 q 651 213 554 213 q 804 277 750 213 q 859 508 859 341 q 802 713 859 648 q 648 778 745 778 q 499 712 555 778 q 443 494 443 646 m 259 994 l 137 791 l 5 791 l 49 994 l 259 994 "},"−":{"x_min":86,"x_max":826,"ha":917,"o":"m 86 606 l 826 606 l 826 387 l 86 387 l 86 606 "},"⅜":{"x_min":54,"x_max":1287,"ha":1389,"o":"m 237 853 l 62 879 q 144 972 95 943 q 318 1011 209 1011 q 502 965 440 1011 q 547 881 547 933 q 522 815 547 845 q 461 773 505 794 q 541 720 515 755 q 567 640 567 686 q 517 539 567 577 q 311 489 450 489 q 113 541 182 489 q 54 632 73 572 l 226 652 q 256 605 236 619 q 309 591 276 591 q 368 609 347 591 q 390 654 390 628 q 351 707 390 688 q 250 720 330 718 l 269 816 q 348 830 328 816 q 369 867 369 845 q 355 897 369 885 q 313 909 341 909 q 263 893 285 909 q 237 853 247 882 m 902 1011 l 1048 1011 l 422 -36 l 278 -36 l 902 1011 m 1199 246 q 1287 132 1287 219 q 1219 9 1287 51 q 1027 -33 1152 -33 q 836 9 903 -33 q 769 132 769 51 q 855 246 769 218 q 784 347 784 275 q 848 452 784 416 q 1027 489 913 489 q 1204 452 1139 489 q 1270 347 1270 416 q 1199 246 1270 276 m 1027 289 q 1085 303 1063 289 q 1107 339 1107 317 q 1088 377 1107 366 q 1028 389 1069 389 q 947 339 947 389 q 968 303 947 317 q 1027 289 990 289 m 1027 69 q 1116 137 1116 69 q 1092 186 1116 168 q 1027 204 1068 204 q 939 137 939 204 q 1027 69 939 69 "},"╫":{"x_min":-14.25,"x_max":1000.375,"ha":986,"o":"m 304 -421 l 304 362 l -14 362 l -14 480 l 304 480 l 304 1264 l 423 1264 l 423 480 l 562 480 l 562 1264 l 680 1264 l 680 480 l 1000 480 l 1000 362 l 680 362 l 680 -421 l 562 -421 l 562 362 l 423 362 l 423 -421 l 304 -421 "},"ā":{"x_min":50,"x_max":878.59375,"ha":926,"o":"m 336 487 l 72 515 q 115 623 86 583 q 195 692 143 663 q 300 724 233 713 q 443 736 366 736 q 642 722 567 736 q 768 664 718 708 q 823 577 803 633 q 844 471 844 521 l 844 153 q 850 73 844 102 q 878 0 856 44 l 619 0 q 599 42 603 27 q 589 88 594 56 q 481 13 535 36 q 312 -16 408 -16 q 116 43 183 -16 q 50 190 50 103 q 98 325 50 272 q 275 404 146 378 q 476 448 430 435 q 574 481 522 460 q 553 551 574 531 q 479 572 532 572 q 378 550 412 572 q 336 487 352 533 m 574 342 q 455 306 517 321 q 349 261 372 283 q 327 210 327 239 q 349 157 327 178 q 416 137 372 137 q 501 159 461 137 q 557 214 540 181 q 574 297 574 246 l 574 342 m 244 981 l 683 981 l 683 834 l 244 834 l 244 981 "},"ĵ":{"x_min":-68,"x_max":479,"ha":463,"o":"m 479 808 l 310 808 l 229 912 l 145 808 l -23 808 l 133 1003 l 328 1003 l 479 808 m 94 720 l 371 720 l 371 21 q 351 -167 371 -111 q 280 -257 332 -222 q 130 -292 227 -292 q -68 -267 50 -292 l -26 -67 q 22 -74 6 -74 q 75 -49 57 -74 q 94 45 94 -25 l 94 720 "},"Ĩ":{"x_min":28.328125,"x_max":517.671875,"ha":541,"o":"m 114 994 l 422 994 l 422 0 l 114 0 l 114 994 m 410 1252 l 517 1252 q 517 1221 517 1234 q 479 1105 517 1146 q 382 1064 441 1064 q 250 1099 338 1064 q 177 1121 197 1121 q 146 1108 157 1121 q 135 1066 135 1096 l 29 1066 q 28 1094 28 1082 q 68 1209 28 1166 q 163 1252 108 1252 q 207 1246 186 1252 q 285 1217 228 1241 q 367 1194 342 1194 q 397 1206 386 1194 q 410 1252 408 1218 "},"←":{"x_min":53.578125,"x_max":1334.75,"ha":1389,"o":"m 333 594 l 385 594 q 252 384 330 478 l 1334 384 l 1334 316 l 252 316 q 387 106 322 246 l 334 106 q 53 337 183 278 l 53 368 q 333 594 173 416 "},"*":{"x_min":120,"x_max":646,"ha":773,"o":"m 307 1011 l 457 1011 l 444 908 q 427 823 440 871 q 461 841 453 836 q 505 863 490 856 l 599 908 l 646 765 l 541 743 q 457 735 513 737 q 517 681 495 705 l 588 604 l 465 513 l 415 604 q 380 681 404 624 q 345 604 353 618 l 294 513 l 169 604 l 244 681 q 307 735 276 713 q 225 748 275 738 l 120 765 l 169 908 l 263 865 q 336 823 277 858 q 320 908 323 880 l 307 1011 "},"ă":{"x_min":50,"x_max":878.59375,"ha":926,"o":"m 336 487 l 72 515 q 115 623 86 583 q 195 692 143 663 q 300 724 233 713 q 443 736 366 736 q 642 722 567 736 q 768 664 718 708 q 823 577 803 633 q 844 471 844 521 l 844 153 q 850 73 844 102 q 878 0 856 44 l 619 0 q 599 42 603 27 q 589 88 594 56 q 481 13 535 36 q 312 -16 408 -16 q 116 43 183 -16 q 50 190 50 103 q 98 325 50 272 q 275 404 146 378 q 476 448 430 435 q 574 481 522 460 q 553 551 574 531 q 479 572 532 572 q 378 550 412 572 q 336 487 352 533 m 574 342 q 455 306 517 321 q 349 261 372 283 q 327 210 327 239 q 349 157 327 178 q 416 137 372 137 q 501 159 461 137 q 557 214 540 181 q 574 297 574 246 l 574 342 m 583 1011 l 695 1011 q 664 902 690 946 q 584 832 638 858 q 468 806 530 806 q 303 859 365 806 q 232 1011 242 913 l 349 1011 q 387 954 362 971 q 462 938 412 938 q 546 954 521 938 q 583 1011 572 971 "},"Χ":{"x_min":2,"x_max":1083,"ha":1080,"o":"m 33 994 l 371 994 l 547 688 l 719 994 l 1054 994 l 744 512 l 1083 0 l 738 0 l 541 319 l 345 0 l 2 0 l 344 518 l 33 994 "},"†":{"x_min":96,"x_max":840,"ha":926,"o":"m 347 994 l 586 994 l 586 736 l 840 736 l 840 535 l 586 535 l 586 -276 l 347 -276 l 347 535 l 96 535 l 96 736 l 347 736 l 347 994 "},"°":{"x_min":81,"x_max":470,"ha":555,"o":"m 470 817 q 412 679 470 736 q 275 623 355 623 q 138 679 195 623 q 81 817 81 736 q 138 954 81 897 q 275 1011 195 1011 q 412 954 355 1011 q 470 817 470 897 m 344 817 q 323 866 344 846 q 275 887 303 887 q 226 866 246 887 q 206 817 206 846 q 226 769 206 789 q 275 749 246 749 q 323 769 303 749 q 344 817 344 789 "},"↨":{"x_min":103.09375,"x_max":590.734375,"ha":695,"o":"m 331 992 l 362 992 q 590 716 415 868 l 590 661 q 379 794 474 708 l 379 -91 q 590 40 474 -6 l 590 -13 q 362 -289 415 -166 l 331 -289 q 103 -13 278 -166 l 103 40 q 314 -91 219 -6 l 314 794 q 103 661 219 708 l 103 716 q 331 992 278 868 m 104 -354 l 590 -354 l 590 -420 l 104 -420 l 104 -354 "},"Ξ":{"x_min":82,"x_max":921,"ha":1003,"o":"m 905 780 l 96 780 l 96 994 l 905 994 l 905 780 m 796 421 l 210 421 l 210 622 l 796 622 l 796 421 m 921 0 l 82 0 l 82 225 l 921 225 l 921 0 "},"Ķ":{"x_min":103,"x_max":1157,"ha":1157,"o":"m 103 994 l 410 994 l 410 618 l 732 994 l 1141 994 l 779 618 l 1157 0 l 778 0 l 569 408 l 410 241 l 410 0 l 103 0 l 103 994 m 505 -82 l 688 -82 l 688 -214 q 657 -330 688 -287 q 553 -405 627 -372 l 505 -334 q 588 -242 587 -298 l 505 -242 l 505 -82 "},"ŵ":{"x_min":2,"x_max":1314,"ha":1311,"o":"m 2 720 l 268 720 l 385 267 l 532 720 l 779 720 l 932 266 l 1048 720 l 1314 720 l 1048 0 l 803 0 l 657 433 l 516 0 l 269 0 l 2 720 m 555 1002 l 751 1002 l 902 808 l 733 808 l 651 911 l 568 808 l 400 808 l 555 1002 "},"΄":{"x_min":4,"x_max":258,"ha":264,"o":"m 258 994 l 136 791 l 4 791 l 48 994 l 258 994 "},"ǽ":{"x_min":47,"x_max":1350,"ha":1389,"o":"m 1350 292 l 827 292 q 858 195 834 226 q 956 147 896 147 q 1015 162 990 147 q 1064 215 1040 177 l 1333 191 q 1190 36 1278 88 q 958 -16 1103 -16 q 765 16 846 -16 q 648 97 704 40 q 489 10 564 36 q 323 -16 414 -16 q 116 41 185 -16 q 47 193 47 99 q 68 281 47 239 q 123 346 90 322 q 219 396 167 378 q 335 421 243 404 q 454 446 427 439 q 560 478 499 457 q 537 551 558 531 q 462 571 517 571 q 376 550 404 571 q 336 485 347 529 l 71 515 q 117 624 90 587 q 226 705 153 674 q 433 736 300 736 q 610 716 540 736 q 719 664 659 703 q 832 720 781 704 q 953 736 884 736 q 1133 706 1058 736 q 1255 625 1208 676 q 1323 523 1303 573 q 1350 337 1350 456 l 1350 292 m 1075 424 q 1039 532 1069 493 q 954 571 1009 571 q 870 535 905 571 q 824 424 835 500 l 1075 424 m 560 343 l 475 315 q 446 307 458 309 q 352 269 379 295 q 326 216 326 243 q 348 163 326 185 q 407 142 370 142 q 484 160 444 142 q 544 218 523 179 q 560 291 560 245 l 560 343 m 674 1011 l 911 1011 l 692 808 l 560 808 l 674 1011 "},"Β":{"x_min":102,"x_max":1021,"ha":1080,"o":"m 102 994 l 677 994 q 898 922 821 994 q 975 746 975 851 q 920 595 975 658 q 812 528 883 553 q 970 440 920 503 q 1021 282 1021 377 q 985 143 1021 205 q 886 46 949 82 q 770 13 848 23 q 632 0 666 0 l 102 0 l 102 994 m 412 604 l 545 604 q 645 628 617 604 q 674 700 674 653 q 645 768 674 744 q 547 793 617 793 l 412 793 l 412 604 m 412 214 l 568 214 q 680 242 647 214 q 713 317 713 270 q 680 388 713 361 q 567 415 648 415 l 412 415 l 412 214 "},"Ļ":{"x_min":102,"x_max":888,"ha":926,"o":"m 102 994 l 409 994 l 409 245 l 888 245 l 888 0 l 102 0 l 102 994 m 360 -112 l 380 -32 q 499 -17 444 -17 q 659 -56 615 -17 q 704 -148 704 -95 q 683 -215 704 -181 q 612 -271 663 -250 q 475 -292 560 -292 q 293 -274 397 -292 l 293 -191 q 443 -205 363 -205 q 522 -189 501 -205 q 543 -148 543 -173 q 526 -115 543 -129 q 473 -101 509 -101 q 360 -112 425 -101 "},"Õ":{"x_min":63,"x_max":1093,"ha":1157,"o":"m 63 496 q 198 875 63 739 q 576 1011 334 1011 q 958 877 824 1011 q 1093 504 1093 744 q 1034 218 1093 330 q 864 45 975 107 q 588 -17 753 -17 q 310 36 420 -17 q 131 206 199 90 q 63 496 63 322 m 370 494 q 425 278 370 344 q 578 213 481 213 q 731 277 677 213 q 786 508 786 341 q 729 713 786 648 q 575 778 672 778 q 426 712 482 778 q 370 494 370 646 m 715 1240 l 822 1240 q 822 1209 822 1222 q 784 1093 822 1134 q 687 1052 746 1052 q 555 1087 643 1052 q 482 1109 502 1109 q 451 1096 462 1109 q 440 1054 440 1084 l 334 1054 q 333 1082 333 1070 q 373 1197 333 1154 q 468 1240 413 1240 q 512 1234 491 1240 q 590 1205 533 1229 q 672 1182 647 1182 q 702 1194 691 1182 q 715 1240 713 1206 "},"╠":{"x_min":305.203125,"x_max":1001.0625,"ha":986,"o":"m 305 -421 l 305 1264 l 423 1264 l 423 -421 l 305 -421 m 562 491 l 562 1264 l 681 1264 l 681 609 l 1001 609 l 1001 491 l 562 491 m 562 -421 l 562 352 l 1001 352 l 1001 233 l 681 233 l 681 -421 l 562 -421 "},"═":{"x_min":-14.25,"x_max":1000.375,"ha":986,"o":"m 1000 491 l -14 491 l -14 609 l 1000 609 l 1000 491 m 1000 233 l -14 233 l -14 352 l 1000 352 l 1000 233 "},"№":{"x_min":103,"x_max":1794,"ha":1869,"o":"m 1054 0 l 763 0 l 392 545 l 392 0 l 103 0 l 103 994 l 390 994 l 765 444 l 765 994 l 1054 994 l 1054 0 m 1461 856 q 1708 769 1623 856 q 1794 556 1794 683 q 1709 341 1794 429 q 1461 253 1624 253 q 1218 340 1304 253 q 1132 552 1132 428 q 1218 768 1132 681 q 1461 856 1305 856 m 1463 414 q 1535 447 1512 414 q 1559 555 1559 480 q 1536 662 1559 629 q 1465 695 1514 695 q 1391 662 1414 695 q 1368 553 1368 629 q 1463 414 1368 414 m 1769 31 l 1179 31 l 1179 195 l 1769 195 l 1769 31 "},"χ":{"x_min":10,"x_max":891,"ha":900,"o":"m 891 -275 l 589 -275 l 453 79 l 288 -275 l 10 -275 l 266 244 l 24 720 l 328 720 l 450 388 l 588 720 l 873 720 l 632 244 l 891 -275 "},"ί":{"x_min":94,"x_max":381,"ha":463,"o":"m 94 720 l 370 720 l 370 0 l 94 0 l 94 720 m 381 994 l 259 791 l 127 791 l 171 994 l 381 994 "},"Ζ":{"x_min":23,"x_max":966,"ha":1003,"o":"m 77 994 l 946 994 l 946 795 l 388 214 l 966 214 l 966 0 l 23 0 l 23 206 l 574 782 l 77 782 l 77 994 "},"Ľ":{"x_min":102,"x_max":888,"ha":926,"o":"m 102 994 l 409 994 l 409 245 l 888 245 l 888 0 l 102 0 l 102 994 m 649 994 l 832 994 l 832 861 q 801 745 832 788 q 697 671 771 703 l 649 741 q 732 834 731 777 l 649 834 l 649 994 "},"ť":{"x_min":38,"x_max":838,"ha":868,"o":"m 417 994 l 417 720 l 569 720 l 569 518 l 417 518 l 417 262 q 425 202 417 216 q 473 179 439 179 q 558 196 503 179 l 579 6 q 387 -16 476 -16 q 235 10 284 -16 q 163 90 186 36 q 140 264 140 144 l 140 518 l 38 518 l 38 720 l 140 720 l 140 852 l 417 994 m 655 994 l 838 994 l 838 861 q 807 745 838 788 q 703 671 777 703 l 655 741 q 738 834 737 777 l 655 834 l 655 994 "},"5":{"x_min":45,"x_max":872,"ha":926,"o":"m 168 994 l 825 994 l 825 774 l 379 774 l 356 624 q 447 657 402 646 q 536 668 492 668 q 779 577 686 668 q 872 350 872 487 q 824 165 872 254 q 688 29 776 76 q 463 -17 600 -17 q 295 1 365 -17 q 175 57 224 20 q 95 140 126 94 q 45 257 65 187 l 324 288 q 371 185 334 220 q 460 151 409 151 q 556 194 518 151 q 594 325 594 238 q 555 455 594 414 q 454 497 517 497 q 377 477 414 497 q 316 425 349 463 l 81 459 l 168 994 "},"o":{"x_min":50,"x_max":876,"ha":926,"o":"m 50 357 q 161 629 50 522 q 460 736 272 736 q 787 610 676 736 q 876 362 876 509 q 765 90 876 196 q 461 -16 655 -16 q 181 72 288 -16 q 50 357 50 181 m 327 358 q 365 216 327 262 q 463 171 404 171 q 560 216 522 171 q 599 361 599 261 q 560 500 599 454 q 465 546 522 546 q 366 499 405 546 q 327 358 327 453 "},"Ѕ":{"x_min":48,"x_max":950,"ha":1003,"o":"m 48 328 l 340 347 q 378 238 349 275 q 514 178 426 178 q 616 208 580 178 q 652 280 652 239 q 617 349 652 319 q 460 407 583 380 q 171 528 258 452 q 85 720 85 603 q 129 864 85 796 q 262 972 173 933 q 507 1011 352 1011 q 798 940 697 1011 q 917 714 898 869 l 627 698 q 578 795 615 765 q 476 826 541 826 q 396 803 423 826 q 369 747 369 780 q 391 705 369 724 q 494 668 413 685 q 783 580 696 625 q 910 470 870 536 q 950 323 950 404 q 897 147 950 227 q 749 24 844 66 q 509 -17 654 -17 q 158 80 256 -17 q 48 328 60 178 "},"▓":{"x_min":0,"x_max":1013.9375,"ha":1014,"o":"m 1013 1010 l 1013 756 l 929 756 l 929 672 l 1013 672 l 1013 419 l 929 419 l 929 334 l 1013 334 l 1013 80 l 929 80 l 929 -3 l 1013 -3 l 1013 -257 l 929 -257 l 929 -341 l 1013 -341 l 1013 -425 l 0 -425 l 0 -172 l 84 -172 l 84 -88 l 0 -88 l 0 165 l 84 165 l 84 250 l 0 250 l 0 503 l 84 503 l 84 588 l 0 588 l 0 841 l 84 841 l 84 926 l 0 926 l 0 1179 l 84 1179 l 84 1264 l 168 1264 l 168 1179 l 253 1179 l 253 1264 l 337 1264 l 337 1179 l 422 1179 l 422 1264 l 507 1264 l 507 1179 l 591 1179 l 591 1264 l 676 1264 l 676 1179 l 760 1179 l 760 1264 l 845 1264 l 845 1179 l 929 1179 l 929 1264 l 1013 1264 l 1013 1095 l 929 1095 l 929 1010 l 1013 1010 m 84 1095 l 84 1010 l 168 1010 l 168 1095 l 84 1095 m 253 1095 l 253 1010 l 337 1010 l 337 1095 l 253 1095 m 422 1095 l 422 1010 l 507 1010 l 507 1095 l 422 1095 m 591 1095 l 591 1010 l 676 1010 l 676 1095 l 591 1095 m 760 1095 l 760 1010 l 845 1010 l 845 1095 l 760 1095 m 929 926 l 845 926 l 845 841 l 929 841 l 929 926 m 760 926 l 676 926 l 676 841 l 760 841 l 760 926 m 591 926 l 507 926 l 507 841 l 591 841 l 591 926 m 422 926 l 337 926 l 337 841 l 422 841 l 422 926 m 253 926 l 168 926 l 168 841 l 253 841 l 253 926 m 84 756 l 84 672 l 168 672 l 168 756 l 84 756 m 253 756 l 253 672 l 337 672 l 337 756 l 253 756 m 422 756 l 422 672 l 507 672 l 507 756 l 422 756 m 591 756 l 591 672 l 676 672 l 676 756 l 591 756 m 760 756 l 760 672 l 845 672 l 845 756 l 760 756 m 253 588 l 168 588 l 168 503 l 253 503 l 253 588 m 337 588 l 337 503 l 422 503 l 422 588 l 337 588 m 507 588 l 507 503 l 591 503 l 591 588 l 507 588 m 676 588 l 676 503 l 760 503 l 760 588 l 676 588 m 845 588 l 845 503 l 929 503 l 929 588 l 845 588 m 84 419 l 84 334 l 168 334 l 168 419 l 84 419 m 422 419 l 422 334 l 507 334 l 507 419 l 422 419 m 337 334 l 337 419 l 253 419 l 253 334 l 337 334 m 591 419 l 591 334 l 676 334 l 676 419 l 591 419 m 760 419 l 760 334 l 845 334 l 845 419 l 760 419 m 929 165 l 929 250 l 845 250 l 845 165 l 929 165 m 760 165 l 760 250 l 676 250 l 676 165 l 760 165 m 591 165 l 591 250 l 507 250 l 507 165 l 591 165 m 422 165 l 422 250 l 337 250 l 337 165 l 422 165 m 253 165 l 253 250 l 168 250 l 168 165 l 253 165 m 84 80 l 84 -3 l 168 -3 l 168 80 l 84 80 m 253 80 l 253 -3 l 337 -3 l 337 80 l 253 80 m 422 80 l 422 -3 l 507 -3 l 507 80 l 422 80 m 591 80 l 591 -3 l 676 -3 l 676 80 l 591 80 m 760 80 l 760 -3 l 845 -3 l 845 80 l 760 80 m 929 -172 l 929 -88 l 845 -88 l 845 -172 l 929 -172 m 760 -172 l 760 -88 l 676 -88 l 676 -172 l 760 -172 m 591 -172 l 591 -88 l 507 -88 l 507 -172 l 591 -172 m 422 -172 l 422 -88 l 337 -88 l 337 -172 l 422 -172 m 253 -172 l 253 -88 l 168 -88 l 168 -172 l 253 -172 m 84 -257 l 84 -341 l 168 -341 l 168 -257 l 84 -257 m 253 -257 l 253 -341 l 337 -341 l 337 -257 l 253 -257 m 422 -257 l 422 -341 l 507 -341 l 507 -257 l 422 -257 m 591 -257 l 591 -341 l 676 -341 l 676 -257 l 591 -257 m 760 -257 l 760 -341 l 845 -341 l 845 -257 l 760 -257 "},"□":{"x_min":99.015625,"x_max":739.265625,"ha":839,"o":"m 99 640 l 739 640 l 739 0 l 99 0 l 99 640 m 150 588 l 150 51 l 687 51 l 687 588 l 150 588 "},"d":{"x_min":49,"x_max":841,"ha":926,"o":"m 841 994 l 841 0 l 582 0 l 582 106 q 483 15 528 38 q 350 -16 423 -16 q 126 95 204 -16 q 49 367 49 207 q 134 641 49 546 q 352 736 220 736 q 468 714 416 736 q 562 649 521 692 l 562 994 l 841 994 m 564 362 q 528 488 564 446 q 437 530 492 530 q 357 490 389 530 q 325 355 325 450 q 358 226 325 267 q 441 186 391 186 q 528 227 493 186 q 564 362 564 268 "},",":{"x_min":84,"x_max":379,"ha":463,"o":"m 84 274 l 379 274 l 379 46 q 326 -150 379 -78 q 148 -279 274 -223 l 84 -158 q 192 -85 162 -121 q 225 0 221 -49 l 84 0 l 84 274 "},"╢":{"x_min":-14.25,"x_max":680.9375,"ha":986,"o":"m 304 -421 l 304 362 l -14 362 l -14 480 l 304 480 l 304 1264 l 423 1264 l 423 -421 l 304 -421 m 562 -421 l 562 1264 l 680 1264 l 680 -421 l 562 -421 "},"\"":{"x_min":33,"x_max":661,"ha":695,"o":"m 33 994 l 308 994 l 308 829 l 264 628 l 77 628 l 33 829 l 33 994 m 386 994 l 661 994 l 661 829 l 617 628 l 430 628 l 386 829 l 386 994 "},"ľ":{"x_min":93,"x_max":670,"ha":695,"o":"m 93 994 l 370 994 l 370 0 l 93 0 l 93 994 m 487 994 l 670 994 l 670 861 q 639 745 670 788 q 535 671 609 703 l 487 741 q 570 834 569 777 l 487 834 l 487 994 "},"ė":{"x_min":49,"x_max":883,"ha":926,"o":"m 883 292 l 330 292 q 365 192 337 225 q 469 146 405 146 q 547 166 510 146 q 595 212 569 179 l 867 187 q 716 31 804 78 q 463 -16 628 -16 q 238 24 320 -16 q 102 152 156 64 q 49 358 49 240 q 157 631 49 527 q 455 736 265 736 q 699 689 610 736 q 836 553 789 642 q 883 323 883 465 l 883 292 m 602 424 q 559 538 593 503 q 467 573 524 573 q 362 520 401 573 q 330 424 337 488 l 602 424 m 363 1015 l 576 1015 l 576 812 l 363 812 l 363 1015 "},"Í":{"x_min":114,"x_max":500,"ha":541,"o":"m 114 994 l 422 994 l 422 0 l 114 0 l 114 994 m 263 1257 l 500 1257 l 281 1054 l 149 1054 l 263 1257 "},"Ú":{"x_min":102,"x_max":1055,"ha":1157,"o":"m 748 994 l 1055 994 l 1055 401 q 1027 235 1055 313 q 941 98 1000 157 q 818 16 882 39 q 603 -17 728 -17 q 444 -6 530 -17 q 301 33 359 3 q 195 119 243 63 q 130 233 148 174 q 102 401 102 328 l 102 994 l 409 994 l 409 387 q 454 260 409 306 q 578 215 499 215 q 703 260 658 215 q 748 387 748 305 l 748 994 m 571 1257 l 808 1257 l 589 1054 l 457 1054 l 571 1257 "},"Ŷ":{"x_min":2,"x_max":1084,"ha":1080,"o":"m 2 994 l 343 994 l 543 659 l 744 994 l 1084 994 l 697 416 l 697 0 l 389 0 l 389 416 l 2 994 m 446 1257 l 642 1257 l 793 1063 l 624 1063 l 542 1166 l 459 1063 l 291 1063 l 446 1257 "},"Ý":{"x_min":2,"x_max":1084,"ha":1080,"o":"m 2 994 l 343 994 l 543 659 l 744 994 l 1084 994 l 697 416 l 697 0 l 389 0 l 389 416 l 2 994 m 533 1257 l 770 1257 l 551 1054 l 419 1054 l 533 1257 "},"ŝ":{"x_min":34,"x_max":800,"ha":848,"o":"m 34 200 l 308 226 q 355 156 324 177 q 437 135 386 135 q 523 158 492 135 q 547 202 547 176 q 515 248 547 232 q 397 276 493 260 q 197 323 253 301 q 103 395 141 344 q 65 511 65 446 q 106 633 65 582 q 220 710 147 685 q 415 736 292 736 q 605 716 543 736 q 707 655 666 696 q 776 544 748 614 l 514 518 q 480 568 503 552 q 401 590 447 590 q 333 573 354 590 q 312 533 312 556 q 339 493 312 506 q 456 468 366 479 q 661 425 594 453 q 764 346 728 397 q 800 233 800 295 q 762 112 800 171 q 643 18 724 53 q 422 -16 562 -16 q 141 40 225 -16 q 34 200 57 96 m 316 1002 l 512 1002 l 663 808 l 494 808 l 412 911 l 329 808 l 161 808 l 316 1002 "},"╪":{"x_min":-14.25,"x_max":1000.375,"ha":986,"o":"m 433 233 l -14 233 l -14 352 l 433 352 l 433 491 l -14 491 l -14 609 l 433 609 l 433 1264 l 552 1264 l 552 609 l 1000 609 l 1000 491 l 552 491 l 552 352 l 1000 352 l 1000 233 l 552 233 l 552 -421 l 433 -421 l 433 233 "},"ą":{"x_min":50,"x_max":908,"ha":926,"o":"m 336 487 l 72 515 q 115 623 86 583 q 195 692 143 663 q 300 724 233 713 q 443 736 366 736 q 642 722 567 736 q 768 664 718 708 q 823 577 803 633 q 844 471 844 521 l 844 153 q 850 73 844 102 q 878 0 856 44 l 619 0 q 599 42 603 27 q 589 88 594 56 q 481 13 535 36 q 312 -16 408 -16 q 116 43 183 -16 q 50 190 50 103 q 98 325 50 272 q 275 404 146 378 q 476 448 430 435 q 574 481 522 460 q 553 551 574 531 q 479 572 532 572 q 378 550 412 572 q 336 487 352 533 m 574 342 q 455 306 517 321 q 349 261 372 283 q 327 210 327 239 q 349 157 327 178 q 416 137 372 137 q 501 159 461 137 q 557 214 540 181 q 574 297 574 246 l 574 342 m 624 18 l 739 18 q 726 -79 726 -40 q 751 -157 726 -131 q 821 -184 776 -184 q 908 -166 853 -184 l 908 -271 q 763 -303 823 -303 q 637 -259 682 -303 q 592 -144 592 -216 q 624 18 592 -83 "},"▌":{"x_min":-14.25,"x_max":493.0625,"ha":986,"o":"m -14 -421 l -14 1264 l 493 1264 l 493 -421 l -14 -421 "},"╡":{"x_min":-14.25,"x_max":552.078125,"ha":986,"o":"m 433 233 l -14 233 l -14 352 l 433 352 l 433 491 l -14 491 l -14 609 l 433 609 l 433 1264 l 552 1264 l 552 -421 l 433 -421 l 433 233 "},"ã":{"x_min":50,"x_max":878.59375,"ha":926,"o":"m 336 487 l 72 515 q 115 623 86 583 q 195 692 143 663 q 300 724 233 713 q 443 736 366 736 q 642 722 567 736 q 768 664 718 708 q 823 577 803 633 q 844 471 844 521 l 844 153 q 850 73 844 102 q 878 0 856 44 l 619 0 q 599 42 603 27 q 589 88 594 56 q 481 13 535 36 q 312 -16 408 -16 q 116 43 183 -16 q 50 190 50 103 q 98 325 50 272 q 275 404 146 378 q 476 448 430 435 q 574 481 522 460 q 553 551 574 531 q 479 572 532 572 q 378 550 412 572 q 336 487 352 533 m 574 342 q 455 306 517 321 q 349 261 372 283 q 327 210 327 239 q 349 157 327 178 q 416 137 372 137 q 501 159 461 137 q 557 214 540 181 q 574 297 574 246 l 574 342 m 599 994 l 706 994 q 706 963 706 976 q 668 847 706 888 q 571 806 630 806 q 439 841 527 806 q 366 863 386 863 q 335 850 346 863 q 324 808 324 838 l 218 808 q 217 836 217 824 q 257 951 217 908 q 352 994 297 994 q 396 988 375 994 q 474 959 417 983 q 556 936 531 936 q 586 948 575 936 q 599 994 597 960 "},"æ":{"x_min":47,"x_max":1350,"ha":1389,"o":"m 1350 292 l 827 292 q 858 195 834 226 q 956 147 896 147 q 1015 162 990 147 q 1064 215 1040 177 l 1333 191 q 1190 36 1278 88 q 958 -16 1103 -16 q 765 16 846 -16 q 648 97 704 40 q 489 10 564 36 q 323 -16 414 -16 q 116 41 185 -16 q 47 193 47 99 q 68 281 47 239 q 123 346 90 322 q 219 396 167 378 q 335 421 243 404 q 454 446 427 439 q 560 478 499 457 q 537 551 558 531 q 462 571 517 571 q 376 550 404 571 q 336 485 347 529 l 71 515 q 117 624 90 587 q 226 705 153 674 q 433 736 300 736 q 610 716 540 736 q 719 664 659 703 q 832 720 781 704 q 953 736 884 736 q 1133 706 1058 736 q 1255 625 1208 676 q 1323 523 1303 573 q 1350 337 1350 456 l 1350 292 m 1075 424 q 1039 532 1069 493 q 954 571 1009 571 q 870 535 905 571 q 824 424 835 500 l 1075 424 m 560 343 l 475 315 q 446 307 458 309 q 352 269 379 295 q 326 216 326 243 q 348 163 326 185 q 407 142 370 142 q 484 160 444 142 q 544 218 523 179 q 560 291 560 245 l 560 343 "},"♫":{"x_min":206.1875,"x_max":1197.734375,"ha":1389,"o":"m 564 810 l 1197 1007 l 1197 125 q 1172 -24 1197 25 q 1087 -106 1146 -73 q 951 -139 1028 -139 q 807 -86 853 -139 q 761 39 761 -33 q 822 176 761 118 q 981 233 883 233 q 1117 200 1038 233 l 1117 776 l 642 629 l 642 -35 q 622 -173 642 -119 q 540 -266 602 -227 q 394 -304 478 -304 q 258 -256 309 -304 q 206 -127 206 -208 q 269 15 206 -40 q 425 70 332 70 q 564 33 489 70 l 564 810 "},"ĩ":{"x_min":-6.671875,"x_max":482.671875,"ha":463,"o":"m 94 720 l 370 720 l 370 0 l 94 0 l 94 720 m 375 994 l 482 994 q 482 963 482 976 q 444 847 482 888 q 347 806 406 806 q 215 841 303 806 q 142 863 162 863 q 111 850 122 863 q 100 808 100 838 l -6 808 q -6 836 -6 824 q 33 951 -6 908 q 128 994 73 994 q 172 988 151 994 q 250 959 193 983 q 332 936 307 936 q 362 948 351 936 q 375 994 373 960 "},"~":{"x_min":67,"x_max":845,"ha":917,"o":"m 845 660 l 845 439 q 718 355 767 376 q 619 334 670 334 q 540 345 579 334 q 415 400 500 357 q 282 443 331 443 q 67 334 178 443 l 67 557 q 185 637 130 613 q 305 662 239 662 q 374 651 338 662 q 482 605 411 640 q 583 561 553 570 q 639 553 613 553 q 845 660 730 553 "},"ŀ":{"x_min":93,"x_max":684,"ha":742,"o":"m 93 994 l 370 994 l 370 0 l 93 0 l 93 994 m 471 725 l 684 725 l 684 522 l 471 522 l 471 725 "},"Ċ":{"x_min":66,"x_max":1033,"ha":1080,"o":"m 764 407 l 1033 325 q 947 136 1005 212 q 802 21 889 60 q 582 -17 716 -17 q 317 30 420 -17 q 140 195 215 77 q 66 499 66 314 q 197 878 66 746 q 568 1011 328 1011 q 864 934 756 1011 q 1024 701 971 858 l 753 641 q 723 707 738 686 q 659 761 697 742 q 576 781 622 781 q 416 697 471 781 q 374 501 374 634 q 424 275 374 336 q 565 214 474 214 q 698 263 653 214 q 764 407 743 312 m 447 1267 l 660 1267 l 660 1064 l 447 1064 l 447 1267 "},"¡":{"x_min":84,"x_max":379,"ha":463,"o":"m 84 -274 l 379 -274 l 379 -47 l 321 408 l 139 408 l 84 -47 l 84 -274 m 94 477 l 369 477 l 369 720 l 94 720 l 94 477 "},"ẅ":{"x_min":2,"x_max":1314,"ha":1311,"o":"m 2 720 l 268 720 l 385 267 l 532 720 l 779 720 l 932 266 l 1048 720 l 1314 720 l 1048 0 l 803 0 l 657 433 l 516 0 l 269 0 l 2 720 m 423 981 l 599 981 l 599 811 l 423 811 l 423 981 m 710 981 l 888 981 l 888 811 l 710 811 l 710 981 "},"К":{"x_min":102,"x_max":1006,"ha":1014,"o":"m 1006 0 l 659 0 l 540 256 q 474 370 498 347 q 409 393 450 393 l 409 0 l 102 0 l 102 994 l 409 994 l 409 612 q 471 640 448 614 q 541 792 493 667 q 610 926 575 885 q 725 984 646 966 q 974 1002 804 1002 l 974 792 l 958 792 q 841 762 879 792 q 779 665 803 732 q 727 565 755 598 q 650 512 699 532 q 766 437 716 490 q 871 271 815 384 l 1006 0 "},"Γ":{"x_min":102,"x_max":889,"ha":926,"o":"m 889 750 l 409 750 l 409 0 l 102 0 l 102 994 l 889 994 l 889 750 "},"P":{"x_min":100,"x_max":944,"ha":1003,"o":"m 100 994 l 610 994 q 860 914 777 994 q 944 688 944 835 q 853 453 944 538 q 577 369 762 369 l 409 369 l 409 0 l 100 0 l 100 994 m 409 570 l 484 570 q 609 600 573 570 q 645 679 645 631 q 613 759 645 726 q 496 792 582 792 l 409 792 l 409 570 "},"%":{"x_min":67,"x_max":1322,"ha":1389,"o":"m 912 1011 l 1055 1011 l 479 -51 l 338 -51 l 912 1011 m 67 749 q 97 881 67 819 q 189 977 127 943 q 336 1011 251 1011 q 533 939 461 1011 q 605 749 605 868 q 533 559 605 630 q 336 488 461 488 q 189 521 251 488 q 97 617 127 555 q 67 749 67 679 m 258 748 q 285 626 258 664 q 336 601 302 601 q 386 626 370 601 q 414 748 414 664 q 386 870 414 831 q 336 895 370 895 q 285 870 302 895 q 258 748 258 832 m 784 212 q 813 344 784 281 q 906 440 843 406 q 1052 474 968 474 q 1250 402 1178 474 q 1322 212 1322 330 q 1250 21 1322 93 q 1052 -50 1178 -50 q 906 -16 968 -50 q 813 79 843 17 q 784 212 784 142 m 975 210 q 1002 88 975 126 q 1052 64 1018 64 q 1103 88 1086 64 q 1131 210 1131 126 q 1103 333 1131 294 q 1052 358 1086 358 q 1002 332 1018 358 q 975 210 975 294 "},"_":{"x_min":-8,"x_max":703,"ha":695,"o":"m -8 -104 l 703 -104 l 703 -173 l -8 -173 l -8 -104 "},"ñ":{"x_min":83,"x_max":845,"ha":926,"o":"m 83 720 l 340 720 l 340 602 q 456 705 397 674 q 600 736 515 736 q 780 667 715 736 q 845 457 845 599 l 845 0 l 568 0 l 568 395 q 542 491 568 463 q 472 520 517 520 q 390 482 421 520 q 359 345 359 444 l 359 0 l 83 0 l 83 720 m 601 994 l 708 994 q 708 963 708 976 q 670 847 708 888 q 573 806 632 806 q 441 841 529 806 q 368 863 388 863 q 337 850 348 863 q 326 808 326 838 l 220 808 q 219 836 219 824 q 259 951 219 908 q 354 994 299 994 q 398 988 377 994 q 476 959 419 983 q 558 936 533 936 q 588 948 577 936 q 601 994 599 960 "},"Ŕ":{"x_min":106,"x_max":1084,"ha":1080,"o":"m 106 0 l 106 994 l 617 994 q 835 969 760 994 q 956 878 910 945 q 1003 717 1003 812 q 967 575 1003 635 q 870 477 932 514 q 763 438 831 453 q 843 401 818 419 q 892 349 860 389 q 935 287 924 309 l 1084 0 l 736 0 l 572 303 q 517 379 541 362 q 442 403 484 403 l 415 403 l 415 0 l 106 0 m 415 591 l 544 591 q 625 604 564 591 q 674 635 655 610 q 694 693 694 660 q 663 767 694 741 q 549 793 633 793 l 415 793 l 415 591 m 558 1260 l 795 1260 l 576 1057 l 444 1057 l 558 1260 "},"‚":{"x_min":47,"x_max":342,"ha":386,"o":"m 47 274 l 342 274 l 342 46 q 289 -150 342 -78 q 111 -279 237 -223 l 47 -158 q 155 -85 125 -121 q 188 0 184 -49 l 47 0 l 47 274 "},"⅞":{"x_min":89,"x_max":1281,"ha":1389,"o":"m 539 914 q 363 489 386 773 l 185 489 q 368 892 210 700 l 89 892 l 89 1011 l 539 1011 l 539 914 m 862 1011 l 1008 1011 l 382 -36 l 238 -36 l 862 1011 m 1193 246 q 1281 132 1281 219 q 1213 9 1281 51 q 1021 -33 1146 -33 q 830 9 897 -33 q 763 132 763 51 q 849 246 763 218 q 778 347 778 275 q 842 452 778 416 q 1021 489 907 489 q 1198 452 1133 489 q 1264 347 1264 416 q 1193 246 1264 276 m 1021 289 q 1079 303 1057 289 q 1101 339 1101 317 q 1082 377 1101 366 q 1022 389 1063 389 q 941 339 941 389 q 962 303 941 317 q 1021 289 984 289 m 1021 69 q 1110 137 1110 69 q 1086 186 1110 168 q 1021 204 1062 204 q 933 137 933 204 q 1021 69 933 69 "},"Æ":{"x_min":-51,"x_max":1339,"ha":1389,"o":"m 377 994 l 1326 994 l 1326 782 l 908 782 l 908 624 l 1288 624 l 1288 421 l 908 421 l 908 225 l 1339 225 l 1339 0 l 619 0 l 619 178 l 323 178 l 258 0 l -51 0 l 377 994 m 550 793 l 407 405 l 619 405 l 619 793 l 550 793 "},"₣":{"x_min":105,"x_max":1188.59375,"ha":1158,"o":"m 622 607 l 622 656 l 880 656 l 880 538 q 957 643 918 614 q 1055 672 996 672 q 1188 634 1116 672 l 1103 437 q 1025 458 1054 458 q 941 413 971 458 q 899 177 899 350 l 899 0 l 622 0 l 622 406 l 414 406 l 414 0 l 105 0 l 105 994 l 864 994 l 864 780 l 414 780 l 414 607 l 622 607 "},"Ū":{"x_min":102,"x_max":1055,"ha":1157,"o":"m 748 994 l 1055 994 l 1055 401 q 1027 235 1055 313 q 941 98 1000 157 q 818 16 882 39 q 603 -17 728 -17 q 444 -6 530 -17 q 301 33 359 3 q 195 119 243 63 q 130 233 148 174 q 102 401 102 328 l 102 994 l 409 994 l 409 387 q 454 260 409 306 q 578 215 499 215 q 703 260 658 215 q 748 387 748 305 l 748 994 m 361 1212 l 800 1212 l 800 1065 l 361 1065 l 361 1212 "},"ы":{"x_min":93,"x_max":1170,"ha":1263,"o":"m 370 464 l 496 464 q 816 230 816 464 q 504 0 816 0 l 93 0 l 93 720 l 370 720 l 370 464 m 370 170 l 460 170 q 515 185 494 170 q 537 230 537 201 q 460 296 537 296 l 370 296 l 370 170 m 894 720 l 1170 720 l 1170 0 l 894 0 l 894 720 "},"ѓ":{"x_min":86,"x_max":653,"ha":617,"o":"m 86 720 l 344 720 l 344 602 q 421 707 381 678 q 519 736 460 736 q 653 698 580 736 l 567 501 q 490 522 518 522 q 405 477 435 522 q 363 241 363 414 l 363 0 l 86 0 l 86 720 m 349 1011 l 586 1011 l 367 808 l 235 808 l 349 1011 "},"Œ":{"x_min":48,"x_max":1346,"ha":1389,"o":"m 687 994 l 1326 994 l 1326 782 l 958 782 l 958 624 l 1288 624 l 1288 421 l 958 421 l 958 225 l 1346 225 l 1346 0 l 687 0 l 687 110 q 593 19 643 47 q 433 -17 526 -17 q 167 96 264 -17 q 48 493 48 237 q 165 893 48 752 q 420 1011 264 1011 q 573 980 510 1011 q 687 888 636 949 l 687 994 m 502 783 q 410 750 452 783 q 353 665 369 718 q 338 479 338 611 q 359 314 338 368 q 421 235 380 261 q 502 209 462 209 q 585 237 543 209 q 646 319 627 266 q 665 506 665 372 q 647 670 665 616 q 589 753 629 724 q 502 783 549 783 "},"΅":{"x_min":-1,"x_max":465,"ha":463,"o":"m 378 1234 l 256 1031 l 124 1031 l 168 1234 l 378 1234 m 465 811 l 287 811 l 287 981 l 465 981 l 465 811 m 177 811 l -1 811 l -1 981 l 177 981 l 177 811 "},"Ą":{"x_min":2,"x_max":1114,"ha":1080,"o":"m 712 164 l 364 164 l 315 0 l 2 0 l 375 994 l 711 994 l 1084 0 l 762 0 l 712 164 m 648 379 l 539 736 l 430 379 l 648 379 m 830 18 l 945 18 q 932 -79 932 -40 q 957 -157 932 -131 q 1027 -184 982 -184 q 1114 -166 1059 -184 l 1114 -271 q 969 -303 1029 -303 q 843 -259 888 -303 q 798 -144 798 -216 q 830 18 798 -83 "},"Њ":{"x_min":103,"x_max":1624,"ha":1681,"o":"m 1015 610 l 1179 610 q 1511 526 1399 610 q 1624 283 1624 443 q 1560 104 1624 182 q 1379 13 1497 27 q 1236 0 1260 0 l 708 0 l 708 401 l 410 401 l 410 0 l 103 0 l 103 994 l 410 994 l 410 645 l 708 645 l 708 994 l 1015 994 l 1015 610 m 1015 214 l 1172 214 q 1317 317 1317 214 q 1172 409 1317 409 l 1015 409 l 1015 214 "},"╙":{"x_min":305.203125,"x_max":1000.375,"ha":986,"o":"m 1000 362 l 305 362 l 305 1264 l 423 1264 l 423 480 l 562 480 l 562 1264 l 681 1264 l 681 480 l 1000 480 l 1000 362 "},"›":{"x_min":19,"x_max":447,"ha":463,"o":"m 231 675 l 19 675 l 207 361 l 19 48 l 231 48 l 447 361 l 231 675 "},"ћ":{"x_min":13,"x_max":858,"ha":939,"o":"m 858 0 l 581 0 l 581 396 q 483 521 581 521 q 400 481 430 521 q 371 345 371 441 l 371 0 l 94 0 l 94 804 l 13 804 l 13 930 l 94 930 l 94 994 l 371 994 l 371 930 l 536 930 l 536 804 l 371 804 l 371 628 q 615 736 468 736 q 796 663 735 736 q 858 458 858 591 l 858 0 "},"→":{"x_min":53.578125,"x_max":1334.75,"ha":1389,"o":"m 1054 594 q 1334 368 1215 416 l 1334 337 q 1053 106 1205 278 l 1001 106 q 1135 316 1066 246 l 53 316 l 53 384 l 1135 384 q 1003 594 1058 478 l 1054 594 "},"<":{"x_min":73,"x_max":844,"ha":917,"o":"m 844 76 l 73 396 l 73 598 l 844 918 l 844 677 l 375 496 l 844 315 l 844 76 "},"¬":{"x_min":85,"x_max":826,"ha":917,"o":"m 85 768 l 826 768 l 826 214 l 605 214 l 605 548 l 85 548 l 85 768 "},"t":{"x_min":38,"x_max":579,"ha":617,"o":"m 417 994 l 417 720 l 569 720 l 569 518 l 417 518 l 417 262 q 425 202 417 216 q 473 179 439 179 q 558 196 503 179 l 579 6 q 387 -16 476 -16 q 235 10 284 -16 q 163 90 186 36 q 140 264 140 144 l 140 518 l 38 518 l 38 720 l 140 720 l 140 852 l 417 994 "},"Ц":{"x_min":103,"x_max":1161,"ha":1194,"o":"m 1161 -216 l 914 -216 l 914 0 l 103 0 l 103 994 l 410 994 l 410 244 l 747 244 l 747 994 l 1054 994 l 1054 229 l 1161 229 l 1161 -216 "},"ù":{"x_min":81,"x_max":842,"ha":926,"o":"m 842 0 l 584 0 l 584 117 q 468 14 526 45 q 324 -16 409 -16 q 145 52 210 -16 q 81 261 81 120 l 81 720 l 358 720 l 358 324 q 383 228 358 256 q 453 200 408 200 q 534 237 502 200 q 566 374 566 275 l 566 720 l 842 720 l 842 0 m 234 1011 l 469 1011 l 580 809 l 450 809 l 234 1011 "},"ï":{"x_min":0,"x_max":465,"ha":463,"o":"m 94 720 l 370 720 l 370 0 l 94 0 l 94 720 m 0 981 l 176 981 l 176 811 l 0 811 l 0 981 m 287 981 l 465 981 l 465 811 l 287 811 l 287 981 "},"Ф":{"x_min":51,"x_max":1235,"ha":1283,"o":"m 782 918 q 1235 511 1235 870 q 782 103 1235 144 l 782 0 l 503 0 l 503 106 q 51 511 51 144 q 503 918 51 871 l 503 994 l 782 994 l 782 918 m 782 312 q 894 386 854 332 q 935 515 935 440 q 893 643 935 586 q 782 724 852 701 l 782 312 m 503 309 l 503 719 q 392 641 434 699 q 351 509 351 583 q 392 386 351 440 q 503 309 434 331 "},"Ò":{"x_min":63,"x_max":1093,"ha":1157,"o":"m 63 496 q 198 875 63 739 q 576 1011 334 1011 q 958 877 824 1011 q 1093 504 1093 744 q 1034 218 1093 330 q 864 45 975 107 q 588 -17 753 -17 q 310 36 420 -17 q 131 206 199 90 q 63 496 63 322 m 370 494 q 425 278 370 344 q 578 213 481 213 q 731 277 677 213 q 786 508 786 341 q 729 713 786 648 q 575 778 672 778 q 426 712 482 778 q 370 494 370 646 m 349 1257 l 584 1257 l 695 1055 l 565 1055 l 349 1257 "},"I":{"x_min":114,"x_max":422,"ha":541,"o":"m 114 994 l 422 994 l 422 0 l 114 0 l 114 994 "},"˝":{"x_min":31,"x_max":637,"ha":463,"o":"m 145 1011 l 365 1011 l 165 811 l 31 811 l 145 1011 m 415 1011 l 637 1011 l 433 811 l 303 811 l 415 1011 "},"·":{"x_min":84,"x_max":379,"ha":463,"o":"m 84 636 l 379 636 l 379 359 l 84 359 l 84 636 "},"¿":{"x_min":49,"x_max":798,"ha":848,"o":"m 315 408 l 573 408 l 573 382 q 558 275 573 316 q 513 200 543 234 q 381 81 484 166 q 326 0 326 36 q 348 -58 326 -37 q 414 -79 370 -79 q 494 -47 463 -79 q 535 64 526 -15 l 798 31 q 692 -202 784 -113 q 410 -291 600 -291 q 172 -229 263 -291 q 49 -6 49 -145 q 80 104 49 50 q 211 235 112 157 q 297 322 279 289 q 315 408 315 355 m 582 477 l 306 477 l 306 720 l 582 720 l 582 477 "},"▫":{"x_min":88.84375,"x_max":402.859375,"ha":492,"o":"m 402 616 l 402 301 l 88 301 l 88 615 l 402 616 m 351 564 l 140 564 l 140 353 l 351 353 l 351 564 "},"ſ":{"x_min":81,"x_max":532,"ha":542,"o":"m 532 998 l 491 829 q 434 837 460 837 q 346 695 346 837 l 346 0 l 81 0 l 81 688 q 161 919 81 827 q 449 1011 242 1011 q 532 998 490 1011 "},"Ђ":{"x_min":36,"x_max":1340,"ha":1394,"o":"m 656 611 q 902 660 791 660 q 1227 571 1115 660 q 1340 316 1340 482 q 1230 75 1340 158 q 910 -8 1120 -8 q 794 2 872 -8 l 836 213 q 910 203 884 203 q 998 230 962 203 q 1035 305 1035 257 q 992 383 1035 356 q 880 411 950 411 q 656 361 777 411 l 656 0 l 349 0 l 349 750 l 36 750 l 36 994 l 968 994 l 968 750 l 656 750 l 656 611 "},"●":{"x_min":120.71875,"x_max":718.234375,"ha":839,"o":"m 419 690 q 630 602 542 690 q 718 392 718 515 q 630 180 718 268 q 419 92 543 92 q 208 180 296 92 q 120 392 120 268 q 209 605 120 520 q 419 690 299 690 "},"ű":{"x_min":81,"x_max":842,"ha":926,"o":"m 842 0 l 584 0 l 584 117 q 468 14 526 45 q 324 -16 409 -16 q 145 52 210 -16 q 81 261 81 120 l 81 720 l 358 720 l 358 324 q 383 228 358 256 q 453 200 408 200 q 534 237 502 200 q 566 374 566 275 l 566 720 l 842 720 l 842 0 m 311 1011 l 531 1011 l 331 811 l 197 811 l 311 1011 m 581 1011 l 803 1011 l 599 811 l 469 811 l 581 1011 "},"Ǽ":{"x_min":-51,"x_max":1339,"ha":1389,"o":"m 377 994 l 1326 994 l 1326 782 l 908 782 l 908 624 l 1288 624 l 1288 421 l 908 421 l 908 225 l 1339 225 l 1339 0 l 619 0 l 619 178 l 323 178 l 258 0 l -51 0 l 377 994 m 550 793 l 407 405 l 619 405 l 619 793 l 550 793 m 791 1269 l 1028 1269 l 809 1066 l 677 1066 l 791 1269 "},"φ":{"x_min":49,"x_max":1177,"ha":1234,"o":"m 475 190 l 475 424 q 548 668 475 600 q 783 736 622 736 q 1074 638 972 736 q 1177 356 1177 540 q 1058 95 1177 198 q 741 -16 939 -7 l 741 -275 l 475 -275 l 475 -14 q 167 97 286 -5 q 49 356 49 199 q 144 627 49 533 q 457 736 240 722 l 413 532 q 342 479 370 522 q 314 374 314 436 q 360 246 314 295 q 475 190 407 197 m 741 187 q 862 241 814 196 q 911 356 911 286 q 881 485 911 438 q 811 532 851 532 q 757 501 773 532 q 741 407 741 470 l 741 187 "},";":{"x_min":84,"x_max":379,"ha":463,"o":"m 84 720 l 379 720 l 379 443 l 84 443 l 84 720 m 84 274 l 379 274 l 379 46 q 326 -150 379 -78 q 148 -279 274 -223 l 84 -158 q 192 -85 162 -121 q 225 0 221 -49 l 84 0 l 84 274 "},"Ș":{"x_min":48,"x_max":950,"ha":1003,"o":"m 48 328 l 340 347 q 378 238 349 275 q 514 178 426 178 q 616 208 580 178 q 652 280 652 239 q 617 349 652 319 q 460 407 583 380 q 171 528 258 452 q 85 720 85 603 q 129 864 85 796 q 262 972 173 933 q 507 1011 352 1011 q 798 940 697 1011 q 917 714 898 869 l 627 698 q 578 795 615 765 q 476 826 541 826 q 396 803 423 826 q 369 747 369 780 q 391 705 369 724 q 494 668 413 685 q 783 580 696 625 q 910 470 870 536 q 950 323 950 404 q 897 147 950 227 q 749 24 844 66 q 509 -17 654 -17 q 158 80 256 -17 q 48 328 60 178 m 412 -82 l 595 -82 l 595 -214 q 564 -330 595 -287 q 460 -405 534 -372 l 412 -334 q 495 -242 494 -298 l 412 -242 l 412 -82 "},"Ġ":{"x_min":64,"x_max":1076,"ha":1157,"o":"m 602 360 l 602 567 l 1076 567 l 1076 143 q 835 16 939 50 q 586 -17 730 -17 q 298 43 409 -17 q 125 223 186 103 q 64 497 64 342 q 131 780 64 659 q 327 962 198 900 q 599 1011 428 1011 q 845 981 763 1011 q 981 888 927 951 q 1062 729 1034 826 l 766 677 q 704 763 747 733 q 592 793 660 793 q 431 722 491 793 q 372 500 372 652 q 432 270 372 339 q 601 201 493 201 q 699 215 653 201 q 807 266 746 230 l 807 360 l 602 360 m 488 1267 l 701 1267 l 701 1064 l 488 1064 l 488 1267 "},"6":{"x_min":58,"x_max":877,"ha":926,"o":"m 856 769 l 581 736 q 544 817 570 793 q 482 841 519 841 q 377 773 415 841 q 338 564 350 724 q 439 638 387 614 q 560 663 491 663 q 785 568 693 663 q 877 327 877 473 q 830 147 877 229 q 701 24 784 66 q 495 -17 619 -17 q 255 33 346 -17 q 111 196 165 84 q 58 491 58 307 q 171 885 58 760 q 485 1011 284 1011 q 672 983 603 1011 q 786 903 741 955 q 856 769 832 850 m 347 327 q 388 200 347 246 q 487 155 428 155 q 578 196 541 155 q 615 319 615 237 q 577 447 615 403 q 482 492 539 492 q 386 449 425 492 q 347 327 347 406 "},"n":{"x_min":83,"x_max":845,"ha":926,"o":"m 83 720 l 340 720 l 340 602 q 456 705 397 674 q 600 736 515 736 q 780 667 715 736 q 845 457 845 599 l 845 0 l 568 0 l 568 395 q 542 491 568 463 q 472 520 517 520 q 390 482 421 520 q 359 345 359 444 l 359 0 l 83 0 l 83 720 "},"ά":{"x_min":53,"x_max":917,"ha":942,"o":"m 917 720 q 845 533 867 634 q 823 350 823 432 q 843 190 823 291 q 907 0 864 88 l 655 0 q 622 81 637 35 q 407 -16 555 -16 q 148 102 244 -16 q 53 372 53 221 q 151 634 53 532 q 409 736 250 736 q 629 642 540 736 q 659 720 637 678 l 917 720 m 442 164 q 522 210 496 164 q 548 358 548 256 q 440 557 548 557 q 358 508 384 557 q 332 358 332 460 q 442 164 332 164 m 615 994 l 493 791 l 361 791 l 405 994 l 615 994 "},"ϊ":{"x_min":0,"x_max":465,"ha":463,"o":"m 94 720 l 370 720 l 370 0 l 94 0 l 94 720 m 0 981 l 176 981 l 176 811 l 0 811 l 0 981 m 287 981 l 465 981 l 465 811 l 287 811 l 287 981 "},"ģ":{"x_min":50,"x_max":843.671875,"ha":926,"o":"m 584 720 l 843 720 l 843 40 l 843 8 q 814 -120 843 -59 q 738 -220 786 -182 q 617 -275 690 -258 q 448 -292 543 -292 q 150 -226 231 -292 q 70 -52 70 -161 q 71 -16 70 -39 l 339 -47 q 370 -98 349 -84 q 446 -119 400 -119 q 535 -87 506 -119 q 565 23 565 -55 l 565 133 q 483 62 524 84 q 346 29 419 29 q 113 155 201 29 q 50 391 50 244 q 131 647 50 559 q 344 736 212 736 q 482 707 428 736 q 584 613 537 679 l 584 720 m 325 370 q 358 255 325 293 q 445 218 391 218 q 532 256 497 218 q 567 374 567 295 q 530 494 567 452 q 440 536 493 536 q 356 497 388 536 q 325 370 325 459 m 562 809 l 379 809 l 379 941 q 409 1057 379 1014 q 513 1132 439 1099 l 562 1061 q 479 969 479 1025 l 562 969 l 562 809 "},"∂":{"x_min":58,"x_max":663,"ha":695,"o":"m 256 780 l 228 780 q 324 926 263 879 q 463 973 385 973 q 614 903 566 973 q 663 706 663 834 q 591 285 663 461 q 429 36 519 108 q 272 -16 363 -16 q 157 10 206 -16 q 83 90 108 37 q 58 198 58 142 q 99 369 58 286 q 202 512 141 452 q 328 602 263 572 q 456 633 393 633 q 616 530 567 633 q 622 617 622 586 q 543 797 622 733 q 409 837 495 837 q 320 823 354 837 q 256 780 286 809 m 605 467 q 545 567 582 537 q 460 598 507 598 q 368 556 413 598 q 271 378 310 502 q 232 142 232 255 q 252 53 232 77 q 312 29 272 29 q 448 108 379 29 q 605 467 560 240 "},"κ":{"x_min":83,"x_max":921,"ha":926,"o":"m 921 0 l 609 0 l 463 288 l 359 187 l 359 0 l 83 0 l 83 720 l 359 720 l 359 481 l 567 720 l 905 720 l 648 468 l 921 0 "},"‡":{"x_min":96,"x_max":840,"ha":926,"o":"m 347 994 l 586 994 l 586 767 l 840 767 l 840 566 l 586 566 l 586 152 l 840 152 l 840 -49 l 586 -49 l 586 -276 l 347 -276 l 347 -49 l 96 -49 l 96 152 l 347 152 l 347 566 l 96 566 l 96 767 l 347 767 l 347 994 "},"ň":{"x_min":83,"x_max":845,"ha":926,"o":"m 83 720 l 340 720 l 340 602 q 456 705 397 674 q 600 736 515 736 q 780 667 715 736 q 845 457 845 599 l 845 0 l 568 0 l 568 395 q 542 491 568 463 q 472 520 517 520 q 390 482 421 520 q 359 345 359 444 l 359 0 l 83 0 l 83 720 m 559 808 l 364 808 l 214 1002 l 381 1002 l 464 898 l 546 1002 l 716 1002 l 559 808 "},"√":{"x_min":57,"x_max":762,"ha":762,"o":"m 711 1268 l 762 1268 l 550 -53 l 214 641 l 79 578 l 57 621 l 261 724 l 535 166 l 711 1268 "},"⁴":{"x_min":28,"x_max":524,"ha":550,"o":"m 305 570 l 28 570 l 28 698 l 311 1011 l 457 1011 l 457 683 l 524 683 l 524 570 l 457 570 l 457 488 l 305 488 l 305 570 m 305 683 l 305 831 l 166 683 l 305 683 "},"ę":{"x_min":49,"x_max":883,"ha":926,"o":"m 883 292 l 330 292 q 365 192 337 225 q 469 146 405 146 q 547 166 510 146 q 595 212 569 179 l 867 187 q 716 31 804 78 q 463 -16 628 -16 q 238 24 320 -16 q 102 152 156 64 q 49 358 49 240 q 157 631 49 527 q 455 736 265 736 q 699 689 610 736 q 836 553 789 642 q 883 323 883 465 l 883 292 m 602 424 q 559 538 593 503 q 467 573 524 573 q 362 520 401 573 q 330 424 337 488 l 602 424 m 422 18 l 537 18 q 524 -79 524 -40 q 549 -157 524 -131 q 619 -184 574 -184 q 706 -166 651 -184 l 706 -271 q 561 -303 621 -303 q 435 -259 480 -303 q 390 -144 390 -216 q 422 18 390 -83 "},"į":{"x_min":93,"x_max":417,"ha":463,"o":"m 417 -271 q 274 -302 340 -302 q 148 -259 194 -302 q 103 -144 103 -216 q 130 0 103 -85 l 93 0 l 93 720 l 370 720 l 370 0 l 245 0 q 237 -80 237 -43 q 331 -184 237 -184 q 417 -166 362 -184 l 417 -271 m 94 994 l 370 994 l 370 807 l 94 807 l 94 994 "},"Τ":{"x_min":32,"x_max":965,"ha":1003,"o":"m 32 994 l 965 994 l 965 748 l 652 748 l 652 0 l 345 0 l 345 748 l 32 748 l 32 994 "},"≈":{"x_min":67,"x_max":845,"ha":917,"o":"m 845 823 l 845 603 q 718 518 767 539 q 619 498 670 498 q 540 509 579 498 q 415 564 500 521 q 282 607 331 607 q 67 497 178 607 l 67 720 q 185 800 130 776 q 305 825 239 825 q 374 814 338 825 q 482 768 411 803 q 583 725 553 734 q 639 717 613 717 q 845 823 730 717 m 845 496 l 845 275 q 718 191 767 212 q 619 170 670 170 q 540 181 579 170 q 415 236 500 193 q 282 279 331 279 q 67 170 178 279 l 67 393 q 185 473 130 449 q 305 497 239 497 q 374 486 338 497 q 482 441 411 475 q 583 397 553 406 q 639 389 613 389 q 845 496 730 389 "},"ΐ":{"x_min":-1,"x_max":465,"ha":463,"o":"m 94 720 l 370 720 l 370 0 l 94 0 l 94 720 m 378 1234 l 256 1031 l 124 1031 l 168 1234 l 378 1234 m 465 811 l 287 811 l 287 981 l 465 981 l 465 811 m 177 811 l -1 811 l -1 981 l 177 981 l 177 811 "},"ĸ":{"x_min":83,"x_max":921,"ha":926,"o":"m 921 0 l 609 0 l 463 288 l 359 187 l 359 0 l 83 0 l 83 720 l 359 720 l 359 481 l 567 720 l 905 720 l 648 468 l 921 0 "},"g":{"x_min":50,"x_max":843.671875,"ha":926,"o":"m 584 720 l 843 720 l 843 40 l 843 8 q 814 -120 843 -59 q 738 -220 786 -182 q 617 -275 690 -258 q 448 -292 543 -292 q 150 -226 231 -292 q 70 -52 70 -161 q 71 -16 70 -39 l 339 -47 q 370 -98 349 -84 q 446 -119 400 -119 q 535 -87 506 -119 q 565 23 565 -55 l 565 133 q 483 62 524 84 q 346 29 419 29 q 113 155 201 29 q 50 391 50 244 q 131 647 50 559 q 344 736 212 736 q 482 707 428 736 q 584 613 537 679 l 584 720 m 325 370 q 358 255 325 293 q 445 218 391 218 q 532 256 497 218 q 567 374 567 295 q 530 494 567 452 q 440 536 493 536 q 356 497 388 536 q 325 370 325 459 "},"ǿ":{"x_min":50,"x_max":876,"ha":926,"o":"m 781 783 l 852 720 l 768 627 q 845 516 815 587 q 876 360 876 444 q 766 89 876 195 q 470 -16 657 -16 q 335 -3 393 -16 q 234 34 295 5 l 144 -65 l 73 0 l 159 92 q 75 215 101 153 q 50 356 50 278 q 160 629 50 522 q 456 736 270 736 q 591 721 532 736 q 690 683 631 712 l 781 783 m 556 531 q 524 555 537 549 q 464 566 497 566 q 352 513 396 566 q 308 354 308 461 q 319 269 308 318 l 556 531 m 369 184 q 406 160 391 166 q 465 151 433 151 q 574 203 531 151 q 618 368 618 255 q 606 447 618 402 l 369 184 m 455 1011 l 692 1011 l 473 808 l 341 808 l 455 1011 "},"²":{"x_min":15,"x_max":537,"ha":555,"o":"m 537 502 l 15 502 q 69 607 31 563 q 237 738 107 652 q 333 813 312 789 q 353 857 353 838 q 337 891 353 878 q 290 904 322 904 q 234 885 257 904 q 202 827 212 867 l 35 841 q 67 922 47 895 q 153 986 96 962 q 297 1011 210 1011 q 477 966 420 1011 q 535 858 535 921 q 506 772 535 812 q 409 693 477 732 q 300 626 342 653 l 537 626 l 537 502 "},"┘":{"x_min":-14.25,"x_max":552.078125,"ha":986,"o":"m 552 362 l -14 362 l -14 480 l 433 480 l 433 1264 l 552 1264 l 552 362 "},"Ã":{"x_min":2,"x_max":1084,"ha":1080,"o":"m 712 164 l 364 164 l 315 0 l 2 0 l 375 994 l 711 994 l 1084 0 l 762 0 l 712 164 m 648 379 l 539 736 l 430 379 l 648 379 m 678 1240 l 785 1240 q 785 1209 785 1222 q 747 1093 785 1134 q 650 1052 709 1052 q 518 1087 606 1052 q 445 1109 465 1109 q 414 1096 425 1109 q 403 1054 403 1084 l 297 1054 q 296 1082 296 1070 q 336 1197 296 1154 q 431 1240 376 1240 q 475 1234 454 1240 q 553 1205 496 1229 q 635 1182 610 1182 q 665 1194 654 1182 q 678 1240 676 1206 "},"▲":{"x_min":206.1875,"x_max":1169.25,"ha":1375,"o":"m 206 0 l 687 962 l 1169 0 l 206 0 "},"Ј":{"x_min":24,"x_max":823,"ha":926,"o":"m 515 994 l 823 994 l 823 453 q 792 195 823 283 q 671 44 762 106 q 438 -17 580 -17 q 204 23 287 -17 q 77 142 122 64 q 24 336 32 220 l 318 376 q 329 278 318 310 q 365 226 340 246 q 415 214 383 214 q 491 252 467 214 q 515 381 515 290 l 515 994 "},"‾":{"x_min":-8,"x_max":703,"ha":695,"o":"m 703 1199 l -8 1199 l -8 1268 l 703 1268 l 703 1199 "},"⌠":{"x_min":367.59375,"x_max":659.234375,"ha":834,"o":"m 465 -349 l 367 -349 l 367 880 q 425 1099 367 1020 q 565 1178 484 1178 q 632 1159 605 1178 q 659 1104 659 1140 q 641 1059 659 1076 q 599 1041 623 1041 q 561 1050 576 1041 q 533 1083 547 1060 q 501 1108 516 1108 q 473 1091 481 1108 q 465 987 465 1074 l 465 -349 "},"©":{"x_min":39,"x_max":1075,"ha":1111,"o":"m 1075 493 q 1005 234 1075 354 q 815 45 935 114 q 556 -24 695 -24 q 298 45 418 -24 q 108 234 178 114 q 39 493 39 354 q 108 752 39 631 q 298 941 178 872 q 556 1011 418 1011 q 815 941 695 1011 q 1005 752 935 872 q 1075 493 1075 631 m 975 493 q 852 788 975 666 q 557 911 730 911 q 261 788 383 911 q 139 493 139 666 q 261 198 139 320 q 557 76 383 76 q 852 198 730 76 q 975 493 975 320 m 677 430 l 817 396 q 745 270 791 314 q 560 202 674 202 q 356 282 435 202 q 278 495 278 362 q 358 702 278 620 q 560 784 439 784 q 726 731 659 784 q 811 596 793 679 l 677 576 q 632 658 664 631 q 554 685 600 685 q 465 639 501 685 q 430 498 430 594 q 454 359 430 401 q 555 300 490 300 q 629 330 597 300 q 677 430 662 361 "},"≥":{"x_min":71,"x_max":851,"ha":917,"o":"m 71 185 l 851 503 l 851 703 l 71 1026 l 71 788 l 548 604 l 71 422 l 71 185 m 851 135 l 71 135 l 71 -84 l 851 -84 l 851 135 "},"Ă":{"x_min":2,"x_max":1084,"ha":1080,"o":"m 712 164 l 364 164 l 315 0 l 2 0 l 375 994 l 711 994 l 1084 0 l 762 0 l 712 164 m 648 379 l 539 736 l 430 379 l 648 379 m 659 1263 l 771 1263 q 740 1154 766 1198 q 660 1084 714 1110 q 544 1058 606 1058 q 379 1111 441 1058 q 308 1263 318 1165 l 425 1263 q 463 1206 438 1223 q 538 1190 488 1190 q 622 1206 597 1190 q 659 1263 648 1223 "},"ґ":{"x_min":93,"x_max":627,"ha":650,"o":"m 627 519 l 370 519 l 370 0 l 93 0 l 93 720 l 449 720 l 449 926 l 627 926 l 627 519 "},"ÿ":{"x_min":3,"x_max":853,"ha":848,"o":"m 3 720 l 294 720 l 443 240 l 581 720 l 853 720 l 567 -49 q 467 -227 518 -181 q 249 -292 396 -292 q 64 -275 189 -292 l 43 -83 q 175 -102 102 -102 q 254 -79 224 -102 q 305 0 284 -57 l 3 720 m 193 981 l 369 981 l 369 811 l 193 811 l 193 981 m 480 981 l 658 981 l 658 811 l 480 811 l 480 981 "},"Ł":{"x_min":0,"x_max":887,"ha":926,"o":"m 102 994 l 409 994 l 409 719 l 624 882 l 624 692 l 409 529 l 409 245 l 887 245 l 887 0 l 102 0 l 102 296 l 0 219 l 0 409 l 102 486 l 102 994 "},"∫":{"x_min":-2,"x_max":377,"ha":376,"o":"m 134 643 l 146 1015 q 167 1141 152 1091 q 198 1212 182 1192 q 240 1248 213 1233 q 292 1264 267 1264 q 351 1241 326 1264 q 377 1191 377 1218 q 359 1140 377 1159 q 314 1121 341 1121 q 263 1145 290 1121 q 236 1158 247 1158 q 216 1149 224 1158 q 208 1115 208 1139 q 215 1017 208 1087 q 240 566 240 739 q 230 209 240 520 q 217 35 227 97 q 181 -83 203 -47 q 134 -134 160 -119 q 77 -149 108 -149 q 20 -125 42 -149 q -2 -67 -2 -102 q 15 -18 -2 -36 q 58 0 32 0 q 105 -21 85 0 q 138 -43 125 -43 q 157 -33 150 -43 q 165 -1 165 -24 q 158 79 165 26 q 134 643 134 293 "},"\\":{"x_min":-4,"x_max":385,"ha":386,"o":"m 136 1011 l -4 1011 l 245 -17 l 385 -17 l 136 1011 "},"Ì":{"x_min":41,"x_max":422,"ha":541,"o":"m 114 994 l 422 994 l 422 0 l 114 0 l 114 994 m 41 1257 l 276 1257 l 387 1055 l 257 1055 l 41 1257 "},"ъ":{"x_min":5,"x_max":1021,"ha":1071,"o":"m 575 464 l 701 464 q 1021 230 1021 464 q 710 0 1021 0 l 298 0 l 298 519 l 5 519 l 5 720 l 575 720 l 575 464 m 575 170 l 665 170 q 720 185 699 170 q 742 230 742 201 q 665 296 742 296 l 575 296 l 575 170 "},"ς":{"x_min":53,"x_max":725,"ha":733,"o":"m 725 708 l 666 509 q 515 532 569 532 q 377 478 434 532 q 321 344 321 424 q 350 278 321 311 q 509 182 379 246 q 678 69 638 118 q 718 -34 718 19 q 625 -224 718 -156 q 371 -292 533 -292 q 226 -286 316 -292 l 260 -106 q 362 -113 325 -113 q 473 -66 473 -113 q 449 -22 473 -43 q 334 35 426 0 q 188 102 243 72 q 93 186 133 133 q 53 320 53 240 q 183 619 53 502 q 520 736 313 736 q 725 708 636 736 "},"∩":{"x_min":130.21875,"x_max":868.796875,"ha":998,"o":"m 204 0 l 130 0 l 130 379 q 131 534 130 459 q 145 664 132 608 q 185 766 157 720 q 263 853 213 813 q 374 916 312 894 q 499 938 435 938 q 681 890 596 938 q 807 776 765 843 q 858 637 849 710 q 868 379 868 563 l 868 0 l 794 0 l 794 383 q 786 610 794 541 q 746 734 778 678 q 644 828 713 789 q 499 866 575 866 q 353 827 421 866 q 252 734 284 788 q 212 611 221 680 q 204 383 204 541 l 204 0 "},"↕":{"x_min":103.09375,"x_max":590.734375,"ha":695,"o":"m 331 992 l 362 992 q 590 716 415 868 l 590 661 q 379 794 474 708 l 379 -91 q 590 40 474 -6 l 590 -13 q 362 -289 415 -166 l 331 -289 q 103 -13 278 -166 l 103 40 q 314 -91 219 -6 l 314 794 q 103 661 219 708 l 103 716 q 331 992 278 868 "},"Ē":{"x_min":101,"x_max":939,"ha":1003,"o":"m 101 994 l 924 994 l 924 782 l 409 782 l 409 624 l 887 624 l 887 421 l 409 421 l 409 225 l 939 225 l 939 0 l 101 0 l 101 994 m 304 1212 l 743 1212 l 743 1065 l 304 1065 l 304 1212 "},"!":{"x_min":84,"x_max":379,"ha":463,"o":"m 84 994 l 379 994 l 379 767 l 321 312 l 139 312 l 84 767 l 84 994 m 94 243 l 369 243 l 369 0 l 94 0 l 94 243 "},"ç":{"x_min":50,"x_max":883,"ha":926,"o":"m 621 282 l 883 252 q 811 110 861 170 q 685 17 762 50 q 489 -16 608 -16 q 298 5 374 -16 q 167 74 222 26 q 81 186 112 122 q 50 356 50 250 q 88 541 50 467 q 163 638 115 595 q 263 702 212 681 q 470 736 343 736 q 739 673 646 736 q 869 489 831 610 l 609 454 q 564 523 596 500 q 478 547 532 547 q 367 497 409 547 q 325 349 325 448 q 367 214 325 260 q 474 169 409 169 q 565 196 528 169 q 621 282 602 224 m 310 -112 l 330 -32 q 449 -17 394 -17 q 609 -56 565 -17 q 654 -148 654 -95 q 633 -215 654 -181 q 562 -271 613 -250 q 425 -292 510 -292 q 243 -274 347 -292 l 243 -191 q 393 -205 313 -205 q 472 -189 451 -205 q 493 -148 493 -173 q 476 -115 493 -129 q 423 -101 459 -101 q 310 -112 375 -101 "},"Й":{"x_min":102,"x_max":1053,"ha":1157,"o":"m 1053 994 l 1053 0 l 764 0 l 764 545 l 392 0 l 102 0 l 102 994 l 392 994 l 392 444 l 766 994 l 1053 994 m 828 1240 q 745 1101 813 1154 q 583 1049 677 1049 q 421 1102 489 1049 q 339 1240 352 1155 l 457 1240 q 580 1155 485 1155 q 710 1240 682 1155 l 828 1240 "},"Б":{"x_min":103,"x_max":1018,"ha":1080,"o":"m 410 611 l 574 611 q 908 531 799 611 q 1018 283 1018 451 q 917 72 1018 145 q 630 0 817 0 l 103 0 l 103 994 l 940 994 l 940 793 l 410 793 l 410 611 m 410 214 l 566 214 q 711 318 711 214 q 566 410 711 410 l 410 410 l 410 214 "},"đ":{"x_min":49,"x_max":966,"ha":926,"o":"m 841 916 l 966 916 l 966 805 l 841 805 l 841 0 l 582 0 l 582 106 q 483 15 528 38 q 350 -16 423 -16 q 126 95 204 -16 q 49 367 49 207 q 134 641 49 546 q 352 736 220 736 q 468 714 416 736 q 562 649 521 692 l 562 805 l 355 805 l 355 916 l 562 916 l 562 994 l 841 994 l 841 916 m 564 362 q 528 488 564 446 q 437 530 492 530 q 357 490 389 530 q 325 355 325 450 q 358 226 325 267 q 441 186 391 186 q 528 227 493 186 q 564 362 564 268 "},"ċ":{"x_min":50,"x_max":883,"ha":926,"o":"m 621 282 l 883 252 q 811 110 861 170 q 685 17 762 50 q 489 -16 608 -16 q 298 5 374 -16 q 167 74 222 26 q 81 186 112 122 q 50 356 50 250 q 88 541 50 467 q 163 638 115 595 q 263 702 212 681 q 470 736 343 736 q 739 673 646 736 q 869 489 831 610 l 609 454 q 564 523 596 500 q 478 547 532 547 q 367 497 409 547 q 325 349 325 448 q 367 214 325 260 q 474 169 409 169 q 565 196 528 169 q 621 282 602 224 m 363 1015 l 576 1015 l 576 812 l 363 812 l 363 1015 "},"Ā":{"x_min":2,"x_max":1084,"ha":1080,"o":"m 712 164 l 364 164 l 315 0 l 2 0 l 375 994 l 711 994 l 1084 0 l 762 0 l 712 164 m 648 379 l 539 736 l 430 379 l 648 379 m 320 1212 l 759 1212 l 759 1065 l 320 1065 l 320 1212 "},"Ẃ":{"x_min":0,"x_max":1390,"ha":1389,"o":"m 0 994 l 291 994 l 397 441 l 550 994 l 840 994 l 994 440 l 1099 994 l 1390 994 l 1170 0 l 869 0 l 695 625 l 521 0 l 220 0 l 0 994 m 663 1266 l 900 1266 l 681 1063 l 549 1063 l 663 1266 "},"ø":{"x_min":50,"x_max":876,"ha":926,"o":"m 781 783 l 852 720 l 768 627 q 845 516 815 587 q 876 360 876 444 q 766 89 876 195 q 470 -16 657 -16 q 335 -3 393 -16 q 234 34 295 5 l 144 -65 l 73 0 l 159 92 q 75 215 101 153 q 50 356 50 278 q 160 629 50 522 q 456 736 270 736 q 591 721 532 736 q 690 683 631 712 l 781 783 m 556 531 q 524 555 537 549 q 464 566 497 566 q 352 513 396 566 q 308 354 308 461 q 319 269 308 318 l 556 531 m 369 184 q 406 160 391 166 q 465 151 433 151 q 574 203 531 151 q 618 368 618 255 q 606 447 618 402 l 369 184 "},"â":{"x_min":50,"x_max":878.59375,"ha":926,"o":"m 336 487 l 72 515 q 115 623 86 583 q 195 692 143 663 q 300 724 233 713 q 443 736 366 736 q 642 722 567 736 q 768 664 718 708 q 823 577 803 633 q 844 471 844 521 l 844 153 q 850 73 844 102 q 878 0 856 44 l 619 0 q 599 42 603 27 q 589 88 594 56 q 481 13 535 36 q 312 -16 408 -16 q 116 43 183 -16 q 50 190 50 103 q 98 325 50 272 q 275 404 146 378 q 476 448 430 435 q 574 481 522 460 q 553 551 574 531 q 479 572 532 572 q 378 550 412 572 q 336 487 352 533 m 574 342 q 455 306 517 321 q 349 261 372 283 q 327 210 327 239 q 349 157 327 178 q 416 137 372 137 q 501 159 461 137 q 557 214 540 181 q 574 297 574 246 l 574 342 m 367 1002 l 563 1002 l 714 808 l 545 808 l 463 911 l 380 808 l 212 808 l 367 1002 "},"}":{"x_min":15,"x_max":523,"ha":541,"o":"m 15 1011 l 15 789 l 45 789 q 109 771 87 789 q 139 715 130 753 q 144 604 143 695 q 163 460 145 512 q 202 396 177 420 q 265 358 221 377 q 198 315 220 337 q 160 246 176 292 q 145 98 145 199 q 135 -21 145 6 q 103 -60 125 -48 q 15 -72 81 -72 l 15 -292 l 100 -292 q 288 -263 233 -292 q 368 -179 344 -234 q 392 -13 392 -123 q 390 35 392 10 q 390 65 390 50 q 404 177 390 144 q 445 225 418 210 q 523 242 472 240 l 523 475 q 444 491 470 475 q 404 541 418 507 q 391 654 391 574 l 391 677 q 391 708 391 693 q 371 882 391 828 q 316 964 351 935 q 244 996 289 985 q 106 1011 184 1011 l 15 1011 "},"ț":{"x_min":38,"x_max":579,"ha":617,"o":"m 417 994 l 417 720 l 569 720 l 569 518 l 417 518 l 417 262 q 425 202 417 216 q 473 179 439 179 q 558 196 503 179 l 579 6 q 387 -16 476 -16 q 235 10 284 -16 q 163 90 186 36 q 140 264 140 144 l 140 518 l 38 518 l 38 720 l 140 720 l 140 852 l 417 994 m 240 -82 l 423 -82 l 423 -214 q 392 -330 423 -287 q 288 -405 362 -372 l 240 -334 q 323 -242 322 -298 l 240 -242 l 240 -82 "},"Δ":{"x_min":-1,"x_max":1082,"ha":1080,"o":"m 1082 0 l -1 0 l 371 994 l 708 994 l 1082 0 m 698 214 l 539 735 l 375 214 l 698 214 "},"‰":{"x_min":0,"x_max":1389,"ha":1389,"o":"m 0 749 q 56 947 0 884 q 205 1011 113 1011 q 354 948 297 1011 q 412 756 412 885 q 355 551 412 614 q 205 488 298 488 q 56 551 113 488 q 0 749 0 614 m 143 749 q 160 621 143 648 q 205 594 178 594 q 250 621 232 594 q 268 749 268 648 q 250 876 268 849 q 205 904 232 904 q 160 876 178 904 q 143 749 143 849 m 593 1011 l 715 1011 l 327 -50 l 207 -50 l 593 1011 m 504 212 q 560 410 504 347 q 709 474 617 474 q 858 410 801 474 q 916 218 916 347 q 859 13 916 76 q 709 -50 802 -50 q 560 13 617 -50 q 504 212 504 76 m 647 211 q 664 83 647 110 q 709 56 682 56 q 754 83 736 56 q 772 211 772 110 q 754 339 772 311 q 709 367 736 367 q 664 339 682 367 q 647 211 647 311 m 978 212 q 1034 410 978 347 q 1183 474 1091 474 q 1332 410 1275 474 q 1389 218 1389 347 q 1332 13 1389 76 q 1183 -50 1276 -50 q 1034 13 1091 -50 q 978 212 978 76 m 1121 211 q 1138 83 1121 110 q 1183 56 1156 56 q 1228 83 1210 56 q 1246 211 1246 110 q 1228 339 1246 311 q 1183 367 1210 367 q 1138 339 1156 367 q 1121 211 1121 311 "},"Ä":{"x_min":2,"x_max":1084,"ha":1080,"o":"m 712 164 l 364 164 l 315 0 l 2 0 l 375 994 l 711 994 l 1084 0 l 762 0 l 712 164 m 648 379 l 539 736 l 430 379 l 648 379 m 309 1227 l 485 1227 l 485 1057 l 309 1057 l 309 1227 m 596 1227 l 774 1227 l 774 1057 l 596 1057 l 596 1227 "},"ř":{"x_min":86,"x_max":653,"ha":617,"o":"m 86 720 l 344 720 l 344 602 q 421 707 381 678 q 519 736 460 736 q 653 698 580 736 l 567 501 q 490 522 518 522 q 405 477 435 522 q 363 241 363 414 l 363 0 l 86 0 l 86 720 m 452 808 l 257 808 l 107 1002 l 274 1002 l 357 898 l 439 1002 l 609 1002 l 452 808 "},"♠":{"x_min":38.65625,"x_max":697.890625,"ha":736,"o":"m 368 834 q 412 720 381 779 q 550 564 444 661 q 665 441 633 489 q 697 336 697 394 q 653 229 697 273 q 549 186 609 186 q 376 315 444 186 q 445 94 376 159 q 632 25 514 29 l 637 0 l 100 0 l 105 25 q 295 94 225 25 q 365 293 365 163 q 364 315 365 300 q 187 186 303 186 q 82 230 126 186 q 38 335 38 274 q 74 447 38 398 q 166 543 109 497 q 368 834 343 689 "},"—":{"x_min":-8,"x_max":1397,"ha":1389,"o":"m -8 439 l 1397 439 l 1397 288 l -8 288 l -8 439 "},"N":{"x_min":104,"x_max":1055,"ha":1157,"o":"m 104 994 l 390 994 l 765 444 l 765 994 l 1055 994 l 1055 0 l 765 0 l 393 546 l 393 0 l 104 0 l 104 994 "},"⁄":{"x_min":-269,"x_max":501,"ha":232,"o":"m 355 1011 l 501 1011 l -124 -36 l -269 -36 l 355 1011 "},"2":{"x_min":37,"x_max":865,"ha":926,"o":"m 865 0 l 37 0 q 123 230 51 122 q 393 486 195 338 q 549 623 515 576 q 583 712 583 670 q 549 789 583 757 q 465 822 516 822 q 378 788 412 822 q 334 671 345 755 l 57 693 q 116 875 73 810 q 238 976 160 941 q 457 1011 317 1011 q 684 977 603 1011 q 811 875 765 944 q 858 721 858 806 q 804 547 858 630 q 611 366 751 465 q 500 285 528 308 q 433 225 471 262 l 865 225 l 865 0 "},"М":{"x_min":98,"x_max":1217,"ha":1311,"o":"m 98 994 l 502 994 l 658 389 l 812 994 l 1217 994 l 1217 0 l 965 0 l 965 758 l 771 0 l 543 0 l 350 758 l 350 0 l 98 0 l 98 994 "},"Ó":{"x_min":63,"x_max":1093,"ha":1157,"o":"m 63 496 q 198 875 63 739 q 576 1011 334 1011 q 958 877 824 1011 q 1093 504 1093 744 q 1034 218 1093 330 q 864 45 975 107 q 588 -17 753 -17 q 310 36 420 -17 q 131 206 199 90 q 63 496 63 322 m 370 494 q 425 278 370 344 q 578 213 481 213 q 731 277 677 213 q 786 508 786 341 q 729 713 786 648 q 575 778 672 778 q 426 712 482 778 q 370 494 370 646 m 571 1257 l 808 1257 l 589 1054 l 457 1054 l 571 1257 "},"˜":{"x_min":-13.671875,"x_max":475.671875,"ha":463,"o":"m 368 994 l 475 994 q 475 963 475 976 q 437 847 475 888 q 340 806 399 806 q 208 841 296 806 q 135 863 155 863 q 104 850 115 863 q 93 808 93 838 l -13 808 q -13 836 -13 824 q 26 951 -13 908 q 121 994 66 994 q 165 988 144 994 q 243 959 186 983 q 325 936 300 936 q 355 948 344 936 q 368 994 366 960 "},"ˇ":{"x_min":-19,"x_max":483,"ha":463,"o":"m 326 808 l 131 808 l -19 1002 l 148 1002 l 231 898 l 313 1002 l 483 1002 l 326 808 "},"ų":{"x_min":81,"x_max":872,"ha":926,"o":"m 872 -271 q 729 -302 794 -302 q 603 -259 649 -302 q 557 -144 557 -216 q 571 -49 557 -102 l 584 0 l 584 116 l 581 116 q 325 -17 489 -17 q 142 54 204 -17 q 81 261 81 126 l 81 720 l 357 720 l 357 323 q 454 199 357 199 q 537 238 508 199 q 567 374 567 278 l 567 720 l 843 720 l 843 0 l 700 0 q 692 -80 692 -43 q 786 -184 692 -184 q 872 -166 817 -184 l 872 -271 "},"Ў":{"x_min":8,"x_max":928,"ha":933,"o":"m 8 994 l 342 994 l 479 584 l 615 994 l 928 994 l 601 226 q 531 87 561 133 q 443 12 502 42 q 282 -17 384 -17 q 96 -1 228 -17 l 96 204 q 209 196 173 196 q 339 275 316 196 l 8 994 m 699 1269 q 630 1117 697 1170 q 472 1065 563 1065 q 304 1118 365 1065 q 236 1269 244 1172 l 353 1269 q 467 1197 373 1197 q 548 1211 518 1197 q 588 1269 577 1225 l 699 1269 "},"Ŭ":{"x_min":102,"x_max":1055,"ha":1157,"o":"m 748 994 l 1055 994 l 1055 401 q 1027 235 1055 313 q 941 98 1000 157 q 818 16 882 39 q 603 -17 728 -17 q 444 -6 530 -17 q 301 33 359 3 q 195 119 243 63 q 130 233 148 174 q 102 401 102 328 l 102 994 l 409 994 l 409 387 q 454 260 409 306 q 578 215 499 215 q 703 260 658 215 q 748 387 748 305 l 748 994 m 697 1271 l 809 1271 q 778 1162 804 1206 q 698 1092 752 1118 q 582 1066 644 1066 q 417 1119 479 1066 q 346 1271 356 1173 l 463 1271 q 501 1214 476 1231 q 576 1198 526 1198 q 660 1214 635 1198 q 697 1271 686 1231 "},"≡":{"x_min":86.140625,"x_max":747.40625,"ha":834,"o":"m 747 678 l 747 594 l 86 594 l 86 678 l 747 678 m 747 514 l 747 431 l 86 431 l 86 514 l 747 514 m 747 350 l 747 267 l 86 267 l 86 350 l 747 350 "},"ĝ":{"x_min":50,"x_max":843.671875,"ha":926,"o":"m 584 720 l 843 720 l 843 40 l 843 8 q 814 -120 843 -59 q 738 -220 786 -182 q 617 -275 690 -258 q 448 -292 543 -292 q 150 -226 231 -292 q 70 -52 70 -161 q 71 -16 70 -39 l 339 -47 q 370 -98 349 -84 q 446 -119 400 -119 q 535 -87 506 -119 q 565 23 565 -55 l 565 133 q 483 62 524 84 q 346 29 419 29 q 113 155 201 29 q 50 391 50 244 q 131 647 50 559 q 344 736 212 736 q 482 707 428 736 q 584 613 537 679 l 584 720 m 325 370 q 358 255 325 293 q 445 218 391 218 q 532 256 497 218 q 567 374 567 295 q 530 494 567 452 q 440 536 493 536 q 356 497 388 536 q 325 370 325 459 m 366 1002 l 562 1002 l 713 808 l 544 808 l 462 911 l 379 808 l 211 808 l 366 1002 "},"Ω":{"x_min":98,"x_max":1098,"ha":1186,"o":"m 374 139 q 248 215 295 172 q 146 362 180 276 q 113 549 113 447 q 242 889 113 760 q 587 1019 372 1019 q 851 965 745 1019 q 1020 799 957 911 q 1084 551 1084 687 q 1020 306 1084 414 q 825 141 957 199 l 1049 157 l 1098 157 l 1098 0 l 662 0 l 662 164 q 766 235 727 196 q 843 367 817 290 q 870 531 870 445 q 792 784 870 698 q 594 870 714 870 q 401 782 479 870 q 324 534 324 694 q 353 363 324 442 q 438 229 383 284 q 536 164 473 193 l 536 0 l 98 0 l 98 156 l 164 156 l 374 139 "},"╕":{"x_min":-14.25,"x_max":552.078125,"ha":986,"o":"m 433 233 l -14 233 l -14 352 l 433 352 l 433 491 l -14 491 l -14 609 l 552 609 l 552 -421 l 433 -421 l 433 233 "},"s":{"x_min":34,"x_max":800,"ha":848,"o":"m 34 200 l 308 226 q 355 156 324 177 q 437 135 386 135 q 523 158 492 135 q 547 202 547 176 q 515 248 547 232 q 397 276 493 260 q 197 323 253 301 q 103 395 141 344 q 65 511 65 446 q 106 633 65 582 q 220 710 147 685 q 415 736 292 736 q 605 716 543 736 q 707 655 666 696 q 776 544 748 614 l 514 518 q 480 568 503 552 q 401 590 447 590 q 333 573 354 590 q 312 533 312 556 q 339 493 312 506 q 456 468 366 479 q 661 425 594 453 q 764 346 728 397 q 800 233 800 295 q 762 112 800 171 q 643 18 724 53 q 422 -16 562 -16 q 141 40 225 -16 q 34 200 57 96 "},"?":{"x_min":50,"x_max":799,"ha":848,"o":"m 532 312 l 274 312 l 274 337 q 289 444 274 403 q 334 519 304 485 q 467 638 363 553 q 522 720 522 683 q 499 778 522 757 q 433 799 477 799 q 353 767 384 799 q 313 656 321 735 l 50 688 q 155 922 63 833 q 437 1011 247 1011 q 675 949 584 1011 q 799 726 799 865 q 767 615 799 669 q 636 484 735 562 q 550 397 568 430 q 532 312 532 364 m 266 243 l 542 243 l 542 0 l 266 0 l 266 243 "},"Ņ":{"x_min":104,"x_max":1055,"ha":1157,"o":"m 104 994 l 390 994 l 765 444 l 765 994 l 1055 994 l 1055 0 l 765 0 l 393 546 l 393 0 l 104 0 l 104 994 m 452 -112 l 472 -32 q 591 -17 536 -17 q 751 -56 707 -17 q 796 -148 796 -95 q 775 -215 796 -181 q 704 -271 755 -250 q 567 -292 652 -292 q 385 -274 489 -292 l 385 -191 q 535 -205 455 -205 q 614 -189 593 -205 q 635 -148 635 -173 q 618 -115 635 -129 q 565 -101 601 -101 q 452 -112 517 -101 "},"Ī":{"x_min":52,"x_max":491,"ha":541,"o":"m 114 994 l 422 994 l 422 0 l 114 0 l 114 994 m 52 1212 l 491 1212 l 491 1065 l 52 1065 l 52 1212 "},"Μ":{"x_min":98,"x_max":1217,"ha":1311,"o":"m 98 994 l 502 994 l 658 389 l 812 994 l 1217 994 l 1217 0 l 965 0 l 965 758 l 771 0 l 543 0 l 350 758 l 350 0 l 98 0 l 98 994 "},"•":{"x_min":122,"x_max":572,"ha":695,"o":"m 572 489 q 506 330 572 396 q 347 264 440 264 q 187 330 253 264 q 122 489 122 396 q 187 648 122 582 q 347 714 253 714 q 506 648 440 714 q 572 489 572 582 "},"н":{"x_min":93,"x_max":897,"ha":990,"o":"m 897 0 l 620 0 l 620 272 l 370 272 l 370 0 l 93 0 l 93 720 l 370 720 l 370 473 l 620 473 l 620 720 l 897 720 l 897 0 "},"(":{"x_min":76,"x_max":486,"ha":541,"o":"m 314 1011 l 486 1011 q 358 647 397 814 q 325 345 325 505 q 486 -292 325 35 l 314 -292 q 129 45 182 -105 q 76 361 76 196 q 131 687 76 533 q 314 1011 187 842 "},"◊":{"x_min":32,"x_max":656,"ha":686,"o":"m 372 964 l 656 480 l 372 0 l 296 0 l 32 480 l 296 964 l 372 964 m 335 898 l 105 480 l 335 63 l 579 480 l 335 898 "},"▬":{"x_min":0,"x_max":1388.328125,"ha":1389,"o":"m 0 476 l 1388 476 l 1388 215 l 0 215 l 0 476 "},"α":{"x_min":53,"x_max":917,"ha":942,"o":"m 917 720 q 845 533 867 634 q 823 350 823 432 q 843 190 823 291 q 907 0 864 88 l 655 0 q 622 81 637 35 q 407 -16 555 -16 q 148 102 244 -16 q 53 372 53 221 q 151 634 53 532 q 409 736 250 736 q 629 642 540 736 q 659 720 637 678 l 917 720 m 442 164 q 522 210 496 164 q 548 358 548 256 q 440 557 548 557 q 358 508 384 557 q 332 358 332 460 q 442 164 332 164 "},"■":{"x_min":96.3125,"x_max":736.546875,"ha":834,"o":"m 96 640 l 736 640 l 736 0 l 96 0 l 96 640 "},"Ħ":{"x_min":12,"x_max":1145,"ha":1157,"o":"m 1145 747 l 1054 747 l 1054 0 l 747 0 l 747 401 l 410 401 l 410 0 l 103 0 l 103 747 l 12 747 l 12 897 l 103 897 l 103 994 l 410 994 l 410 897 l 747 897 l 747 994 l 1054 994 l 1054 897 l 1145 897 l 1145 747 m 747 645 l 747 747 l 410 747 l 410 645 l 747 645 "},"м":{"x_min":93,"x_max":1081,"ha":1175,"o":"m 1081 0 l 848 0 l 848 451 l 677 0 l 510 0 l 326 451 l 326 0 l 93 0 l 93 720 l 422 720 l 594 306 l 751 720 l 1081 720 l 1081 0 "},"з":{"x_min":52,"x_max":890,"ha":942,"o":"m 749 372 q 852 308 814 351 q 890 213 890 265 q 782 42 890 101 q 467 -16 674 -16 q 195 48 294 -16 q 52 240 96 112 l 314 270 q 369 202 327 232 q 466 173 412 173 q 605 241 605 173 q 578 279 605 265 q 509 294 552 294 l 390 294 l 390 436 l 512 436 q 578 450 548 436 q 608 488 608 465 q 573 530 608 514 q 476 547 538 547 q 373 521 415 547 q 320 461 331 496 l 66 495 q 202 677 103 618 q 475 736 300 736 q 758 676 655 736 q 861 527 861 617 q 749 372 861 418 "},"Ґ":{"x_min":102,"x_max":747,"ha":771,"o":"m 747 750 l 409 750 l 409 0 l 102 0 l 102 994 l 499 994 l 499 1195 l 747 1195 l 747 750 "},"Û":{"x_min":102,"x_max":1055,"ha":1157,"o":"m 748 994 l 1055 994 l 1055 401 q 1027 235 1055 313 q 941 98 1000 157 q 818 16 882 39 q 603 -17 728 -17 q 444 -6 530 -17 q 301 33 359 3 q 195 119 243 63 q 130 233 148 174 q 102 401 102 328 l 102 994 l 409 994 l 409 387 q 454 260 409 306 q 578 215 499 215 q 703 260 658 215 q 748 387 748 305 l 748 994 m 483 1248 l 679 1248 l 830 1054 l 661 1054 l 579 1157 l 496 1054 l 328 1054 l 483 1248 "},"і":{"x_min":94,"x_max":370,"ha":463,"o":"m 94 994 l 370 994 l 370 806 l 94 806 l 94 994 m 94 720 l 370 720 l 370 0 l 94 0 l 94 720 "},"V":{"x_min":3,"x_max":1081,"ha":1080,"o":"m 3 994 l 324 994 l 548 278 l 769 994 l 1081 994 l 711 0 l 378 0 l 3 994 "},"Ŗ":{"x_min":106,"x_max":1084,"ha":1080,"o":"m 106 0 l 106 994 l 617 994 q 835 969 760 994 q 956 878 910 945 q 1003 717 1003 812 q 967 575 1003 635 q 870 477 932 514 q 763 438 831 453 q 843 401 818 419 q 892 349 860 389 q 935 287 924 309 l 1084 0 l 736 0 l 572 303 q 517 379 541 362 q 442 403 484 403 l 415 403 l 415 0 l 106 0 m 415 591 l 544 591 q 625 604 564 591 q 674 635 655 610 q 694 693 694 660 q 663 767 694 741 q 549 793 633 793 l 415 793 l 415 591 m 428 -112 l 448 -32 q 567 -17 512 -17 q 727 -56 683 -17 q 772 -148 772 -95 q 751 -215 772 -181 q 680 -271 731 -250 q 543 -292 628 -292 q 361 -274 465 -292 l 361 -191 q 511 -205 431 -205 q 590 -189 569 -205 q 611 -148 611 -173 q 594 -115 611 -129 q 541 -101 577 -101 q 428 -112 493 -101 "},"◄":{"x_min":195.328125,"x_max":1179.421875,"ha":1375,"o":"m 1179 961 l 1179 -21 l 195 470 l 1179 961 "},"@":{"x_min":-4,"x_max":1030,"ha":1028,"o":"m 784 777 l 699 242 q 697 218 697 226 q 703 199 697 206 q 723 193 710 193 q 794 220 755 193 q 889 338 852 261 q 927 524 927 415 q 824 806 927 702 q 548 910 721 910 q 316 849 421 910 q 155 672 212 788 q 99 416 99 556 q 222 70 99 198 q 539 -57 345 -57 q 722 -25 634 -57 q 891 69 810 6 l 1030 69 q 924 -33 974 3 q 752 -122 850 -88 q 542 -157 655 -157 q 261 -84 385 -157 q 66 121 136 -12 q -4 417 -4 256 q 68 724 -4 586 q 262 937 141 863 q 548 1011 383 1011 q 896 875 762 1011 q 1030 525 1030 740 q 977 292 1030 398 q 824 125 925 187 q 678 78 746 78 q 611 96 637 78 q 574 157 586 115 q 491 94 528 112 q 410 77 453 77 q 255 152 320 77 q 190 367 190 227 q 273 667 190 533 q 480 801 356 801 q 565 778 528 801 q 639 700 602 756 l 652 777 l 784 777 m 332 334 q 366 209 332 253 q 432 176 392 176 q 511 212 476 176 q 573 359 546 249 q 599 558 599 470 q 571 658 599 624 q 503 692 542 692 q 424 658 458 692 q 355 514 378 612 q 332 334 332 416 "},"℅":{"x_min":66,"x_max":1323,"ha":1389,"o":"m 1053 1011 l 480 -50 l 338 -50 l 911 1011 l 1053 1011 m 594 652 q 507 532 570 575 q 352 489 444 489 q 66 750 66 489 q 349 1011 66 1011 q 594 851 553 1011 l 430 822 q 349 880 415 880 q 281 845 306 880 q 257 750 257 810 q 349 623 257 623 q 440 686 419 623 l 594 652 m 1053 473 q 1253 398 1183 473 q 1323 212 1323 324 q 1253 25 1323 100 q 1053 -49 1183 -49 q 853 25 922 -49 q 784 212 784 99 q 853 398 784 324 q 1053 473 922 473 m 1053 79 q 1113 109 1094 79 q 1132 211 1132 139 q 1053 345 1132 345 q 975 211 975 345 q 993 109 975 139 q 1053 79 1012 79 "},"i":{"x_min":94,"x_max":370,"ha":463,"o":"m 94 994 l 370 994 l 370 806 l 94 806 l 94 994 m 94 720 l 370 720 l 370 0 l 94 0 l 94 720 "},"ќ":{"x_min":83,"x_max":885,"ha":892,"o":"m 885 0 l 573 0 l 467 198 q 418 258 442 246 q 359 271 394 271 l 359 0 l 83 0 l 83 720 l 359 720 l 359 460 q 409 482 392 463 q 456 565 425 501 q 511 660 487 630 q 574 704 536 690 q 669 723 612 719 q 839 728 726 728 l 839 532 l 826 532 q 741 527 771 532 q 695 508 712 523 q 654 450 677 494 q 615 389 631 406 q 570 365 600 371 q 659 341 628 360 q 754 216 690 321 l 885 0 m 457 1011 l 694 1011 l 475 808 l 343 808 l 457 1011 "},"≤":{"x_min":66,"x_max":846,"ha":917,"o":"m 846 185 l 66 503 l 66 703 l 846 1026 l 846 788 l 368 604 l 846 422 l 846 185 m 66 135 l 846 135 l 846 -84 l 66 -84 l 66 135 "},"ё":{"x_min":49,"x_max":883,"ha":926,"o":"m 883 292 l 330 292 q 365 192 337 225 q 469 146 405 146 q 547 166 510 146 q 595 212 569 179 l 867 187 q 716 31 804 78 q 463 -16 628 -16 q 238 24 320 -16 q 102 152 156 64 q 49 358 49 240 q 157 631 49 527 q 455 736 265 736 q 699 689 610 736 q 836 553 789 642 q 883 323 883 465 l 883 292 m 602 424 q 559 538 593 503 q 467 573 524 573 q 362 520 401 573 q 330 424 337 488 l 602 424 m 232 981 l 408 981 l 408 811 l 232 811 l 232 981 m 519 981 l 697 981 l 697 811 l 519 811 l 519 981 "},"υ":{"x_min":81,"x_max":843,"ha":926,"o":"m 843 292 q 741 67 843 150 q 458 -16 640 -16 q 179 67 278 -16 q 81 292 81 150 l 81 720 l 357 720 l 357 332 q 461 200 357 200 q 539 229 512 200 q 567 332 567 259 l 567 720 l 843 720 l 843 292 "},"ĕ":{"x_min":49,"x_max":883,"ha":926,"o":"m 883 292 l 330 292 q 365 192 337 225 q 469 146 405 146 q 547 166 510 146 q 595 212 569 179 l 867 187 q 716 31 804 78 q 463 -16 628 -16 q 238 24 320 -16 q 102 152 156 64 q 49 358 49 240 q 157 631 49 527 q 455 736 265 736 q 699 689 610 736 q 836 553 789 642 q 883 323 883 465 l 883 292 m 602 424 q 559 538 593 503 q 467 573 524 573 q 362 520 401 573 q 330 424 337 488 l 602 424 m 574 1011 l 686 1011 q 655 902 681 946 q 575 832 629 858 q 459 806 521 806 q 294 859 356 806 q 223 1011 233 913 l 340 1011 q 378 954 353 971 q 453 938 403 938 q 537 954 512 938 q 574 1011 563 971 "},"ż":{"x_min":25,"x_max":743,"ha":773,"o":"m 52 720 l 721 720 l 721 558 l 357 189 l 743 189 l 743 0 l 25 0 l 25 179 l 369 531 l 52 531 l 52 720 m 281 1015 l 494 1015 l 494 812 l 281 812 l 281 1015 "},"Э":{"x_min":43,"x_max":1041,"ha":1106,"o":"m 65 760 q 523 1011 188 1011 q 906 878 772 1011 q 1041 503 1041 745 q 908 117 1041 252 q 536 -17 776 -17 q 205 68 321 -17 q 43 289 89 153 l 332 367 q 525 214 374 214 q 727 404 701 214 l 427 404 l 427 588 l 728 588 q 523 780 698 780 q 342 656 387 780 l 65 760 "},"ő":{"x_min":50,"x_max":876,"ha":926,"o":"m 50 357 q 161 629 50 522 q 460 736 272 736 q 787 610 676 736 q 876 362 876 509 q 765 90 876 196 q 461 -16 655 -16 q 181 72 288 -16 q 50 357 50 181 m 327 358 q 365 216 327 262 q 463 171 404 171 q 560 216 522 171 q 599 361 599 261 q 560 500 599 454 q 465 546 522 546 q 366 499 405 546 q 327 358 327 453 m 314 1011 l 534 1011 l 334 811 l 200 811 l 314 1011 m 584 1011 l 806 1011 l 602 811 l 472 811 l 584 1011 "}}}
